<mxfile host="app.diagrams.net" agent="Mozilla/5.0 (Macintosh; Intel Mac OS X 10_15_7) AppleWebKit/537.36 (KHTML, like Gecko) Chrome/133.0.0.0 Safari/537.36" version="28.2.1">
  <diagram name="ページ1" id="12REPNETyXpiV7WHZ6bc">
    <mxGraphModel dx="2818" dy="969" grid="1" gridSize="10" guides="1" tooltips="1" connect="1" arrows="1" fold="1" page="1" pageScale="1" pageWidth="827" pageHeight="1169" math="0" shadow="0">
      <root>
        <mxCell id="0" />
        <mxCell id="1" parent="0" />
        <mxCell id="C5qRO8VCmWmZMDgydjaB-30" value="" style="rounded=0;whiteSpace=wrap;html=1;fillColor=none;strokeColor=#66B2FF;" vertex="1" parent="1">
          <mxGeometry x="-310" y="150" width="800" height="450" as="geometry" />
        </mxCell>
        <mxCell id="C5qRO8VCmWmZMDgydjaB-1" value="VPC" style="sketch=0;outlineConnect=0;gradientColor=none;html=1;whiteSpace=wrap;fontSize=12;fontStyle=0;shape=mxgraph.aws4.group;grIcon=mxgraph.aws4.group_vpc;strokeColor=#879196;fillColor=none;verticalAlign=top;align=left;spacingLeft=30;fontColor=#879196;dashed=0;" vertex="1" parent="1">
          <mxGeometry x="-350" y="70" width="1531.77" height="890" as="geometry" />
        </mxCell>
        <mxCell id="C5qRO8VCmWmZMDgydjaB-36" value="" style="rounded=0;whiteSpace=wrap;html=1;fillColor=none;strokeColor=#66B2FF;" vertex="1" parent="1">
          <mxGeometry x="-122.05870661005898" y="668.2352941176471" width="583.529711078249" height="246.17647058823528" as="geometry" />
        </mxCell>
        <mxCell id="C5qRO8VCmWmZMDgydjaB-32" value="" style="rounded=0;whiteSpace=wrap;html=1;fillColor=none;strokeColor=#66B2FF;" vertex="1" parent="1">
          <mxGeometry x="534.4122183529711" y="149.99764705882353" width="574.4120593426513" height="452.4632352941176" as="geometry" />
        </mxCell>
        <mxCell id="C5qRO8VCmWmZMDgydjaB-5" value="Privete-Subnet" style="sketch=0;outlineConnect=0;gradientColor=none;html=1;whiteSpace=wrap;fontSize=12;fontStyle=0;shape=mxgraph.aws4.group;grIcon=mxgraph.aws4.group_subnet;strokeColor=#879196;fillColor=none;verticalAlign=top;align=left;spacingLeft=30;fontColor=#879196;dashed=0;" vertex="1" parent="1">
          <mxGeometry x="577.0404770309593" y="203.23882352941177" width="209.70598991874573" height="331.65441176470586" as="geometry" />
        </mxCell>
        <mxCell id="C5qRO8VCmWmZMDgydjaB-6" value="Public-Subnet" style="sketch=0;outlineConnect=0;gradientColor=none;html=1;whiteSpace=wrap;fontSize=12;fontStyle=0;shape=mxgraph.aws4.group;grIcon=mxgraph.aws4.group_subnet;strokeColor=#879196;fillColor=none;verticalAlign=top;align=left;spacingLeft=30;fontColor=#879196;dashed=0;" vertex="1" parent="1">
          <mxGeometry x="860.5926850482597" y="343.4264705882353" width="209.70598991874573" height="191.47058823529412" as="geometry" />
        </mxCell>
        <mxCell id="C5qRO8VCmWmZMDgydjaB-53" style="edgeStyle=orthogonalEdgeStyle;rounded=0;orthogonalLoop=1;jettySize=auto;html=1;exitX=1;exitY=0.5;exitDx=0;exitDy=0;exitPerimeter=0;entryX=0.055;entryY=0.707;entryDx=0;entryDy=0;entryPerimeter=0;" edge="1" parent="1" source="C5qRO8VCmWmZMDgydjaB-2" target="C5qRO8VCmWmZMDgydjaB-7">
          <mxGeometry relative="1" as="geometry" />
        </mxCell>
        <mxCell id="C5qRO8VCmWmZMDgydjaB-2" value="Amplify(Next.js)" style="sketch=0;points=[[0,0,0],[0.25,0,0],[0.5,0,0],[0.75,0,0],[1,0,0],[0,1,0],[0.25,1,0],[0.5,1,0],[0.75,1,0],[1,1,0],[0,0.25,0],[0,0.5,0],[0,0.75,0],[1,0.25,0],[1,0.5,0],[1,0.75,0]];outlineConnect=0;fontColor=#232F3E;fillColor=#DD344C;strokeColor=#ffffff;dashed=0;verticalLabelPosition=bottom;verticalAlign=top;align=center;html=1;fontSize=12;fontStyle=0;aspect=fixed;shape=mxgraph.aws4.resourceIcon;resIcon=mxgraph.aws4.amplify;" vertex="1" parent="1">
          <mxGeometry x="929.9962500596291" y="401.955" width="70.88970588235294" height="70.88970588235294" as="geometry" />
        </mxCell>
        <mxCell id="C5qRO8VCmWmZMDgydjaB-49" style="edgeStyle=orthogonalEdgeStyle;rounded=0;orthogonalLoop=1;jettySize=auto;html=1;" edge="1" parent="1" source="C5qRO8VCmWmZMDgydjaB-3" target="C5qRO8VCmWmZMDgydjaB-48">
          <mxGeometry relative="1" as="geometry" />
        </mxCell>
        <mxCell id="C5qRO8VCmWmZMDgydjaB-50" style="edgeStyle=orthogonalEdgeStyle;rounded=0;orthogonalLoop=1;jettySize=auto;html=1;exitX=1;exitY=0.5;exitDx=0;exitDy=0;exitPerimeter=0;" edge="1" parent="1" source="C5qRO8VCmWmZMDgydjaB-3" target="C5qRO8VCmWmZMDgydjaB-2">
          <mxGeometry relative="1" as="geometry">
            <mxPoint x="707.6476013293263" y="519.6176470588235" as="sourcePoint" />
          </mxGeometry>
        </mxCell>
        <mxCell id="C5qRO8VCmWmZMDgydjaB-3" value="EC2(Django)" style="outlineConnect=0;dashed=0;verticalLabelPosition=bottom;verticalAlign=top;align=center;html=1;shape=mxgraph.aws3.ec2;fillColor=#F58534;gradientColor=none;" vertex="1" parent="1">
          <mxGeometry x="647.015217287602" y="395.00470588235294" width="69.75003577732195" height="84.79411764705883" as="geometry" />
        </mxCell>
        <mxCell id="C5qRO8VCmWmZMDgydjaB-11" style="edgeStyle=orthogonalEdgeStyle;rounded=0;orthogonalLoop=1;jettySize=auto;html=1;entryX=1;entryY=0.5;entryDx=0;entryDy=0;" edge="1" parent="1" source="C5qRO8VCmWmZMDgydjaB-4" target="C5qRO8VCmWmZMDgydjaB-10">
          <mxGeometry relative="1" as="geometry">
            <Array as="points">
              <mxPoint x="-131.17635834565664" y="275.2647058823529" />
              <mxPoint x="-131.17635834565664" y="198.6764705882353" />
            </Array>
          </mxGeometry>
        </mxCell>
        <mxCell id="C5qRO8VCmWmZMDgydjaB-12" style="edgeStyle=orthogonalEdgeStyle;rounded=0;orthogonalLoop=1;jettySize=auto;html=1;exitX=0;exitY=0.5;exitDx=0;exitDy=0;entryX=1;entryY=0.5;entryDx=0;entryDy=0;" edge="1" parent="1" source="C5qRO8VCmWmZMDgydjaB-4" target="C5qRO8VCmWmZMDgydjaB-9">
          <mxGeometry relative="1" as="geometry">
            <Array as="points">
              <mxPoint x="-131.17635834565664" y="275.2647058823529" />
              <mxPoint x="-131.17635834565664" y="317.20588235294116" />
            </Array>
          </mxGeometry>
        </mxCell>
        <mxCell id="C5qRO8VCmWmZMDgydjaB-24" style="edgeStyle=orthogonalEdgeStyle;rounded=0;orthogonalLoop=1;jettySize=auto;html=1;entryX=1;entryY=0.5;entryDx=0;entryDy=0;" edge="1" parent="1" source="C5qRO8VCmWmZMDgydjaB-4" target="C5qRO8VCmWmZMDgydjaB-23">
          <mxGeometry relative="1" as="geometry">
            <Array as="points">
              <mxPoint x="-131.17635834565664" y="275.2647058823529" />
              <mxPoint x="-131.17635834565664" y="472.20588235294116" />
            </Array>
          </mxGeometry>
        </mxCell>
        <mxCell id="C5qRO8VCmWmZMDgydjaB-4" value="AgentCore&#xa;Runtime" style="shape=image;verticalLabelPosition=bottom;labelBackgroundColor=default;verticalAlign=top;aspect=fixed;imageAspect=0;editableCssRules=.*;image=data:image/svg+xml,PHN2ZyB4bWxuczp4bGluaz0iaHR0cDovL3d3dy53My5vcmcvMTk5OS94bGluayIgeG1sbnM9Imh0dHA6Ly93d3cudzMub3JnLzIwMDAvc3ZnIiB2aWV3Qm94PSItMyAtMi44MTk5OTk5OTI4NDc0NDI2IDIwNiAyMDYiIHZlcnNpb249IjEuMSIgaWQ9IkxheWVyXzEiIHdpZHRoPSIyMDYiIGhlaWdodD0iMjA2Ij4mI3hhOyAgJiN4YTsgIDxkZWZzPiYjeGE7ICAgICYjeGE7ICAgIDxsaW5lYXJHcmFkaWVudCBncmFkaWVudFVuaXRzPSJ1c2VyU3BhY2VPblVzZSIgZ3JhZGllbnRUcmFuc2Zvcm09InRyYW5zbGF0ZSg1NjQgMjYyOC42NykiIHkyPSItMjUwMi4xMSIgeDI9Ii01OTguMDYiIHkxPSItMjU1NC4yOSIgeDE9Ii0zMzIuOTEiIGlkPSJsaW5lYXItZ3JhZGllbnQiPiYjeGE7ICAgICAgPHN0b3Agc3RvcC1jb2xvcj0iIzc2MzhmYSIgb2Zmc2V0PSIuMzgiLz4mI3hhOyAgICAgIDxzdG9wIHN0b3Atb3BhY2l0eT0iLjY4IiBzdG9wLWNvbG9yPSIjMzQxNDc4IiBvZmZzZXQ9IjEiLz4mI3hhOyAgICA8L2xpbmVhckdyYWRpZW50PiYjeGE7ICAgIDxsaW5lYXJHcmFkaWVudCBncmFkaWVudFVuaXRzPSJ1c2VyU3BhY2VPblVzZSIgZ3JhZGllbnRUcmFuc2Zvcm09InRyYW5zbGF0ZSg1NjQgMjYyOC42NykiIHkyPSItMjUwMi4xMSIgeDI9Ii01OTguMDYiIHkxPSItMjU1NC4yOSIgeDE9Ii0zMzIuOTEiIGlkPSJsaW5lYXItZ3JhZGllbnQxIj4mI3hhOyAgICAgIDxzdG9wIHN0b3AtY29sb3I9IiM3NjM4ZmEiIG9mZnNldD0iLjM4Ii8+JiN4YTsgICAgICA8c3RvcCBzdG9wLW9wYWNpdHk9Ii42OCIgc3RvcC1jb2xvcj0iIzM0MTQ3OCIgb2Zmc2V0PSIxIi8+JiN4YTsgICAgPC9saW5lYXJHcmFkaWVudD4mI3hhOyAgICA8Y2xpcFBhdGggaWQ9ImNsaXBwYXRoIj4mI3hhOyAgICAgIDxyZWN0IGhlaWdodD0iMTIyLjg1IiB3aWR0aD0iOTMuMDUiIHk9IjM3LjU2IiB4PSIxMDIuNzciIGZpbGw9Im5vbmUiLz4mI3hhOyAgICA8L2NsaXBQYXRoPiYjeGE7ICA8L2RlZnM+JiN4YTsgIDxyZWN0IGhlaWdodD0iMjAwIiB3aWR0aD0iMjAwIiB5PSIuMTgiIGZpbGw9InVybCgjbGluZWFyLWdyYWRpZW50KSIvPiYjeGE7ICA8cmVjdCBoZWlnaHQ9IjIwMCIgd2lkdGg9IjIwMCIgeT0iLjE4IiBmaWxsPSJ1cmwoI2xpbmVhci1ncmFkaWVudDEpIi8+JiN4YTsgIDxwb2x5Z29uIHBvaW50cz0iMTAyLjc3IDM3LjU2IDEwMi43NyAxNjMuMDIgNzguNzYgMTcxLjE0IDQ2LjU2IDE1Mi4xOCA0Ni41NiAxMjYuODQgMjcuOSAxMTUuODYgMjcuOSA4NC43MiA0Ni4zMyA3My44MSA0Ni4zMyA0OC40IDc4Ljg0IDI5LjcyIDEwMi43NyAzNy41NiIgc3Ryb2tlLXdpZHRoPSI2cHgiIHN0cm9rZS1saW5lam9pbj0icm91bmQiIHN0cm9rZT0iI2ZmZiIgZmlsbD0ibm9uZSIvPiYjeGE7ICA8bGluZSB5Mj0iMzguNzMiIHgyPSI2NS4zMyIgeTE9IjYzLjcxIiB4MT0iNjUuMzMiIHN0cm9rZS13aWR0aD0iNnB4IiBzdHJva2UtbGluZWpvaW49InJvdW5kIiBzdHJva2U9IiNmZmYiIGZpbGw9Im5vbmUiLz4mI3hhOyAgPGxpbmUgeTI9IjExNS43OSIgeDI9IjEwMy4zMiIgeTE9IjEzOS42OSIgeDE9IjYyLjc0IiBzdHJva2Utd2lkdGg9IjZweCIgc3Ryb2tlLWxpbmVqb2luPSJyb3VuZCIgc3Ryb2tlPSIjZmZmIiBmaWxsPSJub25lIi8+JiN4YTsgIDxsaW5lIHkyPSIxNjIuOSIgeDI9IjY1LjcxIiB5MT0iMTQ5Ljc4IiB4MT0iODYuNTMiIHN0cm9rZS13aWR0aD0iNnB4IiBzdHJva2UtbGluZWpvaW49InJvdW5kIiBzdHJva2U9IiNmZmYiIGZpbGw9Im5vbmUiLz4mI3hhOyAgPGxpbmUgeTI9IjEyNi43MyIgeDI9IjQ1LjkzIiB5MT0iMTE1Ljc5IiB4MT0iNjMuMjgiIHN0cm9rZS13aWR0aD0iNnB4IiBzdHJva2UtbGluZWpvaW49InJvdW5kIiBzdHJva2U9IiNmZmYiIGZpbGw9Im5vbmUiLz4mI3hhOyAgPHBvbHlsaW5lIHBvaW50cz0iODEuMDYgNTUuODYgODEuMDYgNzMuODEgNjUuMzMgODQuODggNDYuMzMgNzMuODEiIHN0cm9rZS13aWR0aD0iNnB4IiBzdHJva2UtbGluZWpvaW49InJvdW5kIiBzdHJva2U9IiNmZmYiIGZpbGw9Im5vbmUiLz4mI3hhOyAgPHBvbHlsaW5lIHBvaW50cz0iNTEuOTQgMTA1LjQ5IDY1LjMzIDk3LjQ1IDY1LjMzIDg1LjU4IiBzdHJva2Utd2lkdGg9IjZweCIgc3Ryb2tlLWxpbmVqb2luPSJyb3VuZCIgc3Ryb2tlPSIjZmZmIiBmaWxsPSJub25lIi8+JiN4YTsgIDxsaW5lIHkyPSI5Ny40NSIgeDI9IjY1LjMzIiB5MT0iMTA1LjQ5IiB4MT0iNzguNzIiIHN0cm9rZS13aWR0aD0iNnB4IiBzdHJva2UtbGluZWpvaW49InJvdW5kIiBzdHJva2U9IiNmZmYiIGZpbGw9Im5vbmUiLz4mI3hhOyAgPGcgY2xpcC1wYXRoPSJ1cmwoI2NsaXBwYXRoKSI+JiN4YTsgICAgPGc+JiN4YTsgICAgICA8cGF0aCBkPSJNMTM5LjkzLDg4LjU3bDI1LjA1LDEwLjA0YzEuNDkuNiwxLjQ4LDIuNzEtLjAyLDMuMjlsLTI0LjUxLDkuNDctMTAuMiwyNS4yOWMtLjYxLDEuNS0yLjc0LDEuNDctMy4zLS4wNWwtOS4yMi0yNC45My0yNS41Mi05Ljc2Yy0xLjUxLS41OC0xLjUyLTIuNzIsMC0zLjNsMjQuODQtOS42Myw5Ljg2LTI1LjE0Yy41OS0xLjUsMi43LTEuNSwzLjI5LDBsOS43NSwyNC43M2gtLjAyWiIgc3Ryb2tlLXdpZHRoPSI2cHgiIHN0cm9rZS1saW5lam9pbj0icm91bmQiIHN0cm9rZT0iI2ZmZiIgZmlsbD0ibm9uZSIvPiYjeGE7ICAgICAgPHBhdGggZD0iTTE2NS4yNSw2Ni45Mmw5LjUsMy44MWMuNDEuMTYuNC43NCwwLC45bC05LjMsMy41OS0zLjg3LDkuNTljLS4xNy40MS0uNzUuNC0uOS0uMDFsLTMuNS05LjQ2LTkuNjgtMy43Yy0uNDEtLjE2LS40MS0uNzQsMC0uOWw5LjQzLTMuNjYsMy43NC05LjUzYy4xNi0uNDEuNzQtLjQxLjksMGwzLjcsOS4zOGgtLjAyWiIgZmlsbD0iI2ZmZiIvPiYjeGE7ICAgIDwvZz4mI3hhOyAgPC9nPiYjeGE7PC9zdmc+;" vertex="1" parent="1">
          <mxGeometry x="-94.70575140326608" y="243.35294117647058" width="63.8235294117647" height="63.8235294117647" as="geometry" />
        </mxCell>
        <mxCell id="C5qRO8VCmWmZMDgydjaB-7" value="&lt;div&gt;&lt;br&gt;&lt;/div&gt;&lt;div&gt;&lt;br&gt;&lt;/div&gt;" style="shape=actor;whiteSpace=wrap;html=1;" vertex="1" parent="1">
          <mxGeometry x="1259.9973124075752" y="354.31529411764706" width="79.02268759242475" height="118.52941176470588" as="geometry" />
        </mxCell>
        <mxCell id="C5qRO8VCmWmZMDgydjaB-9" value="AgentCore&#xa;Browser" style="shape=image;verticalLabelPosition=bottom;labelBackgroundColor=default;verticalAlign=top;aspect=fixed;imageAspect=0;editableCssRules=.*;image=data:image/svg+xml,PHN2ZyB4bWxuczp4bGluaz0iaHR0cDovL3d3dy53My5vcmcvMTk5OS94bGluayIgeG1sbnM9Imh0dHA6Ly93d3cudzMub3JnLzIwMDAvc3ZnIiB2aWV3Qm94PSItMyAtMi44MTk5OTk5OTI4NDc0NDI2IDIwNiAyMDYiIHZlcnNpb249IjEuMSIgaWQ9IkxheWVyXzEiIHdpZHRoPSIyMDYiIGhlaWdodD0iMjA2Ij4mI3hhOyAgJiN4YTsgIDxkZWZzPiYjeGE7ICAgICYjeGE7ICAgIDxsaW5lYXJHcmFkaWVudCBncmFkaWVudFVuaXRzPSJ1c2VyU3BhY2VPblVzZSIgZ3JhZGllbnRUcmFuc2Zvcm09InRyYW5zbGF0ZSg1NjQgMjYyOC42NykiIHkyPSItMjUwMi4xMSIgeDI9Ii01OTguMDYiIHkxPSItMjU1NC4yOSIgeDE9Ii0zMzIuOTEiIGlkPSJsaW5lYXItZ3JhZGllbnQiPiYjeGE7ICAgICAgPHN0b3Agc3RvcC1jb2xvcj0iIzc2MzhmYSIgb2Zmc2V0PSIuMzgiLz4mI3hhOyAgICAgIDxzdG9wIHN0b3Atb3BhY2l0eT0iLjY4IiBzdG9wLWNvbG9yPSIjMzQxNDc4IiBvZmZzZXQ9IjEiLz4mI3hhOyAgICA8L2xpbmVhckdyYWRpZW50PiYjeGE7ICAgIDxsaW5lYXJHcmFkaWVudCBncmFkaWVudFVuaXRzPSJ1c2VyU3BhY2VPblVzZSIgZ3JhZGllbnRUcmFuc2Zvcm09InRyYW5zbGF0ZSg1NjQgMjYyOC42NykiIHkyPSItMjUwMi4xMSIgeDI9Ii01OTguMDYiIHkxPSItMjU1NC4yOSIgeDE9Ii0zMzIuOTEiIGlkPSJsaW5lYXItZ3JhZGllbnQxIj4mI3hhOyAgICAgIDxzdG9wIHN0b3AtY29sb3I9IiM3NjM4ZmEiIG9mZnNldD0iLjM4Ii8+JiN4YTsgICAgICA8c3RvcCBzdG9wLW9wYWNpdHk9Ii42OCIgc3RvcC1jb2xvcj0iIzM0MTQ3OCIgb2Zmc2V0PSIxIi8+JiN4YTsgICAgPC9saW5lYXJHcmFkaWVudD4mI3hhOyAgICA8Y2xpcFBhdGggaWQ9ImNsaXBwYXRoIj4mI3hhOyAgICAgIDxyZWN0IGhlaWdodD0iMTIyLjg1IiB3aWR0aD0iOTMuMDUiIHk9IjM3LjU2IiB4PSIxMDIuNzciIGZpbGw9Im5vbmUiLz4mI3hhOyAgICA8L2NsaXBQYXRoPiYjeGE7ICA8L2RlZnM+JiN4YTsgIDxyZWN0IGhlaWdodD0iMjAwIiB3aWR0aD0iMjAwIiB5PSIuMTgiIGZpbGw9InVybCgjbGluZWFyLWdyYWRpZW50KSIvPiYjeGE7ICA8cmVjdCBoZWlnaHQ9IjIwMCIgd2lkdGg9IjIwMCIgeT0iLjE4IiBmaWxsPSJ1cmwoI2xpbmVhci1ncmFkaWVudDEpIi8+JiN4YTsgIDxwb2x5Z29uIHBvaW50cz0iMTAyLjc3IDM3LjU2IDEwMi43NyAxNjMuMDIgNzguNzYgMTcxLjE0IDQ2LjU2IDE1Mi4xOCA0Ni41NiAxMjYuODQgMjcuOSAxMTUuODYgMjcuOSA4NC43MiA0Ni4zMyA3My44MSA0Ni4zMyA0OC40IDc4Ljg0IDI5LjcyIDEwMi43NyAzNy41NiIgc3Ryb2tlLXdpZHRoPSI2cHgiIHN0cm9rZS1saW5lam9pbj0icm91bmQiIHN0cm9rZT0iI2ZmZiIgZmlsbD0ibm9uZSIvPiYjeGE7ICA8bGluZSB5Mj0iMzguNzMiIHgyPSI2NS4zMyIgeTE9IjYzLjcxIiB4MT0iNjUuMzMiIHN0cm9rZS13aWR0aD0iNnB4IiBzdHJva2UtbGluZWpvaW49InJvdW5kIiBzdHJva2U9IiNmZmYiIGZpbGw9Im5vbmUiLz4mI3hhOyAgPGxpbmUgeTI9IjExNS43OSIgeDI9IjEwMy4zMiIgeTE9IjEzOS42OSIgeDE9IjYyLjc0IiBzdHJva2Utd2lkdGg9IjZweCIgc3Ryb2tlLWxpbmVqb2luPSJyb3VuZCIgc3Ryb2tlPSIjZmZmIiBmaWxsPSJub25lIi8+JiN4YTsgIDxsaW5lIHkyPSIxNjIuOSIgeDI9IjY1LjcxIiB5MT0iMTQ5Ljc4IiB4MT0iODYuNTMiIHN0cm9rZS13aWR0aD0iNnB4IiBzdHJva2UtbGluZWpvaW49InJvdW5kIiBzdHJva2U9IiNmZmYiIGZpbGw9Im5vbmUiLz4mI3hhOyAgPGxpbmUgeTI9IjEyNi43MyIgeDI9IjQ1LjkzIiB5MT0iMTE1Ljc5IiB4MT0iNjMuMjgiIHN0cm9rZS13aWR0aD0iNnB4IiBzdHJva2UtbGluZWpvaW49InJvdW5kIiBzdHJva2U9IiNmZmYiIGZpbGw9Im5vbmUiLz4mI3hhOyAgPHBvbHlsaW5lIHBvaW50cz0iODEuMDYgNTUuODYgODEuMDYgNzMuODEgNjUuMzMgODQuODggNDYuMzMgNzMuODEiIHN0cm9rZS13aWR0aD0iNnB4IiBzdHJva2UtbGluZWpvaW49InJvdW5kIiBzdHJva2U9IiNmZmYiIGZpbGw9Im5vbmUiLz4mI3hhOyAgPHBvbHlsaW5lIHBvaW50cz0iNTEuOTQgMTA1LjQ5IDY1LjMzIDk3LjQ1IDY1LjMzIDg1LjU4IiBzdHJva2Utd2lkdGg9IjZweCIgc3Ryb2tlLWxpbmVqb2luPSJyb3VuZCIgc3Ryb2tlPSIjZmZmIiBmaWxsPSJub25lIi8+JiN4YTsgIDxsaW5lIHkyPSI5Ny40NSIgeDI9IjY1LjMzIiB5MT0iMTA1LjQ5IiB4MT0iNzguNzIiIHN0cm9rZS13aWR0aD0iNnB4IiBzdHJva2UtbGluZWpvaW49InJvdW5kIiBzdHJva2U9IiNmZmYiIGZpbGw9Im5vbmUiLz4mI3hhOyAgPGcgY2xpcC1wYXRoPSJ1cmwoI2NsaXBwYXRoKSI+JiN4YTsgICAgPGc+JiN4YTsgICAgICA8cGF0aCBkPSJNMTM5LjkzLDg4LjU3bDI1LjA1LDEwLjA0YzEuNDkuNiwxLjQ4LDIuNzEtLjAyLDMuMjlsLTI0LjUxLDkuNDctMTAuMiwyNS4yOWMtLjYxLDEuNS0yLjc0LDEuNDctMy4zLS4wNWwtOS4yMi0yNC45My0yNS41Mi05Ljc2Yy0xLjUxLS41OC0xLjUyLTIuNzIsMC0zLjNsMjQuODQtOS42Myw5Ljg2LTI1LjE0Yy41OS0xLjUsMi43LTEuNSwzLjI5LDBsOS43NSwyNC43M2gtLjAyWiIgc3Ryb2tlLXdpZHRoPSI2cHgiIHN0cm9rZS1saW5lam9pbj0icm91bmQiIHN0cm9rZT0iI2ZmZiIgZmlsbD0ibm9uZSIvPiYjeGE7ICAgICAgPHBhdGggZD0iTTE2NS4yNSw2Ni45Mmw5LjUsMy44MWMuNDEuMTYuNC43NCwwLC45bC05LjMsMy41OS0zLjg3LDkuNTljLS4xNy40MS0uNzUuNC0uOS0uMDFsLTMuNS05LjQ2LTkuNjgtMy43Yy0uNDEtLjE2LS40MS0uNzQsMC0uOWw5LjQzLTMuNjYsMy43NC05LjUzYy4xNi0uNDEuNzQtLjQxLjksMGwzLjcsOS4zOGgtLjAyWiIgZmlsbD0iI2ZmZiIvPiYjeGE7ICAgIDwvZz4mI3hhOyAgPC9nPiYjeGE7PC9zdmc+;" vertex="1" parent="1">
          <mxGeometry x="-258.8234826440236" y="285.2941176470588" width="63.8235294117647" height="63.8235294117647" as="geometry" />
        </mxCell>
        <mxCell id="C5qRO8VCmWmZMDgydjaB-10" value="" style="shape=image;verticalLabelPosition=bottom;labelBackgroundColor=default;verticalAlign=top;aspect=fixed;imageAspect=0;image=data:image/png,iVBORw0KGgoAAAANSUhEUgAAAZAAAAGQCAIAAAAP3aGbAAAAAXNSR0IArs4c6QAAAERlWElmTU0AKgAAAAgAAYdpAAQAAAABAAAAGgAAAAAAA6ABAAMAAAABAAEAAKACAAQAAAABAAABkKADAAQAAAABAAABkAAAAAAbMW/MAAA5zklEQVR4Ae2dCZgU1bn+e1+mZx92EGQVAQVcUCTuKO5KYqJGjfpX43JNNPl7jTE38SbeJDe5N+tNNNEb16iJ+wIqoiKggCyC7PsmO8w+vXdX3bemoae6urp7lu6ZPpy3n3mgurrq1Hd+36m3Tp3lO1ZVVS38kAAJkIAIBGwiGEkbSYAESEAjQMFiOSABEhCGAAVLGFfRUBIgAQoWywAJkIAwBChYwriKhpIACVCwWAZIgASEIUDBEsZVNJQESICCxTJAAiQgDAEKljCuoqEkQAIULJYBEiABYQhQsIRxFQ0lARKgYLEMkAAJCEOAgiWMq2goCZAABYtlgARIQBgCFCxhXEVDSYAEKFgsAyRAAsIQoGAJ4yoaSgIkQMFiGSABEhCGAAVLGFfRUBIgAQoWywAJkIAwBChYwriKhpIACVCwWAZIgASEIUDBEsZVNJQESICCxTJAAiQgDAEKljCuoqEkQAIULJYBEiABYQhQsIRxFQ0lARKgYLEMkAAJCEOAgiWMq2goCZAABYtlgARIQBgCFCxhXEVDSYAEKFgsAyRAAsIQoGAJ4yoaSgIkQMFiGSABEhCGAAVLGFfRUBIgAQoWywAJkIAwBChYwriKhpIACVCwWAZIgASEIUDBEsZVNJQESICCxTJAAiQgDAEKljCuoqEkQAIULJYBEiABYQhQsIRxFQ0lARKgYLEMkAAJCEOAgiWMq2goCZAABYtlgARIQBgCFCxhXEVDSYAEKFgsAyRAAsIQoGAJ4yoaSgIkQMFiGSABEhCGAAVLGFfRUBIgAQoWywAJkIAwBChYwriKhpIACVCwWAZIgASEIUDBEsZVNJQESICCxTJAAiQgDAEKljCuoqEkQAIULJYBEiABYQhQsIRxFQ0lARKgYLEMkAAJCEOAgiWMq2goCZAABYtlgARIQBgCFCxhXEVDSYAEKFgsAyRAAsIQoGAJ4yoaSgIkQMFiGSABEhCGAAVLGFfRUBIgAQoWywAJkIAwBChYwriKhpIACVCwWAZIgASEIUDBEsZVNJQESICCxTJAAiQgDAEKljCuoqEkQAIULJYBEiABYQhQsIRxFQ0lARKgYLEMkAAJCEOAgiWMq2goCZAABYtlgARIQBgCFCxhXEVDSYAEKFgsAyRAAsIQoGAJ4yoaSgIkQMFiGSABEhCGAAVLGFfRUBIgAQoWywAJkIAwBChYwriKhpIACVCwWAZIgASEIUDBEsZVNJQESICCxTJAAiQgDAEKljCuoqEkQAIULJYBEiABYQhQsIRxFQ0lARKgYLEMkAAJCEOAgiWMq2goCZAABYtlgARIQBgCFCxhXEVDSYAEKFgsAyRAAsIQoGAJ4yoaSgIkQMFiGSABEhCGAAVLGFfRUBIgAQoWywAJkIAwBChYwriKhpIACVCwWAZIgASEIUDBEsZVNJQESICCxTJAAiQgDAEKljCuoqEkQAIULJYBEiABYQhQsIRxFQ0lARKgYLEMkAAJCEOAgiWMq2goCZAABYtlgARIQBgCFCxhXEVDSYAEKFgsAyRAAsIQoGAJ4yoaSgIkQMFiGSABEhCGAAVLGFfRUBIgAQoWywAJkIAwBChYwriKhpIACVCwWAZIgASEIUDBEsZVNJQESICCxTJAAiQgDAEKljCuoqEkQAIULJYBEiABYQhQsIRxFQ0lARKgYLEMkAAJCEOAgiWMq2goCZAABYtlgARIQBgCFCxhXEVDSYAEKFgsAyRAAsIQoGAJ4yoaSgIkQMFiGSABEhCGAAVLGFfRUBIgAQoWywAJkIAwBChYwriKhpIACVCwWAZIgASEIeDIu6Urvow++EpzictiUfOeNhMkARLoLgJWSzBi+eXVZROOcXbXJXNfx6qq+dSVnbXxyb881BBQHDarxZr78jyCBPQEWGT0NHpq+7AiqJaYolaW2Bb+sNfgGntPGWO4bp5rWK8vD8aRSa8VH8OV+JUEshNQFDUSY708O6SC/4qahtt5+OZFZQa3M27qe6eWFvzC7btAngVrV50Sjlq090F+SKAjBBRVdTmsAyqtVtwx+az0d8QI6Y9FNSMWV3c1KC77Yc3C7YybunjA5Fmwoih3qopCVzw5pCVCEMCNcdJgx1++VVnhtcaL6AYRAl7ejHTaLTtqlbE/2T+wUlMGvCepqoKbOm8X6HJCeRYsTZb5Lthlr0iYgHZPWK1VJVafm0+7nvS/z61Y9A+MImuLZuHoycLBa+sJtLaY6HdwuwcIxIuoOmWSfQqWCRTuIgESKE4CFKzi9AutIgESMCFAwTKBwl0kQALFSYCCVZx+oVUkQAImBChYJlC4iwRIoDgJULCK0y+0igRIwIQABcsECneRAAkUJwEKVnH6hVaRAAmYEKBgmUDhLhIggeIkQMEqTr/QKhIgARMCFCwTKNxFAiRQnAQoWMXpF1pFAiRgQiDP0RpMrpB1F2K2BWMZg556nVY7oiN16qNa1FBUCz9mOBtxfhCfzMb4ggYu/EoCIhDoScFC7Cwox9h+DsRTNogWVApStXx3xGW3OI7EEms/Ty0ol2odWm0v81ihickToVOhqLKjHrsQtKuTUphMjRuCEth8IJZephCEq0+Zrbyki+8c6pd1SjSG0tURNlaL12HtV9mZMMSKYtldH0csY/31YoqlptRW7etiXvRJFst2TwpWKGKZOMjx4Q9qMsF44uPAvf9sqCzpcDUL7nPa1WdurRg7yBg/PxZTxz58sN6P+JaZLsv9RzOBpz/x3/KHOluFPeUWx5IpUeX4Y1yf/6S3x9UhsUlhtbtWOfmnBw82K9aOiA/i6jhslmqffUiV7aIT3ZeP96DclrTPjPV7IhP//VAkbkleEdYrLcodl5QiGmKKcUfFlx69a62WqKo2BZVyr/mj4FtTvG+tCM7bHCnzmB+QyQXwGcL6NAQMZVI7/GCLgocSP7ISUP+5JFTR11nqMaqSotpq/cpH68KXjPd0Go7NbuldboN2ONOrcFkTRUlFbOJNh2IrZ0X/9FFg8nDndZO8Xz/VmwyvnulsvDTUlNnjFjV5RWTsoNOCwK2ZThF6f8eEoJuzCm/dN60UNdtIx6OKHZ3u6mYHHHWXW7o1umZP1Gu25gAia6KYvbs63PVMmzwncyWK4grFQbTVXqV2t9PyyeboPS823fJk48qd0eynauU8tax34urZL1FUvxa1YIHU+ce7LzvRHdJK0dHtiKIqFUetMe+vibSEVNOOHLQ62a3WxVsj2w/m0IhC00ELCNpevU7LjNWhbzxWP/OLYKGvKFD6xS5YQPmzq8pH9LNhTUd+SKArBPY2KO+uCeIdKlN/C5o1N+6Pz9nQw4KVyCNkq9xtOehXpv+5/ok5/q5k/Gg6VwDBqvLZHrmiHIuz5nXJ16PJicxLuwgs2x7ZvD/uzNxsCy1Dd807K8ORWJ6r8xhegzTDGf6icTVD4bZ6XdZKn+07LzR8uolPbM3LAggWrLx0gueC412NQbaWt+vO5EHpBDBqYdbqkD+iZu9y9rjQfhTZeiCWnkKn92CIDQbuYAnlSo/V5M9rc9qszUG1riUejJoIJZYI9Hps977YuKsu3mkbjpoTMz9uiiyL/31NxdTf1Iajas5+kyIznOYUBYHa5vgHa8OuI2saJ2yClKA7B2qSNBEt34da4q8uC/1ogHFATPKYjm4EwparJrrQsoFV/9LfEtB21hRU9zTGF26OPv1pcNPBSJ8yu2HsYYnLtulA7E8f+f/z6vKOXv0oO16MGhagjxvk/LfLStGPk6HyfJT5hdnJM4FXloW3HIp7HG3aBLXCNSrcNsOoyzK39bG8thnhfRADd46psWFoaP8q4x92jurvOGe0+4eXlW74Ze9fTa/AiAi8POrrWhA1LIv90pIg+gTyzEW05IQRLIC9ZpL3tKEuDDdlj6Foxazn7X1uQaDE3aZWMCgUVY+ptj9yVTn6DTHzIWmiy2nb06Qs2pw/adDWf8csseQVsm3866Wlv/lGeYnTimFZ+uMw5aO2Rf14fR5GXeiTFW5bJMHqXWa/73wfPJfqSuGY0+DuJrDtYHzJjgherPQXDkQs5492Xz7BjVewiK7NCqqGSaxPfhLQH9zF7RSlzJXWtaeX3DKlJBbD+2ObZiX6NuesiwTC7VO+XFcR9PdibMNqDirr98ZOPtZlSylgGuFLJnguHud6YWmod2lH5j50zTkoNyg5UQXPZEs4qg2UVxPrd6sWWOh22jDSz2mzoCUkU385rq8vfKnm4LTD6aXuN/mWOZFsl9YnlCUFHJZuv3bHqHgNt4TjllBE6+rSbqIj2Xc4LB6nrXW+pzZ6Mf10/aV7cPu5hQFrq4OSNmCGKVqUrhjv9rqtpw5xvLsm4tbdChgGNW9jeG99HG9wyVO6c+Puc0vwAnjIr+gnkGF7w4EYdg52p90Y3Wlcj15L56UetUN/cXTl/mVO4LrT1alj3fr9ie2nbq2esWpf97S+4+4Mxyy4XUucliHV9jH9HGhKQ0dSldcejSvNYRXtqWt2Rzftj+1pivsjuGNVlHv0jhvMRjqKakXvdevtnvKjVZtUYbNrM9uMZ6Uc1yp5qAhALXWvL4cPQRutw5Z7OjeujmmxhneNRBJ2bZK5DdqkFx007kS1qoeKqVHjBjjGDHAMqXF4XWqlx94cUoIxS2NAWbotursxhiFO+Gq3aTM09SkYstAjX+tblJeXhipTp38Fo5aTBztPGKyNeb98gueD9WF4Oek4kDjQrL66NHjPBaU9YnOfCvtF49yPzffXONoUEz6q86v7G5TB1T1iVFFctBgFC7efzWH9/kuNK3/axwSS1fLL6eX3vdTgdNiSJczksC7vQsNnIKKOH+icNtZ9zmgXyndphqn8qKWv2BGdvykya3Vk6Y6Iy6mi3qG/PmpnQ6rsN0z2oCFDV83XKmX+iPLswlBjUHvgZ/3AGMtXJ3omDHFFkJzu43Fa3l4R/mx7xJfaRqM75PBmNG4Z1ddx1UQPrqs3A5fe1YC7OhiOQm60g/ErDEMT9dkjXReMdZ91nHvswIxFpa5FWbEzOn9j5NXlwS/r4rjF3Lq27XQzunnPR+vD+5tiyal2Wu4sKqrJF4xxJyYYn3Ssa2ClfW+TkqxkQXNVqzpnQ+TmM5XSDs5jzVfuTh/q+sOHfktJW3rwDCyvD6R4v+1nObYylsKezX6117pqe/SZ+YGbztR57IhN10/2zlgVRHlC1f3Ivnz+j9qOP6RWei13n1367bNLBlbn0JISt+2MUW783fKV+N8XhR6f69/dGC+HLCSta32zuuMsnyddU1R15ZexWWsiTm+2LKBmBPl48NLSkX1NXDao0jHrsRBmomVJAhqEKt4l49z3X2RSa3h7RejZTwOJd3AciSFvI3rZf/618jNHustLktkwT7661HbeGDf+0CvyzyXBv80PtIRVQwu3+ZmF34s+5fdWh9HmrRcsfK3yWc8cdXhK4cg+9gnHuL5cGdTrLJ44X+yKrd4dO3242czDwlvep9xm6BBHeULgmn0NWmGS9pOtiPcgFNw5Pp/tP99r2V2naw49YhDaHe67oBSPvryPSE5cobYlPrqv/dW7q386vSynWh0xSvsfNfnvT/O98Z2qrwx3IZFkLQaVjp118TmmXTxW66RhLjRjJQ/WJ5jcRvPZuIH2ARlCJl18otvrsOkjfyVPTG7g4Yz3NbQMJvckN3BjzFoV8kdVVFmxXedXLhzjevf7NZeO9+RUq2Qi2Bg9wPHwlWWv3FXVq8xWHyyKUY4b98YWbYnaMUtQp7qoocK/yTqjExXJ0QjmkuID1DoPNMfnrs9fX6GeVDu28ZYNd+gPhGswZGxQdcpO/QEybBepYKERAU25qKc89Fpz3KxTEONW7j67BMOyctzoHfQhygTGDd4y2bfox71PHmpyb7cnvdH9nbjb7z2/tNaPITja8xA3A0x9b615n/TkYS7UKA2jgfQX0jKpqngzzfTSh/GQU8e4WiLZXhZQrRhY6Zgy0mQ85MEm9cP1aHXGnaC9Bd882fvaPTX9M4ij3jDT7UnDXRt/0fu43s6mkNbg1qMf9YO1kR11cf3rNkhaVcu0cZ5qXb/NleM9eCtENTb5gcKhaQIt33jhTe7szo3Z68KY/6z/gCXmFaE+q98p23aRZh4hZVBi0LuM0cnvrAyZeuXOc0pG9XaYzmYwPT7nTjS7ooPy6xNLHrupIufBOQ/41TfKb5hUgmhfSBaPdzzjP98RRXDI9BOP7WUfXOPIMk4HNxLajE8Zllp+UxOaPtELScqiD5iVMmkI4kCZeHzJtvCuhjimEECtJgx0/OrrXR9Obf377VWDKx2hfE/KS810jm9o9XtvdQjVFN3LuQWtV6Vu63mjU/pzepXbzhzpag6l8PO09sr1yFhNjMNYsBWNkinO0t5kS6wY3JMj20f1zylEiienECy8FSIMYyBq+e1sP277dNsQt+xn08vyOCm6JaycPcrzh+tz3K4NfgUd3vhrMbNKb+evv1F+ziiPv3XgjN1hQSlct8fkDRdvnScc44Su4eGvPz25DS0b0cdxfL9sgnXWcc4anx3xVJNnGTaCEeX8MSl3afKAV5eGUBNE/aoxoD58RVmWMMHxuGVPffzLWu0PvW/JFNI3xgx03H8RHjsmYfXTDy7Qng17Y59ti6JXV/8JxNQJg5zjhxhh3nC6JxhJcYD2RmZVn/20B6K7PDrHjxdSlH/9B33Ex/d3HJWBj/XZzL5t0oKb/YTu+RXNCokLoR9n4ZbIn2b7H7qiLP3SF53gmTra88mWMMLLpv/aoT0YJzGo3P4f08uyVLn/Ns+PqfxbD8Uw2h724QVteF/HxePcN33FpGcAV0dSD13mu/6JKBqh0X4E2V2wKWw6VuOUY50vfmZ+Y0DFIBM4oG9Ftjz2r3BMGOSYtzlqGo0A1Qq0Op8/1jyWJkYhlbpswagytMZx7hjzY9Bc+LtZLTNXhfY3HdYpdAIM7+O4f1rpGSNTJeEI9xsne9/4PDR/c8Q0YN6Rowr4/4uLQi0hBQ82/TWaAsrXTjHJI/pMBlTa0AOLgXXJ44FlxqowKsmG5qTkAe3cyPgYMTv/qfmB5xb6MRdH3/CGJwqciIphT8E0s7QH9rX5pgcunvmSmE6Fhga4GS9TCK/x4zebd9eavEwhgadvq+hfYcc0i8yJ5f5FEwVV/d4034S0B2/i5FeXhI69f/9tTzdgwM7uRqUuqNQGlR0N8XdWBW/+3/phP9j/+hLz99YzRrhvnVKSaIZDiymasTB2Kd2gs0e6a3xW07dCPPRRR0ADVvpZ+j3olcOo2taGYxMUgWh84mBXte/wY0B/4gerI/sbY7g9UL+YfrLJnYyDN+yJ9fruvodeb169J44RGPhrCKmYvzJ7XWjKLw5d9cc6QyABNN0t3BS+/enGFbujGFXbQx/1qQUthujbGIOGJQJuON38AXPLGT48WvTWohkLwzv+Oqdro95bQ7ajWTbnB5Xxbz/dcOdzjWhF0E/JxomoXo3obUe495zj9XJeRegDirSGpWcKz6Fb8N5/Nr58V7W+rydxzIBKx31TSx9+swl3e/bIIfo0DduBqHrSIOdNU8zL8W/fa/n5zBbFahlU7UgpzhaLy2uv8FrqA+ptzzVsryv93jSTEQPXne59ZkGgKYw4E5YNe+Ob98fSm/OH9rFjhNQnW6K6huDDNqJLa3CV/aQMSqrPCEaK9fLZMDMuvZKFAVaXZKhevbk8iOglSAcP8MEZBnB898VG9AmgjzIl+xjl77CXeyyz1obveb7hH3dUY/mGfQ1x1IgR7eCtFSE8YTDuxHDj6Q0u6PY7K8KYfDegKkUn0C9x8RgvIq+bfq46yfPXuQHkVG8zXpBfWx6667ySw0PUTM/MuhN9lIdalCVb0VmZMvwteRLGx+1tiH+xK/rW8vDavbGaMuMydHhoYUjKV0/yjOgnwA2bzFchNsTIf7nXOmd95PkFgRvMNOWbp3tnfBFavCPqM381yc2tKaDefZ4PtYz0Q5/7NPAfM5vxpMVCTCm365FDsRPvhhhl+siM5kFV9q9PMo6nwnvTRWPdTy4IovWhIRJ/a0U4XbCQ2FdGunDnl7qNN1MgrGLKN6qZRy6Y8X8M0Rrd17FoW9RQp0F9x+OwXTDOsFtLB+q2aHsEU22RC7RM64MZJC+Djoi9jdr4SdPs4xGCCIsYnPk/H7TgmJeWBtftiQeiis/T+TUlk5fuysYLS0KwQZ8CquxK3IoXVf1O/fbo/vbxg+zLdsYcuoommt7X7Y0u3ByZPDJHJVeflH4bL3GIsbVsR8QUII7Es7Y5rIRiFhRAjAjRn5vYxovtiYOc/3K+L/0n2faY0ClCBGj9hLMfm+vf22jyYogl2L471YcjEmMIOmp/NKb09lm/dopJOcaEmu+91IT2C1Mt019IGxNgtf7glWb9zuT2V08uScxZ9bpsry83b6tCW1h6kzluuEBImX6S0Ta8Atc3G18tIRynDEXjvbHtHm8Tx/ayHWfWZo8uMHRcYgQJPngpxqK2SZuTG2Ve2/BedvTup7RIJ3/WlA6SbfvNbP9P3mzCYEurTYum0unari7hzm9u2hdbsDlsGAWClsdhve2ZWtxwMQguRrQZhsogdxih9u7qzg/I0gZ8xjFCPeMf5njhGLSXoXik5RnrAatNIcvjN1ZkaV1NO+uo3ZEOqDizai1xWZZ/Gfv5DHNFwBBHDMvCvNBOWI/ics0p5i+D973YhJkQECOtyTPXHwZhbDsQfW6BiR6dO8bVu9yBUot321W7Yxv3mkQNHz/EhZl6qKnps4CvfSsdF4wzVh1nrwn/6LVG/ZGJbYQfQHXJIC247lmj3JVmA9bfWRUOxA6/66CRZdshk05MpPzCnVUTjnGg3oRxD0jNqIitq95qQ+cccFMPV6wSHF5ZGoTjMJQkiQjVK1h+1QSPaRUmedi0sZ5BlZgo2uYFtHwjHUQr3X7QHE7y3CwbeOahHwl8TP/QHwJ91xl7OCVwxgRVlKu5D9Qcn7bCZpbLHcU/iSJYcIG2lMhLS0LzN5gPv3z4ytJ+pXZ03ie8heoAXoVyeg5lAsURIZjTj0TP/VtfhH1OrH+h4uGc+y+q2l3WmStMBAuJj+xtx6Ak4EYD05ufm7fQn3Oc2xA8BBoxdbRRrZDa8u3Rt1aacDh1qGtgFe63ttyghwsVqElDEfqi7e5N/Iz2JrynaP0brfcKtOZdszRxMKajz3uw9yNXlk8Z5kS1BS3TGLIE1PrBrkgkkU7btXtoq7ZF+WRTRFMAXY4xlq3Ca8N44+xGDetjx8sXDtYXHYw73VYbwzC67Ofm91f0DzSGVMy3f/bWyrOOMykD+b2cKKmJ0YaVoIkHEV71H3i5eeG/mRQ7xF3DsKx7Xmh0ITBCa8i0+nZUuDAYD2+UYwcaW45wRcyn+cnlaDXQlfqsXsVxuIF7m7VB4DxMBFmxK6K6tben99eF//WSsvSELz7B9fKyIOoC0BCcgg1VsV450ZhZREpYuSu2+2Ac804QrFJvFGpwmP23cneL58jgbtx7GGp4/ICUwxKnrN8XxdCw5GAft8O25SAmskRMZ8+hF/Ke8303TPZu3KcdAwPQSLz9kIJRaZgzDEVDM5/ekh7cXvlldPWemC7MgWYLHD2mr31c5incCYMxLfTMkU6MMteax48IHqo//rD6/prwlSd529PZ18W840GL5wFo3nFWyXfO9x3b28R3XbyEuKcLxqLMbUNYgkyToq851fvGshBGHmDZWzRktmRs5WzzF/rgRlTYTVeWxtyUW87MWzMnXjQSdT9t/PS++Mpd0ROPMbaCox5U47OF4lqdCJ9o1NK3zJbe1rvjUHzdvpjFaUHv1YP9jf2SV5/s+e37bS/OeMVEq//wXiaOXrw1ivem5BrIuD19HtsjbzbP/H5NG6DULaykgJmP+MNLE3oDdtUrs1eHMThr6fbogaZYRYkdDcy401LqNqkpFP6b+vGGcF0Ay4m3CajW+qaqV0z0Ih5xTgNunFzyp48DIKPvg8E0AKjYoaZ433akkH4JVOSzV/dhIR4t4ZjiD1s8duuFY13fv7D0rFz1wfQLHfV7TMpxkecZVZgfvdE8aZjz+IHGGx7PeVSy1j4Ww/Rd3Dfop8/50QSrrx398TmP7OIBx9Ro715IBK8qqCe+uzKULljogz/1WOcH6yMJwUITOEI19a8wvLarn2yM7KqP15Ta31gevH+az1C1mTzSNbjagfHcaHrTGpsUdfIwZ0XaCCwM00cDltZ/fqQeAdtK3Za5m6P/728Nj91Y4c7KBLXdihL8oXLquG+aD6hnrQz97sOWlbvimDXpduRYnKaLMLOcfqBJ+efSEPKeoH3kSNVtt838IoQoQDAvm7PRYoWwYCg5+ndCixYwB2PNnlsYvP9i4xPiyCUy/o8mRbyOo5c5U3lE/yuKLuY2Dqu2TTvBc+mJroouD4TOaI3gP4gnWKjqow3lN+/7/3JjhUP/EGz1BFTg5sklv36/GUsnZX+mHXZcW8W/sJ7ELLDEBbQ7yWpdsj2KvmrDzD6MsT5tuPODdagZ4omsTf9Gq5ahuw1dfoirg7sJQ+dxC322JTrlSJiUZAbOHe16ZTmCpWjDptDKi1HyyZ+SGxivj/cmw/Ra1I3KPSr6MfFC+ZMry9Acljw++wbmUV2MYLATPBDix+cG5m4Mo6kOopb9rEL8OmdtGI2PlakCramyXV3+ZXTRtkhum6zaZEPDYwCmlnitCAzfCcHSAplNcD94aRmibGl1vdQPdtgsWKTe2q/Cngjvk/o7v6UQEE+wcL97nOo7q0IzVrmvmmjs70fm7j6vBFWPNXuj+rbnlEynfkEpyV2IU0/pxLdorG0YF5qNMD5w64H4iYMNtSct/EuFV5t9CMHqV45hQUYH7WuML9kWQdA+2IyJ359ujqQL1hUTPS8tw0RebU4PYkkj2FO6wTNWRDB3slfaQFW0zbtdFoS1Wr8v9rOrys7u4FvJxSd6MKDsyfmBB19rLvdqwVTTL13QPYiGaEPwVZMFN7EoqVaR6fTVSxy2Nftim/bGR/Zvr44nrqXEtXEeo6Qf89lp8voTu7s86a/d6W0MRMak6N/N8mMAd/oHYyx//tXyQBOaAzLVwVNOaldFLOWMznzZWZ8Ih66di0ri/qY4onSmJ4TpFxhPD6FBi8Zx/RzD+hrvDawAvK9ZQQ0IlQZMWF60LYxYg4Z0MB9oQAWmxVmCMQXNzH0rTbz8xudBr27SnD4F4MWQSwy/uO7xhpueaOjo+jEYt3XvhaV/vLa8KaCNz9anXOjtQEj9aGPYUG/N10VRNYb8YtJChxO0gkO7+qw7nLJ8Jxgf4KIQQKX9063hH7zU+PvrTULBXDDOfc2ZPqxLnjM7KIVxbXkSkwN/8XbLW8tDbqfZbyaHZ9uFl6Oth+LJsOJoOEIJxqzaa07zGtaFHdLLfsoQ59q9UQy2OG+0qzQ1wAiugXFeuG2gVtjGGhDLv4yv3h09LTUqZp8yKyKCo67RHLKYTvTdeTC27MtY3/KM1Q2kX+LW7jFEPX5+caB/uQ3TDDFGafwgZ1Up3l9MFNCQ/9vP8SHo4MNvN8Fa5Nfwa4G+/n52C2JyIsJ2gdKHB19ZFvzu1BJEauzQJbop/x2yScyDRRUs0O7tczwxz3/vBaWYiJcO/ydXlL68WAtGlT7+SH8wmlkQfgDy4Upr50Ej0fLdUe3lq8vFDZqHNld9swiS/WxbBFNeEAxLbw9akSYOdvz9M4x+sExJi4IQj6kIkwSxTpyCV0sMQMcbokGwkOUzhrtfWKw1RSFyeWr62jeML7NaEdAyh/fRfIbhplBzjCB7Yn7gb58Ee/mso/s60Zs5frDjuP6OkX0cWforbjjDi3BUC7dFMei3Gz6It4H+SvRjGq6lPXA6+9AxuB5VYwxOfndVOFN8DsOl+TXvBHIU2bxfL48JYiopxiD/4JXGl+6qSheV0f0ct53twzuhsfymWoAiuKMuhuB2hnlnOArt9whvgCJbiAoCxj0fbI5/vD5081eMIycw+BPvasN6OSamTXhGeHKErEq+8rQaps7dELn9HK1PUJ+zE1AV8toGVFhNJyGif9B0JIc+heQ2CKAa6Hba0WKMxWY+2xFZqDWiWXtj/NoA53WnedBuha/J45MbmCp05UTvZ9ujODFRJUz+VIiNuRsQ+SeOx4zhg9XJMGFA6zI2sdFwbNtXHIu6IUaf6SdC42c0IHy8IYLpq8kISG3ncKvwBNLcW/hL5vEKGGvzwbrw8wtD159hbH1HLaM9nVyog+xvVjGfDjH/DYZNGeFCizXW78LIqfZ/0IeNoTQQU5yVRem0+8GO1W5MBAsriaGN9uxRqBkZ77DXlxsn9OL+XLYjihYxDGXQGzm8jx2hFxDvTb8zsY11ydbsQ83RmLjuSG3QUCSOlTgwmsmW7OyD6OBy6HZEfQVV1wMtyp514Q/Xh0471vWH6ytMV8dAROZSl7amYTd0GH64LgJhwkQWXUYsGCw2ZYTzW6djcqNWVWz/B0+yTfvjj37sxzyHZNUYBLCUGXp4Nx6IjzUbi9v+9Hlk5wiYFOjOJdQjZ0ER0Mf3q/daMOkXbyidsAEpYE2VV5YE06szqHN9b6rv1mfqB1S1N2VUJdBefvkJrlq/unQHZlVryxQmi7vBPJ/L9v6aKEJlIfyI4afpE7zo6TPs3FMX+2RT2FATRMUKke9nfB6+e2qKkagaXHqiB2+XhkTw9f3VkeaAYjbPVjsWzeQYOYFVDof2ckwfX/rc4iBqggZ1g7l4W0QFBOOtMMboww3hq/6n7uMHanqXG15vLVCxY6oca/fHUlcFTDeqq3sQsas1GjIkpQ0m+GN0xXenlmKlsk5dQBsJgVotaCSr8C67Ff0ns1YFxw4wiSjZqavwpA4QMFYrOnBqcRwKRdheG//rXH+nGyowhw7Bm0xzc8tZJace68KaV6a/pu/EjHwsJ/f3O6pm3lfz5M2VZwxzQk+xFoPp2qV41/BHlRlfmEwJvOvcEqxaakh/4dZYXQAtyobd2vJfr5lNTrz6FE96HBtMAFy8LZy8/fRpIaYo4k2DxgXHu35/beWcf6156IrS6ye5sd8wm1p3lqYPvcrsW2vjGOyu2394EzUyTHbpUNUmPZH27MH8Bwy7Twy4TR6Ppkm0DHShKmQ99zhtHIS+Zob8oj9k5heRZsyh4qfbCQgvWLhjML4GQ5DnbzC5YdrDE7Gi1u2PLdlqHj/k8Zsqh9U4GoK5Bz9gMsegCtvjN6PXUqv3XT7R8+KdVf/7rcrp470o5aaa5XOZa83QPlhg2ahMn27GzI20t0QMaHRb0aiUnPWdzDLmoKW3QG89oGjz7LR+xuSB2g2Jih7mBt9wmveF26ueurUSKz8mWspuO9M3eahxdYa2M1u3kBLeEBEE0bA/8bUb1Ao9g++tCqFuqO9gQd0P7VanDXUOaPfw13T7zxnlQreDYWwGOkxWfBnFm3X68dxTaALCCxYAoZEFC8f//5dMwq20Bx9uXYRk+cMH5uNrxg92Pnd75bh+jj31MdwYqGton9Z08V/iG+ogextix/V1vH1vjT7yOhqALhnveeb2ytfuqsZ01vR6GrRmyfbwfrMgXwbLkT6iBcBU/StP4hi8nWEE6cwVJjU1QyL4ump3dG+9ggYa/QdqhRmFT9xU+ZebKiePcOlHLfSrsv/5xvLh1XZEIsMbVuKTPDfxFf0ANSW2iWbDU5FrLFCIl8eCfvY0Kp9uRixmnQa3VovQT9DaFNj5i4/s70TwBjRj6ZPQgMeUFzLE4Ncfye28EyhwUcq7vRkSLPPYUUX61cyWDL/n2F3mtc5cFXxxoblmobsQyxQ++s2Kco81EtV6yoJhBR2LkIlgRBtu3qvU+l9fr/j84d6Z2tHe/iKsWLXYMoYP7uQDWBNwrXnlTn/w5zviiHtpEt+t9SDIzT8yBJXXJwJhfXt5KIyhHvr6VWuD1MFmZdEWc8kb0de54pE+t53hw6sQxusi+4iKpf2F8S/m61rGDbC/fHc1ArPor5XYXrMrtqcxnmGAavrhndzz5LzA3qaYoZ8UnQYjejmnndC51qs2S26boq3V1va9dQvLendmBKkhFX7tOAFjQ0nHUyiKM/AE7FNpf3ye//Lx7jEdD3WGagte4tAldMZIN4ZummbprvNLr5jgnbMxvGlvbHtdHHUHNPdg9U1MubhsvFtfsTKcjtGnf/vUX2m2ICCqBBjbumBL5JuZ4/a2pqZiuR0ohT4Cgf4qeH/E8NGdtTGsb6jfb9g+2KQgkHR6HGTIF3oGnl0Q/MYk77AMwUz+ekvFsm1eBKrGpCLMLYfl6NcfWGmbMsJ9wVgXZkEbrpX4OnttOBhWMzXwm57SiZ0vfBYoTxvLCpXB1PFMPR7tv8qlEz1YPw2Va/04BiTbFIq/ujj0tUnGvpH2p8wjO0EgW/nuRHI9eArasBFU5PcfBB69sbwTxRSjEFbtif/7m81P3lKBGAamGRlYY79hshabFMUXPeh4FTW8hqSftXpX9KdvNSPWjTP1hSVxpCaUVhUNIpjGPCjDAhA4EhFy528O400kPf3EHrTE1/qVBZuj2QULyrinIYZlY9LTQT8gOr9+9Goz2t3Sf03sQRM+/tAYl3hFgj14pc10MPZvOxjDuA0cllqfy3JGZ35avDmy5VAMq5zpT9be1hXLDZPzoyYXjXO9viJUlfoijRlILy4OULD02Lth2/zB2A0XzvslcFdAPt76IvT+KvNXm+xXxF2F0AWvfB544KWm7EfiVzxs0SadU60wDP1f/t645WAcXZmZPhgIhrB5mIuT6QDs33YgtmYPVmbOeAiattDANG9jjldLrBKIRvtM8oEWt1c+DyLWWMbLtP6AhwHuVfxlVysc++hH/g0HsIBY9vS6+uvznwU9CM2RqpyI1DpmgPOYrPXN9l/4WiwsoiI4TEpLFurXS3dG1+zK5rj2X4JHtpPA0SNYyDAqWaj4/PD1Jgwdamf+9YehLlDmtf/3rJY7n2no4kKHSHZXbXzMj/cv2xlBA1OWOgZsxtI1734RztKb9vyiICIr4Ei9tfpt3K4wfsGWsGm0+MNHquqMlaEsA9xx0yPW2F3PN/5xdiebAvUm/fDlpt9/6EfUlCx51x/fue3th2IzVoXQBJlyumpBHfDuc8zj9Kcc2b4vZ43yjO3vCKU+B9Gih77jVz83j4jdvoR5VIcJ9LRgpTy0Omx9+gl47G/cH/v1OxiWZf7JfkHgGFjjwEP72r/UL9ycWkLN0zPZi2i8Ly4KXPi7WjRRm75/Gc7B2HFEiakPZBRZCE0yLqjh3ORX1NSwtt3q3RkTwZrVGBGWRfWQFDQLN/8jM1owq/xgU8akkhc13UC98sevNf92tr9XKYYZpEqJ6Qld2DlrdaQhoGrR+nQfjG/oV2a/cFxXm9uTSZZ7tSmZqcuDaBVVPCTmb4qmg0o1x2QkSjLlrm8kyrP+imCRgqPr1yimFApcX8+eVayIa7cmp/Lqj9VGIXWKOk5CA/Cf57Rg7OWwPia5q/RmaqFquz5ejuZsCK/fG0PM5bvOKUHXfttvubY+2RB+akHwndUh9CeiLynX4drveNfbeEALj1U91ORC++qVjfujfcpN8qJPHDcP4o4v2hr+qtk67DgSi3RiDKf+FNNtbYyIRf3rvAAGgj50Wdn5ZnOnTU/Udqoq3jofnxdYsCVaXYqh8J1yYcbUjT/Utyj/WByoa467UsesRULq1ad5B7V7foIx3fTvVuuZx7n/OMe/r1HRD9HAsLh5G8Jz10euPrIYpRLHdHT1oF/Rd4xGgipWZspSg06/YPv3YKgJnhARjOk/UnYAPdyioNre/kQEOjLHbVDQnADxgeb4H2cHMPJTP5Yasx8QGRIP59bVCDtsAioRuOvufLbxmkkedOTrz8ej+GBAW+gNfYJZPrgw4rpoTfgftby6NIhZMt88zTsuLQR7SgqqBbMaUbGauSqMnn5oUPu7xrRqiNXyX++1XHKCR1s1J3mbq0jHtnBrBEm15953Oa1YKGHgbD8WY0Wjc9I8pI5Kx7wtobKsbeTJ40EPtyUWVbv+ifrThrmuO9U7/SRP9ojJ6AqcuTL06Bz/2j0xrFuE0DSFrlvBWkxRvHK8ByubYRxsW27RJaJYpo1xpy9/ncxgJzYmD3f++uqy2mYsCp1yLYTQqdHNQsUy0Q9c7MOQF0xFT5gEZ2KF1JOGOPRK1wkDMp2CKPWIswj/ouPlyBWtgYgyeUTmJs9MaYmw3yxoaxfs/t4/Gp/6NJAexSlTkgCNPnJ98HU4GINeMM+urEQLHZvpxJz7MVCoMZAyfCaRMlQSCz20SwC0GoM2Qr0Bc2tilv7ldiy+gBCgmFMNvYOCoO8PQy7X7cViWVhhPF7rj/tc9nIsaY46ub6OntPW1gOwFg6GSkBIk/dewuASlw3hlZM7syeGgOXgmT5EFRGikGsoUfbTDb/iKYJ18RD9HQ3Mx/dzIHLpuIF2VNNw0yKHyDvCzny2JbJhfxydBohbXVVi87g0Mp14KYG/Jg93vfjtSlRvDWbwa3cSQOzs4Q/sH3hkLj0aT2+ZUvK7a02iznWnVclr9WQNC0bgFuqbNmM2aVxXNnCPlRimlnU8OcgOOgQRswHKBW2dvS703hpIhzbvHz9p/6L3KBHDwIngEF2Ciebwsgy98O1UK+QPlVMEVu54Rs3PQC2pzG0pc9uhTZsOoSsTrXOtn0T2sYlVHbUlQrFmsrYghXkq3EsC+SPQpXssf2YUe0oJ5apojTmll4+O1ViKPZcZ7UM8CYxzt7jaan+JQyXJfkYu/KHbCVCwOoxc5rtU5rx3uKDwhAIQYDW+AFCZJAmQQGEIULAKw5WpkgAJFIAABasAUJkkCZBAYQhQsArDlamSAAkUgAAFqwBQmSQJkEBhCFCwCsOVqZIACRSAAAWrAFCZJAmQQGEIULAKw5WpkgAJFIAABasAUJkkCZBAYQhQsArDlamSAAkUgAAFqwBQmSQJkEBhCFCwCsOVqZIACRSAAAWrAFCZJAmQQGEIULAKw5WpkgAJFIAABasAUJlkxwkgyhiCCBd6TbCO2yXdGenr7BYVAsbDKip3yGsM4gNGosrOOqXCi9jT+iCJ8jLp/pwjAvDOurg9bzFr85+DPAuWVtBY2PLvpqM/RSw9vWxH7PgfHdAH+D/6s118OURM8H76ZbT1y5kUgbV5FixtCV6rtrBFJ1ZhKAIaNKEnCWAl7f6VRfxw70k2PXPtxI2Mm7pnLm921Ty3YQ2qtmFZdtaxzFBzHwkIRgA3Mm5n3NTFY3eeTZk+0YsF7CJRbZ1BfIonn7SEBEig/QRw8+IWxo2M2xk3dftPLPSReV6XEOYu2hK59vGGYETBIqaUrEL7j+mTQCEIYJkol8OKFXz/cUfl6cNchbhE59LMv2DBjp218deXB3fVK1jLr4hefztHiGeRgGQE8GaE7sJBVTbUrQbXFFerYkEESzL/MrskQALdRCDPbVjdZDUvQwIkICUBCpaUbmemSUBMAhQsMf1Gq0lASgIULCndzkyTgJgEKFhi+o1Wk4CUBChYUrqdmSYBMQlQsMT0G60mASkJULCkdDszTQJiEqBgiek3Wk0CUhKgYEnpdmaaBMQkQMES02+0mgSkJEDBktLtzDQJiEmAgiWm32g1CUhJgIIlpduZaRIQkwAFS0y/0WoSkJIABUtKtzPTJCAmAQqWmH6j1SQgJQEKlpRuZ6ZJQEwCFCwx/UarSUBKAhQsKd3OTJOAmAQoWGL6jVaTgJQEKFhSup2ZJgExCVCwxPQbrSYBKQlQsKR0OzNNAmISoGCJ6TdaTQJSEqBgSel2ZpoExCRAwRLTb7SaBKQkQMGS0u3MNAmISYCCJabfaDUJSEmAgiWl25lpEhCTAAVLTL/RahKQkgAFS0q3M9MkICYBCpaYfqPVJCAlAQqWlG5npklATAIULDH9RqtJQEoCFCwp3c5Mk4CYBChYYvqNVpOAlAQoWFK6nZkmATEJULDE9ButJgEpCVCwpHQ7M00CYhKgYInpN1pNAlISoGBJ6XZmmgTEJEDBEtNvtJoEpCRAwZLS7cw0CYhJgIIlpt9oNQlISYCCJaXbmWkSEJMABUtMv9FqEpCSAAVLSrcz0yQgJgEKlph+o9UkICUBCpaUbmemSUBMAhQsMf1Gq0lASgIULCndzkyTgJgEKFhi+o1Wk4CUBChYUrqdmSYBMQlQsMT0G60mASkJULCkdDszTQJiEqBgiek3Wk0CUhKgYEnpdmaaBMQkQMES02+0mgSkJEDBktLtzDQJiEmAgiWm32g1CUhJgIIlpduZaRIQkwAFS0y/0WoSkJIABUtKtzPTJCAmAQqWmH6j1SQgJQEKlpRuZ6ZJQEwCFCwx/UarSUBKAhQsKd3OTJOAmAQoWGL6jVaTgJQEKFhSup2ZJgExCVCwxPQbrSYBKQlQsKR0OzNNAmISoGCJ6TdaTQJSEqBgSel2ZpoExCRAwRLTb7SaBKQkQMGS0u3MNAmISYCCJabfaDUJSEmAgiWl25lpEhCTAAVLTL/RahKQkgAFS0q3M9MkICYBCpaYfqPVJCAlAQqWlG5npklATAIULDH9RqtJQEoCFCwp3c5Mk4CYBChYYvqNVpOAlAQoWFK6nZkmATEJULDE9ButJgEpCVCwpHQ7M00CYhKgYInpN1pNAlISoGBJ6XZmmgTEJEDBEtNvtJoEpCRAwZLS7cw0CYhJgIIlpt9oNQlISYCCJaXbmWkSEJMABUtMv9FqEpCSAAVLSrcz0yQgJgEKlph+o9UkICUBCpaUbmemSUBMAhQsMf1Gq0lASgIULCndzkyTgJgEKFhi+o1Wk4CUBChYUrqdmSYBMQlQsMT0G60mASkJULCkdDszTQJiEqBgiek3Wk0CUhKgYEnpdmaaBMQkQMES02+0mgSkJEDBktLtzDQJiEmAgiWm32g1CUhJgIIlpduZaRIQkwAFS0y/0WoSkJIABUtKtzPTJCAmAQqWmH6j1SQgJQEKlpRuZ6ZJQEwCFCwx/UarSUBKAhQsKd3OTJOAmAQoWGL6jVaTgJQEKFhSup2ZJgExCVCwxPQbrSYBKQlQsKR0OzNNAmISoGCJ6TdaTQJSEqBgSel2ZpoExCRAwRLTb7SaBKQkQMGS0u3MNAmISYCCJabfaDUJSEmAgiWl25lpEhCTAAVLTL/RahKQkgAFS0q3M9MkICYBCpaYfqPVJCAlAQqWlG5npklATAIULDH9RqtJQEoCFCwp3c5Mk4CYBChYYvqNVpOAlAQoWFK6nZkmATEJULDE9ButJgEpCVCwpHQ7M00CYhKgYInpN1pNAlISoGBJ6XZmmgTEJEDBEtNvtJoEpCRAwZLS7cw0CYhJgIIlpt9oNQlISYCCJaXbmWkSEJMABUtMv9FqEpCSAAVLSrcz0yQgJgEKlph+o9UkICUBCpaUbmemSUBMAhQsMf1Gq0lASgIULCndzkyTgJgEKFhi+o1Wk4CUBChYUrqdmSYBMQlQsMT0G60mASkJULCkdDszTQJiEqBgiek3Wk0CUhKgYEnpdmaaBMQkQMES02+0mgSkJEDBktLtzDQJiEmAgiWm32g1CUhJgIIlpduZaRIQkwAFS0y/0WoSkJIABUtKtzPTJCAmAQqWmH6j1SQgJQEKlpRuZ6ZJQEwCFCwx/UarSUBKAhQsKd3OTJOAmAQoWGL6jVaTgJQEKFhSup2ZJgExCVCwxPQbrSYBKQlQsKR0OzNNAmISoGCJ6TdaTQJSEvg/MFhAfAGeKXAAAAAASUVORK5CYII=;" vertex="1" parent="1">
          <mxGeometry x="-258.8234826440236" y="166.76470588235293" width="63.8235294117647" height="63.8235294117647" as="geometry" />
        </mxCell>
        <mxCell id="C5qRO8VCmWmZMDgydjaB-16" style="edgeStyle=orthogonalEdgeStyle;rounded=0;orthogonalLoop=1;jettySize=auto;html=1;exitX=1;exitY=0.5;exitDx=0;exitDy=0;exitPerimeter=0;" edge="1" parent="1" source="C5qRO8VCmWmZMDgydjaB-14" target="C5qRO8VCmWmZMDgydjaB-15">
          <mxGeometry relative="1" as="geometry" />
        </mxCell>
        <mxCell id="C5qRO8VCmWmZMDgydjaB-17" value="同期" style="edgeLabel;html=1;align=center;verticalAlign=middle;resizable=0;points=[];" vertex="1" connectable="0" parent="C5qRO8VCmWmZMDgydjaB-16">
          <mxGeometry x="-0.1646" relative="1" as="geometry">
            <mxPoint as="offset" />
          </mxGeometry>
        </mxCell>
        <mxCell id="C5qRO8VCmWmZMDgydjaB-14" value="S3" style="sketch=0;points=[[0,0,0],[0.25,0,0],[0.5,0,0],[0.75,0,0],[1,0,0],[0,1,0],[0.25,1,0],[0.5,1,0],[0.75,1,0],[1,1,0],[0,0.25,0],[0,0.5,0],[0,0.75,0],[1,0.25,0],[1,0.5,0],[1,0.75,0]];outlineConnect=0;fontColor=#232F3E;fillColor=#7AA116;strokeColor=#ffffff;dashed=0;verticalLabelPosition=bottom;verticalAlign=top;align=center;html=1;fontSize=12;fontStyle=0;aspect=fixed;shape=mxgraph.aws4.resourceIcon;resIcon=mxgraph.aws4.glacier;" vertex="1" parent="1">
          <mxGeometry x="178.82380066466317" y="244.72058823529412" width="60.63235294117647" height="60.63235294117647" as="geometry" />
        </mxCell>
        <mxCell id="C5qRO8VCmWmZMDgydjaB-35" style="edgeStyle=orthogonalEdgeStyle;rounded=0;orthogonalLoop=1;jettySize=auto;html=1;entryX=0;entryY=0.5;entryDx=0;entryDy=0;" edge="1" parent="1" source="C5qRO8VCmWmZMDgydjaB-15" target="C5qRO8VCmWmZMDgydjaB-48">
          <mxGeometry relative="1" as="geometry" />
        </mxCell>
        <mxCell id="C5qRO8VCmWmZMDgydjaB-40" style="edgeStyle=orthogonalEdgeStyle;rounded=0;orthogonalLoop=1;jettySize=auto;html=1;entryX=0.5;entryY=0;entryDx=0;entryDy=0;" edge="1" parent="1" source="C5qRO8VCmWmZMDgydjaB-15" target="C5qRO8VCmWmZMDgydjaB-39">
          <mxGeometry relative="1" as="geometry">
            <Array as="points">
              <mxPoint x="346.5885925996597" y="376.4705882352941" />
              <mxPoint x="251.76501454944423" y="376.4705882352941" />
              <mxPoint x="251.76501454944423" y="704.7058823529412" />
              <mxPoint x="-17.205711650686112" y="704.7058823529412" />
            </Array>
          </mxGeometry>
        </mxCell>
        <mxCell id="C5qRO8VCmWmZMDgydjaB-15" value="OpenSearch&lt;div&gt;Serverless&lt;/div&gt;" style="sketch=0;points=[[0,0,0],[0.25,0,0],[0.5,0,0],[0.75,0,0],[1,0,0],[0,1,0],[0.25,1,0],[0.5,1,0],[0.75,1,0],[1,1,0],[0,0.25,0],[0,0.5,0],[0,0.75,0],[1,0.25,0],[1,0.5,0],[1,0.75,0]];outlineConnect=0;fontColor=#232F3E;fillColor=#8C4FFF;strokeColor=#ffffff;dashed=0;verticalLabelPosition=bottom;verticalAlign=top;align=center;html=1;fontSize=12;fontStyle=0;aspect=fixed;shape=mxgraph.aws4.resourceIcon;resIcon=mxgraph.aws4.elasticsearch_service;" vertex="1" parent="1">
          <mxGeometry x="317.41210704574723" y="242.44117647058823" width="58.35294117647059" height="58.35294117647059" as="geometry" />
        </mxCell>
        <mxCell id="C5qRO8VCmWmZMDgydjaB-18" value="" style="shape=image;verticalLabelPosition=bottom;labelBackgroundColor=default;verticalAlign=top;aspect=fixed;imageAspect=0;image=data:image/png,iVBORw0KGgoAAAANSUhEUgAAAF8AAABYCAYAAACTSStNAAAAAXNSR0IArs4c6QAAAERlWElmTU0AKgAAAAgAAYdpAAQAAAABAAAAGgAAAAAAA6ABAAMAAAABAAEAAKACAAQAAAABAAAAX6ADAAQAAAABAAAAWAAAAADHEjRbAAAbAklEQVR4Ae1dCXBcR5n+35t7RhpdliVbtmzLkk85h3EgOBc2hNrcVQuEcwE7zkIVVckmwAZqly1qgVpgdykW2OKwE1cKajfJsgskWa4FnMs4juM4PmPHR3xJtmJZkiXNobl6v//NvDfdb95c0shJwH/V6PX5d/fff//9/3/3eyK6BJcocIkClyhwUSmgXdTWqmxMbAy+jXSxENVmk6BZRDp+CGscxpOokYQ4gXg/8s8g3o8wnlo/ZaiPfJE/ah+nCNLflPCmIr74IXnIFXo3kbgdRLwdROyYEtWEmED935NOvyCK/kxbT+emhK/Gld9w4oufUJjigVtJ0+/A2P4Cv3CNx5hDJwQCL5DQfkF68hfa+sSB6WmncqxvGPHFZhYZgS+AGPeAwwOVd7lGJYXYihV2v7Yh9kKNMFaN5qITXzxGARoNfQZi5e/Q28ayPda13eTRIxTQk+TXdQp4fOTTGxFuJbfup3hqgGKZEYpnohRLJWkio1EyE6BEhveK5rL4hXiC9NQX3oiVcNGIL7aQm44FN2Bj/AfSNN4wi8EFEHc/tfoJv15ya5MUQxAzF5Kv0Ovxc3Qh1YGNubtYg8jLIO/H2Ny/pK2PnSparsYZF4X4YlPgAxAt/wSiMzcWgqAhCrv3Upuvnpr8KwsL1CAlnj5FZ6PHaCjRQmnqLYHxO5SKfEX7FA2WKFOTrGklflbEBH8Kot/s2FshItTsfZEW1K0ilx5yLDMdiUOJXXRsLIhVuNgRvWDCZ26Z7v1g2ogvfhicBZHxWwzOgctEguq9z1NXaDl5XS2OBJj2RIils/HtdDrKNkRnYXPoY0Z8XLs79mhhXm1SpoX4YnPoChg5v0EXZyrdZNnqdz9PS+o7QfQ5St4bFREiRX2R5zERi6B5qf3lPgnxNW1D9O+no3s1J754MAjjiMAtGnZMBUaou/4YNXmnR6YrTU0ikhKjtGfoCPaDwv4J8T8UjX4ESjEbbTUDvWaYgEhsCq4H0WFN2givaUdpRUPkTUt4JgJrVVc2X0717i0FNNG0v6Rg8KmC9Ckm1IzzxUOB1ZTRnsLm6lH65NV3UG/jYnJNVmVUsF2cSH9kG52OXYWxuJUGBT2qbYh8SEmbQqQmxBcbA3PgHtgDw6lJ6Uujayv1NKzGSqhJOwru6Y6MJPbS4TH2LdkNtb/V7or8cy2anzJRDHVyLLQdnVmhdKjd9zLNrbtCSXurRdh63nvBh26rlrigm7ACfj3V4Uxd5o8FH0EnVMIHXdvf8oRnyvrdbbS47jh2syRH8yD+S/zItygfn1xoSsTHBvtViBTWbvLgoj20tKFQY8iXeGuFwr4rqCP4nNJpTasjl+tXhkdWyaguMmnii03eXohydo7J0E8rGmeTbtt05RJvxfDs4BoKe55Vu651UTz4TTWtutikiQ/dzLbpiBgtC18gj2tGdV14i5ReVHcN1NGXld5qtEFs9C9Q0qqITIr4cJRdA67ng48cwFRfULeTQp6lZsqf3FODO3tF0wLSxLH82DQX6a6v5OPVhSZFfBD+20ozAaiUM/zXKml/ihG31kA94RFlaEJ8WDzoc3bQKQULI1UTH4fa8FBqqyxU7K/pDjs4pqwSf1qBBrhH3LTTGpSmgYauScl+1YKzMJYI6NrXldyAaxv5XdcoaVVEfr+znrbtC9GFcRf1dsXpHcsitGRevAoMpYuORXXasqueXj3ho4FhDy3qnKD3rxmmprp06YqlcrvqNXp1TCqh3S42B6/S1kV3SIllg1UZWeLBwJ24viG5WEWaLm86DQ/lvLIt2QoMg9hf+H4H7TsWsOUQ3X3bOfrkzUMF6dUmHOv30ef+vYMGhlSPR8CXpgc++jrdeNVotSjz5V8+/xIlJSecoGdgeN2QL1A+VKXY0T+toAy6npsM4VNgus9/z5nwjH/jE630ux11SlPVRriN+79bSHjGE5tw0T9ubqfdRwonvuJ2usIhpaxG11cr+ysmvnHbgGiN0mB3eFJq1paXwvTKidID/9HjrUpT1Uae2NpI50ZUjpdxZIRG3/npFNoIexaTR9sl44T6rRqcamZBrGLiU8Z/i1Jbp4Pkc01qo31qV3mu7hv0GvuA0mYVkb0VcPVBMMC5keq3Pasbrb4LVpgDQvDdo4qhcuKTS53VBu9gyVYSWPeDOHs4GyMaU10j6UzJmlbm0JjLClcbGBytrK5jXy6gv2fQ7/Pof7JEZ1t9S5jiVt80Wi0epoqPRSuadvFlXLgjcRtUTKsdavMXHrmZuUPo9NFxM5Z91qOpJQ1GuK0xpeY5xIL+DC2YlXDIqSxp+fw47TykimWnmu3Ntr7shxoftWlCi8O4R+cgwrzudpxT7MvfhoDrPBm6lSjysFNb9rTKOL+D708qt8oGcOLTY0dmxU9HraAVGMMgmaMAd1yvrlZO++DaIfrufafo1tXZvDvXDnPypOGmd16gukCa5rdP0Nc+1Udf2dBPLQ0qoW+/RrWX6DxUXDvhuQd9DuMxe9boVdUyjZm0MqiI83GZCLJM4vp69yuItxVtYqLIUmVRhLuwXbMn6E4Q+7E/ZM8pVveO0z0fOGegW7koSl/8q7NFUVea0dmWpN9864hSnFfTZ783x0ib0ZCk9beeV/Jx202Nm7F4kXTOb/N10nlphcLXzxd+ce9HlbUmLulZGfGJ8hYtV271l94xXZiodF4UWu1J6+xeELsNS/6V4376/EcGrCLTGbh6eYTu/+AAxFHQaLOp3iZepP4p/ShFpZB3PsryALLMqGlB0kNLIXr2KDgcIqXQ5osL6pAZH/Kv9EECy8dhiRtMTPVeM2Q8P/TuqYkWBVmFkfe9a4T45wgN6N8pbLR2qHeQ93IZn34cqyYvCXTRgeyyxC821zJqljiMLAt8z8WjYwcqAfOx0c3A6ZsX6LkF3mwXoQrH38wQQD976onq8GQp60N/WzGOzmDpXns1ldOYWSuAspxv3DyTD8A1YoGcFZzFGnCj0wtKS6ZiVd/w9EZwP/+qAZ8rQ2OSCJOZtQSe8qzots2iS7v4sqLEAN4UWV6XnYkr4vzyxM+++5Qfo1uzKfD5rD/bkN8F2aTAbCVWJFKe+PYl5NVVZbkI4j+rZJ+GjUKCWsl8XHhtVzQdn8tBh5QanmTw1z9upYG4TmvXjtDchTW9Ekkn9gZoy/81UhfOCa5/3zRITZ97ljJsTauI8+2ySsFhRDRN1b2SmRIWR2H1SlIyqQx9bWsTbhtqtHFnA93RGqdPrj9DrQuSlVQvWqb/qJd+/HA7Pf66H9qLRq2H66aH+JkMHwzkNUAhKjoNKk98fr9VMm6hz5ZReovSomiGQANMeAaB588HA/S/31hA7+uI0Yc/NkAzFqiaXFFEuQyD6P/RRk/2BbJ4c/2vDku5VqT8eIZ9InkN0HgXWMovEixPfDuiTAZsVFtwuTWqxxsKY9IsJzEJj/QH6ZFvzKe3hZL0nqXj9K73jlC403k1DJ7y0JZfNdHv9tfRvkSOP2SmQZdbpkdiEk2k1Betsy9klyVSeeLryTMkM3tKWl5l0VdeoNufol1xh0WFSdgZ9dLOnc30zRebqNedobZQimbCScanVYMRF/xebjqULD+UhWHniau8l0VKxtP2RdVfpKSSXL7HicQZcktEyRTc2lUQTjZy2aw47XpNascBEYukvWkX7WVf/ahdu3OoYEtaUcODeQX1hPE2o5x0Ro4UC5dVNY238oR8UVQ0412lmrPQ9at5z5o+0HDmsebmadB0uMsTaZuAwzcgKoDynM9Isi6FuVl8YL9EZgBpc6gfihCfVjF40b4fHNkOP0hDaQ7OVlD/Lrl2nLr+M0XHMpV1Sa1dPvae+gQ1z7VLh/L1rBLDGOcAfnGYOUlo28y2M7D9deCXtu2D9n3SQqIGynK+UVzQS0q1vugY7YFn0CQ8ZybQoVF07FVwMP8yRcwB9ulPSH4QCfEnri7ibZTKvDeVojbbKn87hH+X43lgvuLHbitx6mkQtIgGDTWYDkKZOQLDno9DmfAMXPx1aJS7kZegJUaa+UdEt5vBUs9K2exJILkjiwiNDyW6SyE1Tqy4w3z85sL88kTwadAIOh/PEZ59/s1wYM3BSmFHHODdHxukR19spAOJwm5dmU7Tvckk9QDVgZRGd/uzMn8V0v81kTD0pC0uF230uOkkrlXKcEtLjLqvt3lFmAH4xI37ZDJKACu3BXhnBbLVE6DwITCS2WcZqRk26gpYuKbkETu0DXipuwJQe1msgif6s3yW0Uh5uRLB4Ljj4xjcfkzEWXCJPAg+bDmHZbwPeblDag0S7Yt/3Ud+6Uya270/kaTv4ceEZ1iG/DvxmYVGPL+EdB31uO5a2H8PxxPUgwkxYZaWoc/c22dGs88YVij3aQhiyCQ858RyE3IAKzCCMsxAcp9VLFLMJLyR9ISUUTKo1CpVEq947sDsrjIO6zFQC7rgOmZuYS55DVfoWPRUC2Fw+uIGq9aLW8L02UfbKYV2boeYeSBZiFOA8CPoRpPFcVZ16kP6J30+bEOCvn/fSepclNuXuAgTmwlfEVHzOI1QE3huHsYLu8S4lXFaNv6ZM5AuxEq8t7vLVtMxitLFwbgolQ7eA7Zai1K4YSSWwRZCG1K1tzVj88nFmWNPwN5gji4GjRhAhGWnrQAfwPDHLnKw/6kw/fCxVvoXcCDv5dXCM21p6vzoeZp/mUwgYDkO8WPvnx8CgA96SjEOb6yz0UcTeC/YNWzG8GTCEJY6Pq5EGoiSeZzqY9/X7iRbB7hYFooOSzzkX0sZF76bYHvD0KxpPleiHZbfJvAEHABnOd0C4BOhNpanuUl6XZokPjW6rMnEkn3GgPdRpD0DbsOXXCoCL4hyG9q/CXSwbx28Kb8kEwwYec8xZfwJTIzcJ7NBZphuFutSH5IQUS+XUxDEWdDvFm19VFVYcnglbGZLIM1mXw8Ivxut5XaefF5BaBEI05Dd/Ky8Aq7I5azCRJkD4El60bYvLcIA+RzVDsOYmN8i7yn8YtgUnQCH8XQjxN4N+AUNLiwsNYh95zXJE+DD8Fdwn3JFee952TY5LGIuBwOYq9vE+jo2iBPRIp0xCxnPEailS7V1kbNKKiJ23sjmp10/AZHKE55LH8VgrgTBTKJyGmsvrOnwhmtCAGlyGQ6zqDkuEYPtBifiN4EoHwQ33wlOGwceuBQogicD30AIgdghlCkHZ2zOxvlgHJPwXJcJbYelDYWEZ2WhMsIztkbsMxvxvM2OOjeCfLLY7L8ORHp7PgWhRXVbIBJ24CshW3EjRWUr7gjfTlNTsze82vIyvIBzuAHeqGUYB/deKGEI8YTVo6F2lFuIcvybycSvgPDnbNoWt2u/lWCnPTMHG44y8DgPXihs0KOPUVfd03RFEz5hE3xKroIZvtXp1dFCzs/o1ykVGzy7IFbWGGk+ELMFP9bZmUtN4GsivJHZOWkuOj+Q4zZWPbnj8gB5Kc8CPpkjWfd24n6zrck8WcPpB14ZWEuTVyLnyXeNguBLvrkgA/f/VazAaDrPtDyGuYEkzQxAJtINRvEZEBoDE8dQrsuq7nIxXV+14gjkkZip0ODMoPH06NKumMvpwCa1FGKFZaYJbO3yhsWy3ATO5nImjGOS7DALuGTgjXpAmlg5b7LhkxBtbIGbwOKl2UZYzpMt9h7utzQ+HhcTXtaIQiDfcoilmQHsyDaAE0ZNESpdkVlIfFdmr1JpcOJqSqSfV9I4Uof2lmMjYivVBFbh5BXB6VwulFu6B7EZykYN57Om1CmpcJx2ClxqXC3kyBSBXQJ21ZLv5kh0NVpgO+VkbnXMxMR4JXHD83YMfZcJ344yyzB+u1hiZKOJLRRJLzHwWn8y+6xgLlBAfG1d/Fmw70tKwd0jV1M09YySxhEm3EIMZJ7EvUx8XuLyCuAyJuwDA9gnYCZEj6zM82Dtt5zN+tU8WbU8CqLJwAYdM4QMrJ3tlbScORIz8DgYx1DOMOE54cmbC7HlBOdiT9OhsTVKlhC/1O6aOKSkIVJAfLHJPw/ps+0FYRVeD1n/HIgK2WKDmZBxLF78uZtbfTwBkujwocem/OTLqDxQ2RHGXChZuAZ23nzthLM1WzLKE8wvrZmOMLMw6+sysHrJxhIeBvBeYNotzATsUDOvPoZwFLas0flSlYBOf3h0Fx2P3pDDlH9oWo/YVHgOUkB8zMd/Y02252tKof7YtbRneAymubMYWoqrXmFPlupMfH65wAQ2y02GY/nLlrAMvHxZu5CBfS/sspgMHEE9nkAZlkE+s6NPhkOQ4ybwJivvBafRx5Gc6G7xJkB4zVHMjCWfoZfP18FJd6WJyvbsIS242ZamSj68bXgtiA+xI0Gd3g8nSwoE75RSoZG499EC6H0efYWSngLLHR+boOEUZAngCshFT27AzO1s/fKV6w6sltmSuDKR8KSwq1aGuSjXXpnZYVQ7BRzsyJPB5r6wsg7DFmHPZhDiaAlWr8n1vFcczNkpDe44LFw/2byl2Je2Q8S0gzbzLHwcCLkOg4F1OOcWKul6apG2bgJ5WbCpmpoqq9rwzZxO65s5I/hi6z46Nt4BFWoBPhTaa1iDzd59NCewnHw5C8UN3aur3kfn4F48GfMSv6ViuBTQIHPdCkwGq3TmIM2emE/efPlw1pSxnM4bMF9etctqs478ZE61E74dfCD5jeTihtuARY69P2wXMMzxj9KsEKs+eUikh+lk5CQNJ99hJYZdB2le/Sh8RL2waXqMdBZD8moQbjB3MeILfGqX5a8JIY+0C8FSC6Dycsi8seSzdGRsBaVEI9yyvYZrljddlv0MOiagLehFHLdC7Mo08u0DNSrl/nD7XZDLcawQ2T/EG3Av2i5Vl+W3faPmDVbeQOW2OMzdg8QrAL7oOw8v/Ng/T3YmOoJPgIGDcj4vr3YGN7CPgzbvLMARco8bq8rKEKbgNVJUAahpr1rlONAf6cEGe1ZJ40i95zp8DI6vTudF1Alw52uSO4HLORGe08sBEyT3/pZVlFVB9s2UAjbWZE3KAzx8NZ0ntFowJgUftjCBNaJDeK/pdAwcAHDBW9kDi/by5lmOhE9nDmMFqiJZiAMmOn4q3TLepEsGT4JoeWHsxq3kFY2n4K+5TK5ohdPiKB0djRliiBPr0N+l2f5ZZSYbGIUIOSRtuLwpryiB+6Uh1UrtxQbLd+6nCimIyQPDgibw8i7DTN922CbzQac2R9Sx1B/pwCg++Id6JghxGn7+uWaUn0rPtE/QefGg9jjSP2QVSokmqGJN2CCfg2uBv+B9lZXHARe+j7wIg+Qd//jYYhpPt0EcOTuplIoVRPhNFt5KGB8DH4CwaDE38Gxq9i+fmMnuAd4jakF4xh4DbiZ8vX6IFuCbQj5XXtabfWAVPJ7eC3eKC0bdajPZemraY1Y4F1A4n9PEg6EBPGbm8gsfHu0sLaw7hM1vFWbephuieDpzBBtrd2HFSabY/Uhs4Di9vMAuCdNC5aa6IbObHFwIk+wGZTAu3WFcQvRDuTgCpWAVbIW8xLC3I2g/vs3QKycrxBcbQzfC7PqtVcCrD1Jvw1k02oorcUcNM/1sPDurLtzua/XvxYqoR74q2ywENQjYffALQVRZFzebsE/SMsj6kLK/mSVr84yntsIh6IU/KCsJXBSHOrwDE+7Ft/17sFpPwJjsxpYNbsmBnrxMW4dPRuZAETukZVoUo7fBcxhcnN3F+Ut7c1F8TuAkfPiDsPpWYkNZbah184NPU2vgBhNpTZ8sZioBhY1QQRZBldSvuIwYguV8Cjc0rrGqtPn/SHODMKS066w0D44S69y7sRdebqUJHVpKHlRtRxcv5LMQOjfxToiR/UqapndCN15Jy8PPwto7buSxSR0FJ0wHnIe8lYGvdzgBH0PKUOpcQC5Xbbg/tg+EzxI07NoPI3IXNt/VIHyrgooNMJnwnBmL75TL2PkFMj/4GpSg+VYh1naWhg/gG5P5mbYyEYint8GSS1CTp8NRJsplqw2zZ3P3SL4W93YVFqcT8D0cvsglg3y4L6dPJczMOJIchLodhkF1pSOqscTTWB3vwB6QtfKNQmKbdldU2YgLif9Q8A5ckv95AdIgTObF4TRUziUFedOV8MpIFNpTfhPj10tLveVo/25Ciw93EOuwSVwkmMjsoIMjc3B2MKuwxcxq7a7YNjm9gPicKTaFvgUL4D65oBVu82/H6VMAn3B01vutglMM8N1I9iiqwIfR/WCACA5y4lhpafiJvBCNIWxwvCTmqMURm+6NlxuMp7ZB08K3ypJFaJL5LAj/LXvfHInPhfD5xnvhG/q2vYIVD7gu0OxAHxxsGr6uutRKr0WAb4uxtxGSxAL2qzt4Kqx8M8AmgTwqthMMd7eqW5jFJ/UU+IZoUhym4YkAnYnOwR2knF/Fjg3lMmJdsf8+IXfTXpPEZu8SvBjxA2SU1mR8+jhk/gu4/zKD3FNcESOJUbiRwwT6q2CnqpqbjzmU88Iru7B+CLZJcfslj8A5xARPZPaA4E3Uh/8yIVuvTjX4Hx4IcS8If9opm9NKEt+shG/jvx/7wBdRfKWZVvTJB8oNULGafCN47d8PCxU3+vB/rbQShpvAh0JHk6ewdPGJ3PTcAtx8YSJn2RfkOSYUWSa8b80LnaGQuxuraLZjVU5kf1YaZ64p/EZxC3ck2QyRohhIResSbSEt/VVtffwPJcoYWRUR30Ri3GIT+ucwCTeZaVU93doQNIRhuAfGrTO0WKYJBO8sikfQA7iks4lcvhZK6S1wZ8zA7bUW2CQz0A8fbkScxydpzoNi55A2RAn3oPap6BlY6v8GnPcUxcs+d68ObyAgA9ZIZerxsl8TCN5YtE6pDOZ0oq9Wek+TUVVFfLNtscnXDWPsNvw+DQyLzPQaP8dA0Pugnj04WbxQHB5A/74+2fpl6wnBevtD5BVPah+PnSxb3lZgUsSXccAuwM1lbSkGuQ7pa+S8KYQfATf+jXZ3hP1MUwKs1i5cffwB+nfjlBAZlUUEK+13EFlb0b/foH97poJzysSXGxf8L/iOB6/EZgSDTMOpDfGzXS7jHMZmJlhW0i9JZJ7UNsRPOJebfKp4yIsb1p5b0M7NWFHXgoDl1R8h2L0Oyx3/xFLH80Rkj/ZlkL1GUFPiF+tT9pwAX6fSoY9nXPjwv4C15IJYScMkjY9o62wXtYohqmG6cZtA9+MepQ5/OOS9S49RKjUOtXmcMrFIpW+X1LBLl1BdosAlClyiwHRT4P8BFUlrvfkSVFYAAAAASUVORK5CYII=;" vertex="1" parent="1">
          <mxGeometry x="32.941372895100926" y="211.21323529411765" width="39.37" height="36.470588235294116" as="geometry" />
        </mxCell>
        <mxCell id="C5qRO8VCmWmZMDgydjaB-21" style="edgeStyle=orthogonalEdgeStyle;rounded=0;orthogonalLoop=1;jettySize=auto;html=1;" edge="1" parent="1" source="C5qRO8VCmWmZMDgydjaB-19" target="C5qRO8VCmWmZMDgydjaB-14">
          <mxGeometry relative="1" as="geometry" />
        </mxCell>
        <mxCell id="C5qRO8VCmWmZMDgydjaB-19" value="Sagemaker&lt;div&gt;(Fake-News-Detection)&lt;/div&gt;" style="sketch=0;points=[[0,0,0],[0.25,0,0],[0.5,0,0],[0.75,0,0],[1,0,0],[0,1,0],[0.25,1,0],[0.5,1,0],[0.75,1,0],[1,1,0],[0,0.25,0],[0,0.5,0],[0,0.75,0],[1,0.25,0],[1,0.5,0],[1,0.75,0]];outlineConnect=0;fontColor=#232F3E;fillColor=#8C4FFF;strokeColor=#ffffff;dashed=0;verticalLabelPosition=bottom;verticalAlign=top;align=center;html=1;fontSize=12;fontStyle=0;aspect=fixed;shape=mxgraph.aws4.resourceIcon;resIcon=mxgraph.aws4.sagemaker_2;" vertex="1" parent="1">
          <mxGeometry x="44.958437882618625" y="245.17647058823528" width="60.17647058823529" height="60.17647058823529" as="geometry" />
        </mxCell>
        <mxCell id="C5qRO8VCmWmZMDgydjaB-20" style="edgeStyle=orthogonalEdgeStyle;rounded=0;orthogonalLoop=1;jettySize=auto;html=1;entryX=0;entryY=0.5;entryDx=0;entryDy=0;entryPerimeter=0;" edge="1" parent="1" source="C5qRO8VCmWmZMDgydjaB-4" target="C5qRO8VCmWmZMDgydjaB-19">
          <mxGeometry relative="1" as="geometry" />
        </mxCell>
        <mxCell id="C5qRO8VCmWmZMDgydjaB-23" value="" style="shape=image;verticalLabelPosition=bottom;labelBackgroundColor=default;verticalAlign=top;aspect=fixed;imageAspect=0;image=data:image/png,iVBORw0KGgoAAAANSUhEUgAAASwAAACGCAYAAABnjbdJAAAAAXNSR0IArs4c6QAAAERlWElmTU0AKgAAAAgAAYdpAAQAAAABAAAAGgAAAAAAA6ABAAMAAAABAAEAAKACAAQAAAABAAABLKADAAQAAAABAAAAhgAAAAApq9Z1AAAzI0lEQVR4Ae2dB3hcxbXH79wtkmwLW7JlOxhMhxAISajGNo7jboxJCDEkhBBSIOBAaCHJowRTEvICXyjmQWgpwAsQJ0AowT0GA6YTeJRQjI0bxrIlCxeVLfN+Z7W7vvfu3dVqvZJW0sz3zd57z/T/zJw5c6asZRljEDAIGAQMAgYBg4BBwCBgEDAIGAQMAgYBg4BBwCBgEDAIGAQMAgYBg4BBwCBgEDAI9C4EVG8prp41y/543Svlffu2lLdE4uV2XAVSZQ9VlDVGtzRGqnatalSz5kSg65SbeRoEDAKlg0CPZFh61oxw3YaGIbFQcC8V1wcoZe2rtd6TwtZYluoPO6qwlBV2VMN23rfCpTbDq9YqS61QWr8fVfq9cKDio6obH2nA3TAxB2Dm1SDQFQj0GIa1YebYfnag7HPaso9R2hoFQzoYQIdi+2HbW05hTlEsDMxaaSn1krbiS4O29fyAtZWr1Zw5MejGGAQMAp2MQHs7cidnL3dyesaMwMbB2/axbD1dWXoafOmLhBiA7YhyyVRxFTE/rbX1cDgYf7b/DfPqcufQuBoEDALFRKAjOnYx8+cblz7zsFBdqOZwHbBPtbQ+Dk/DsGmdlG+g4hIbmSG+xiTxf7UVe6TmlgXrihu9ic0gYBDwQ6BbMSxRnNdueuELSFMz0TN9lQKhk+pSI9PGN2Cad4dC+gEjcXVpXZjEewEC3YZh1Z4zcVfLDp6l4tb3mZaJRFVKJoLebFlcq+sG1fSdz0pjSyllzuTFINBTECh5hqVnjQ3Wb6yYGFfW5YA+AlvKeW5AQf+/ATt+XdWNc1f2lEZiymEQKBUESrnzW/Xnf21ANN58IdLLOQBWVSqgtZEPWWF8GWAvqx541EI1a1a8Df/G2SBgEMgTgZJlWLU/PnZ/pfRvkKemU5ZgnuUpJW+fkJlrtmxpvGuvPy1pKqWMmbwYBLorAiXJsDaeO/lIy7JvAdQjuiuwyXxvh+HeYjdFfl19x0LZfGqMQcAgsBMIlBzDqj1nylillDCrg3aiXKUUNIJe686AHb6UHfOyEdUYg4BBoEAESophIVlNQLL6PWXZp8DylGqwqLb0n4KB8osN0yrVKjL56g4IlAzD2vTjKUdrpe5mCnVgdwCugDxG2Wh6WzzeeMngW5dsLSC8CWIQ6PUI2KWAwMbzpx2obXVTD2ZWAnOQ8p0VsMsvkp36pYC7yYNBoLsh0OUM69OLpg+yYvH/BrjurmDPp+5DSJEX1ZUN/k4+no0fg4BBwI1AlzIs2RTaEoleTJbkPGBvMZVs1Lqi7rwpo3tLgU05DQLFQqBLGVbdpoqvodf5EYUpGV1asYBtI57h8bh11YaZx8r1N8YYBAwCeSLQZQyr/vwpe8KsLiWf/fPMaw/zpsaqoJ4pB7p7WMFMcQwCHYZAl3QWuccqGrd/opUl91f1VsNGfuvM+vrnR/ZWAEy5DQLtRaBLGNbGIVu4FVSf2t7M9kD/Q+IxdaHcltoDy2aKZBAoOgKdzrDWnTm9j7KVHGbu6rusig5mQREqazJbHaYWFNYEMgj0MgQ6nWGFQrFx6K4m9TKccxW3D1Pjs+VmilyejJtBwCDAOZjOBEH+zUYF9OmkWdmZ6ZZ+WmpELNY0rvTzaXJoEOhaBDqVYdXXbzkS6Wps1xa5JFOvsLQ6dcXpY8tLMncmUwaBEkGgUxlWLK5OpNwDS6TspZUNZY2urCw7pLQyZXJjECgtBDqNYcmd7OwOnVhaxS+p3NRoZfemHf8lBb7JTPdAoNMYllIBuY993+4BS9fkkq0e443yvWuwN6l2DwQ6jWFZyh4PJGXdA5auyqU6SOumg7sqdZOuQaDUEegUhpW4kUFrkbCMyY1A/3hcjcrtxbgaBHovAp3CsCJNkf2AeK/eC3M7Sq6sI8x9We3Ay3jtVQh0CsOK20qmOWZjZD5NS1uf3RiuNqcA8sHK+Ol1CHQKw+KQ7+dBtrddIVNoY9pVKXu3QgObcAaBnoxAhzMs2QzJ0ROzOph/K+KCP9XT/oQj/9IbnwaBHAh0OMMaOLCyH6KVkRhyVILHKagsNdxDM58GAYMACHQ4w2psicoFfd3lb+ZLo1Foa1hpZMTkwiBQWgh0OMNCutqFIpv9V+2od/5IdpC5ibQdgBmvvQaBDmdYlq3kZgZzqLcdTSpuaVZUl3R83bQjT8arQaAUEOjwTmHHY2EKGiiFwnaXPCjFfxiu22JWVbtLhZl8dhoCHc6wOq0kPSghFbfKaoOVZhrdg+rUFKU4CASLE42JpZgIaNtqrhlU01LMOE1cBoGegECHS1haqyhA8d+hxuSLgNY6Zlm18Xz9G38Ggd6CQIczLHZObAXMpt4CqCmnQcAg0HEIdDjDCgbjG8n+to4rQs+LmW0NLFLUdHjd9DzkTIl6OgId3iniLXGmN1akpwNZ1PLFrd3qNjQMKWqcJjKDQA9AoEOWzuW/B8N94nvoaGwIx0y+zrHns8Aq1APw6qwiRNH6Pcb2hsdRZNVacY6P25zIdBhtq4aQiq8asLZytZozRwYFYwwCPR4BVycoRmnrzpsymkvofkZcR2Jll7tsGi16OsTZ040sVIjiPWW90rBIrR/Dxv6io42/HXzrEtEVGmMQ6NEIFHVbw6aZk3aHWd0EYof2aNQ6p3DC5GXDbbZNtyKx7oPs9Qs7ULGS9z9gjTEI9GgEvKP2ThVW2wG5WfSgnYrEBG4vAiFEsS8TyEix7UXO+O92CBSVYXW70veQDKMnDHFY2jCsHlKfphjZESgqwwoE9YcktTJ7csalAxDQHJZ+Rc2aJbouYwwCPRqBojKsqhvnrmSY/y2IrcGa3e0d23QE3+1MBB+ydPT+jk3KxG4QKA0Eiqp0lyJVDzzqT/V1L72odfxIVrA+o+I67zTiytqN6c0xRLM/thSnOLJ94HUU3YvJ3hqt5AhNFxkABqDlqjn6fPUdCxu6KBcmWYNApyJQakxBfXLu1L0R+2aTsamdikR+iT2qYrFzBt46f3V+3o0vg4BBoJgIFHVKWISM6SGzn1xOpm4krlI7zkN+4rMNsypCLZsoDAIFIlBqDCtRDK53WM7LpgLL1FHB6mOWvaKjIjfxGgQMAm0jUJIMi+mg7JCvaDv7neqjb8CKD+zUFE1iBgGDgAuBkmNYetaMsK2sb5LLQa6cdv1HlaUC35Vzkl2fFZMDg0DvRKDLle4bZo7tZwUq9pP7VCyt+3OodyobIk6iOvqWYJU0s4r5EDs2HrLieq0KBLYoO7Sm6sZHNmfL64aZxw7l2Pf+gbjO+UccUSv+SUtwl/d2v2FOo19cetbY4MbaPnsrOzZcWXbWgSaudUswaK0cMGDEKrM3yw9JQ+vOCHQpw9p07tQRbHq8AiZwGCAKg5I/rMh7G0QXAi8Hj7dj5RrjD9jecPOg6hF/9TKIjedM/RqbMy7HjxxZylUu2VO1Db+P63j0sppbFqzjO23W/3RS31CT/VOt1PchiuSZq95kA+l6pdXs6kF9b1Oz5pirltNImpfujkCuTtShZWu4YHJ1NGL9N5fVjenQhDomcjl4LH8QK6YG5rD7hk3L3uH99QSFn9ofH7u/pbRsohVmlY/pg2T5PUsFGzhmc5GT+QWaA6ewp+2/iCTfP6bYByZ6Zf3Gre8R5sl8Ejd+DALdAYGsU4uOzny0RR1AJ/xCR6fTSfEPC1q2SIlpw52hR/Gxb5qQ5wui0/jaDS8OTnnXZx4W4l6syXzny6xSQfvHbDUx9WGeBoGegECXMaxY0BYppcvSL3Ll5ZqitTcpNya77q24EctNyzPG9pwyyDNK480g0KUIFNQRipFjuS2TeFy6mmLE20VxyJ6xt11p2+plvj900fL5UOqpmtq+tSmvooNCEpVpXXuvmd5CuAWpeMzTINATEOgyhiUHpbWlr0RvI7qfRqycyyuWFSW22GKbVLyST3lvxq7BXlfdvOEVnmkz6MYn3kHs+gWEt7Cyaz+XFQV+PXj8NWDHr/NeeRxojvyV84tyMeInbcSTSmMVmbty0MB+8/BvjEGgxyBQzKlMIaAobindTQfUAZa2+xUSgV8YZekQK2p7w1OOZ0FNdEnZbu30C+5HEwnqCZjAM8S9ydL8NzMGbt8c02r5oJrtH6pZS+T/FzNM4hZW296HldCcg4O21Kc6vv0/2a46lv1p9XXb94/H42n9VkZiSQL/Bblm0Ia+y72ML5t/QzcIdBcEupphdShOsgfKDujbSQTGVbCpZ8Vt5qCPK+cYBlAwhiagQaAoCOQc9YuSQhdGMvjWf65HyvozWZCpW2FGWYsHVVc+ZJhVYfCZUAaBYiLQoxmWAKW1vYqH6IgKMkz+VpjNlwVBZwIZBIqOQI9nWGze/AyoFX7+T6lhciym6MibCA0CBoF2I9CjGVbdmRP625b6Fqi0d9NlGkit9Zj6+vIRaYJ5MQgYBLoMgZJVuusZMwIbh2wewh9G76oD7ZOQVCxuK9venQPKJ3Dq7jjQlU2qO2PeJfAfAes1do837UxE3rCBaDzCFtqPB2yvXavueKW9e6280Zlvg0CPRqAkGVbir+7Loxew0+k7oD8UW8iUTKSqQsJlq3DZdyXMKrGlIZunAugSHyuR6u/hQOya/jfMqysgDhPEINArEChmhy4aYOGyyBT2Ol1ChIXrnoqWm3REwtw76lLBSqX1TyKxxI2ms9MpmheDgEHAhUBp6rCUfQS5LCVm5QKtgz4C3PpwNDc1lGaddFChTbQGgfYgUKKdQ5dovtoDbYF+33qrJKfpBZbGBDMIFBWBEmUM6k1K2dsU0JqzhK+bDapFbd8msh6GQEnqsOymlkdj5eFb0OvMAG/544cSZaxFaw2fEtOTWkfvLVqMJiKDQA9EoGSnH3LYd2Pttj2V0rvBrQreR1XqdcYVMDGl7HXbAn2WZ7vPvdTLYPJnEDAIGAQMAgYBg4BBwCBgEDAIGAQMAgYBg4BBwCBgEDAIGAQMAq0I5Kt0V9OnT6+IRqN9m5utXfgXl4QSPBCINYZCoc3cgrn9ySefLPzOKVMbBgGDgEEgDwRyMqzJkyd/BmY0mmuGR8fj1sEwKrmqRa4yTlw5zMahFmgsyauV3Dz1GrsPloRC6lWYlyzTG9OJCCTralo8ruTPaNPGtuWfoIP/oE7Sf2yRduRlFjvrly5dNol63JebKXKek8SPjscD8xcvfnK5Mw7n+/jxU45mZfcwZ1z896St+NORUaNGPU56OdNwxtWb38eNm3wo/+890osj9fnG/Pnzn+6t2Pjuw5LGH4vp72K/DTPaH3DCNNYMs4OmD8FxOueCL2xpsV6aMGHy3dFo86NLlizZmhHIEDoEgWhU1cAXroVZyD9Dy0FtMWxlU41Ixit4X5SgeH5eeeWVcrxfDHmcMCSPc8anUrFzIN6a4ZAk4H4ayZ7ljotLprX6+1tvvfVEtnCG7kYAxjQVyjVeHBEcboNuGFYSLjVx4sRxMKqr+T4S254/bxCWVgnA4+gARweD4YfGjZt6Ra7ROJmmeRQBgVhM1QWD8Xqi8v6VfYhbV7mmx99s376dOguI5CzGZ1hqdUj9Ur97pd69z8MOO4xrfOxdk/zSG9eqOXPmyL8N9XgzderUXWKxmGx4dplAILA1m6Tr8uj+8OLodu1lX+zJTBs1fvykkxgJ74FyNLY9zCodSfJFbjX4tm3H7pswYcKXvI7mu/gIVFTI1Nza4BNzkJmeXNHja+hENThU+Tr6EGFYu83grjIfJ6uyshLdppb4MgxTmzUZxB5KQKI9KRazFjstktFT0Wj8Fz20yJ1WrDTDQrKaSGP8HSkzQhbNjIDv3TxlypQ9ixajicgXgX79+m1Dp+jHsCx0SCkJKiMsjETqe0CGg6Xuh/aGl04au2/durWvly7fZWVllTx84pJzoWqtX5ieSbP705c4pbHDUs7dwVqkX2N2AoEEwxo7dupuSFZXEk8uZtWC+7vY+VTEAzz/zmi6hOdqbA5RX4+ORmM/b50u4NOYDkFAplsoaaUu/MxgUa77OUAbjvUefWIxJS51/LJPmKGNjdYuPnSrpUUJ3U9aa4Zh9ZR/+fYruqF1EgKJRhwMxk4lPfnDUT8jzGgpI+tp0WhgQigUOH7BgvmnjB498qSKivJpsZg9kZHjZ/h53y9wK019q7q6ekx2d+NSHATUqizxDGUBxLV6mPIXj9uik/LqSbawGrgSyeyjlD/Hc0AoFPWdYsIwq/HnJ319yuqlr/TniNe8GgTaRCAo0hWreychLXkbrQSOIXn90bKily1atOgTZ2yM2LKitB0rUte76Kr+hcL1f3g/Gus1/YnnFHQfS3qL4tULQGd8x+N6DdKv/AO1d/V3UN++fUWv2OTMh0hdzzzzHPWfYeq43Yf6lr9IU1LPzrYhUlQWSTwuyn2vtCaR19l2ZLO8GGMQ2BkEbFaWRsKsDsgSyaJw2L7Ey6z8/C5cuPA1RtHzkcRW+rlDO6a+vn5YFjdDLgoCiWlXo09UAyKRSIZuKbmlQaaEXrOe1UORikTv5I0vBH1Pb4DWby0MK+MPP0S3xqpZg38YQzUI5I8AI3H8GAZQv+uItyAV3dCeZdjFi+e9OHHi5HuZIl7ukwX0ZIHPQc82bfEJsoM0duxY8loxlJXH4batRE8iU49tCIHrUPaufOKJJ2QEF2lgpwzplGOG0sGGsR1gALqcPjy3gwXbBvTK5ubmWqZXIsUU3XCaoI9sM4jFwslO39i0ZcuWBhgLSuu2jUy7AgENJpYov52mPxuAMxhWS0tLf+pemIzLIKWtXbZsWeP48VNhWLEtOLraB/jv4QqQ/LBtewh175TGEi7EtwZcW8DNL5iXpqZNmyYMFvw18dmJfFMPnKgIfhwOW2uKtTFZ8N66NbI7KpE9wK6KvU+Cm0ihMOvAx7FY0wryvInvnW5X3kIW81v0w6zQUpcV7KljmSvQEpEBgry7JOpC05T4+/fvP5ixaBjTfvb7tfYJqRPqaDWnXT6hTtBTFt9Iv6+oqEisSm/YsCEOE1BfyJLMm+XlwReyuOUgxx9lKnE2dexdEWFKomUT6lxHYPZ9Tb4Q+uGMwk7FPXdE6dkLFix4WaYtS5c+fxTg/JDOA3O1AE4TV2Law0JAYGtzc8uK8eMnL6Cz3j9y5Mi3CRN3pJHXq2yWZdn5ePCYxvNgnuhjdAX9D4w0SmjdyDL1evaXvcr2j7/FYi0LaRBbc0WenHJdRIc91Fs+BoobRSqV8DCGz7Hh8qTGxuZR7IkaxpEnKR+re+FPBwwYuHzChEkL0B8+tmTJk2uEns20TrsCG3Ef6vHTF32U6JdcpnWzaUY98W/ZOqm7aqGzBmSHvIupUZbdpSFRfhfjZvvEZ8i1Kw35AMM1bdWJdIoBA2oOh2l8g/qUQXRPLIOSlimm8MFmMNoSiVjLaTPz0b39bdGiJ98RN2y7jKhBwPjr4D0tELAOJu4q6qicZyqeKO1tSzBY9hHYL4FpzqmurnzRq86YMGHKWOqRduk2ZPZANyX9NZr47kt/7XhpoH6vbat+d3hvfZNywGynUx+ywr+P1jE5NkfnDmwNBgMrSGspOuaH//Wvue8Rot04MXBUNTVFJsGkvkYahxGF9GnpE2HeozwbqaNNLS2x19ks/ggXUD7BbEwYfE7DhoRTCTfN3SeUzfc9ixbNmyv72NgaMpnvMaQxLBKJkh4NuHrgB3TGjMadSIyCv4HUUp8zZR9HRvIV7LiW1SovwyLJxBJ6OhQ6LbuuruHLpDU9TWx9iTDiPUwjf/WZZ5bNJNx/QfbTm8gubawahJ/D2evyHXQysynw7fmOwvgtA5wZbJa9gE59COkIJl4jI5dYkewOJL8nBALheRyfuAap8lWv59Q3HZopd3gswB+boiWfwmj/yvtrVPQpMOKreN8bm+gxxJ82vEuejmfqfgZ+f8MJgoe8jCLlWaZxffpUbnCGT7pJmWAmboO0OpQGUemmgqi2VgitT58+W+jU63mFgTuN3o1RT6SuT1NUYTjENcQnban3NSl/fs9Jkybthf6NgSt+Mmmzj8sBwI4AUgaRqsmzHglm36ND3soiUN51LUwWJvRVwl5CPDJQJ0Zunl4jEq4MWMLkvwTzOqW+vuH3hL8R7EWSTxgYKMeZEn/Ua6dobTyljsV6zfpwOHYbxJw4OQKxZ3LyZNL/FbQvgHmiHB7shWlODQTiZ4wfP/F/YrHIHeQ95wCbil/22W3evHk8zOrnxDmaOoFhZBihiZUtHJRJH0e/f5bB/NfHHDNyUa4BCswOJdw33TFqi8HqBTB+mV0Fs/HzdYm/tUyt7YF8vCpAZ0wVWiMqbFWHRg7X1TIq+5jMzuHjKUGCeYSXLn3uLOL6DYRds/lz0KVUu2N/FYnEbqDgGQzT4TfxKpwc7n0l4EhjERClU+Rj+gDkCQD8AKMFUllhBgZ0IiFvwu6D9e2lyZhpkPpL2DtglDOl4yXprgdSIlKIb6PHf+Zudxj8XkQgEozTNNHwEh3nscce2058TAszzBCvTkw2jeIX6TfDiHTqF0fCI2cPj6AhPkDxfwwBZpWXoXlYe+JT6nr2+PHjh7QVSjBj6kIa+m78Sl1nY1Z+UUn8lwYCZddJm0l5oN20W5JPhfU+Y7FAvnFp2hwMW6fabK5ySJvaG7CuZeD8rTPv3vRT3zLwwKzOoWz3gfE46H7MKuXd+YTJq7GEuXfp0mfPyNZGnQEy3+3+5PM82sPJuPmmKwzLt/EziuULoCtddC4SzjVVcHjo53jP9Sod9FIKPwtPMqq2xwCcdXooFL4c0MqzBRTJisZ+OSBfiJ988+WNbj8q9pbWqYHXKec34q/+AWW8FtsmY3XEJKPZVUgJJzlo6VcZ1chPgtmkickX0vNOE3Gxh/PjZZQJvWAqPI1nZerd8RygddDFJNAjiqRW7fCTem3kZV3qw/mEWR2C9HIHaRwJ3ZsPp9ds71LXpzKNbrMzwuiPA5tf4r9/tsjaoAdhvKfTZma24a+jnZkqqTtpB3u2IyHp/Geg6jifNiJ9PptRVVWDfkT8V+Mh38HDGxdStjDIslO8Dm1900bPwc+52KxtIVfm24q/EPdco4EzPsmXTIWcoAkjbMBK4xcJrgWbzch8+AeMqN/I5kGmgbidjZVG72dkd/ZGHCQ9SVfS9zNIdfFrW7eH+Dn70mj81gm47OdwlfhFZJe0cinZ6XD652wjGe4Im37NMf36jPNIjbzjd490wB0vdUzrN6Q+8bOSd6/+o5LppGuKmW3TKPVQTwPelIov9WQwQbKPX8P3F1M0z1PShHla65NWGJ+fkbbyLRjJmX6OQhP9JOW4hFc/hiqD6zvU9Rw66l2830PdvMjTLz0Z3H/4la9MOYCnTHU7u/9IsvtgnToywWk7VtqN9AlvXUFKGI5o6ZlPP/3ciBTB+2RqfgzBL4WeoSZI+o3xrMdKn6jDZhNMqohnFioTkWTbY6S/5xxQpAJK3QgoL9E4HuT5MitF9bYdDaMIpeL0sdC+is04aAoNyUydy3RhgXdbhjAXFJQXtPrh123oJOqfkP7GlOkD0tlmJzZExpAG7FNJ82jcvIz3qFAo/n3oV7mjyuuLjqEWEO8/SOeDaNSKsgoHM9DjCS0MVyrRa7jqR50A8SavAzitpeNJww173Gpqa2uFOUujs5qammQq6MP09FoYVoP4SZrVPKVDOCVdiWevpHvi0YqRy0+CTn5qkXbTep9UGBlMYGaTU9+e5/t8/4WwS2VlEAW5zeHu3fieBP1bWK+0KPk5m8WLf6KIf5t3l2GxhKm3QmmcYWT190atI7cOHDhwfVKpnlilbGpqOQmMryaEF/+90QuNg/4u7s9Thp/zLhJBglFA4woe7aeXxYv1KvZ+eXEYCbs1FmtMDxIOt1yv9AtJX89BNfEWq5pM33U1+RnJ82QC7uMTeAiLDKcxWL3gXUBgAOkHTj+FWXuxlWhkAP0X8d6PEv9tMGtA2S9M7bPomsEpUY/e9rYXi2A/YYp5Rr6r3JJQ0oClDHL6fcqzHkyTjDH+YakzLPQp6tZ4PPrbhQvdG1cp2L8B+R+Ing9RsOv4do46iXJTWBSmQekU9yQIyR86wPG8fsFJS76zlUPP2r59y22yrO9xXwbze4Tpx6+hn461He5cn6K/idTzJ1b+Vjnobb1+Srgr+/Qp+73oi5yeEd0ffvbZZ+fSOG6DvqvTjXckSHUsy/J3esPhtg4refc0IFXj3Dy6bds2lvGDPo1TrUU5C9NuNcIwUO6K5OdkWCjmvVsb/DeN4m89RsKnjaw+NTdHTofgyWPCyzI6xkxWiP+dDtD68iaYzE9icgskp3QqPtDVxE7iOUs+nAaMa+lUz0I7GItk1zrlIG9/icWar6a8TQ7/OrnYdAerkbK14nKHm7zSJK2jyMvt2Df5FusyKLmlw013EVs/3ly4cP71PvT2kiLk4bZg0L7GZ9vRE0y1aaf6dvrFl7wR0yfGJfdDutop+rnRhPmK1z/fpKVmh8PBa3wW4V6mDz4SCpX9DJwuxq9LBQO+0/r3HyR5EIk1X9NI2e6BEd7NHtB32crQiH40MRjU1NR0iUibb8bF3x/Ky8OXeyWkVAQ0tOjChfOeAOhzoUlH9RoZeacAapoxy94bAJHGFPB6hv7HzZvrZvswq4RXyUcgoC7j4wVvWL73JcrRPvRcpDtYvbnZh+lYdIY4nfZRAt+KTVSYMyIa3v7btkWRxNyGxrUJNxHbPUb3dyrKk7c0SOd1GRrZRxAc6cnWhsQU3OWPj+GioE0RwU7yksGAbNtaxwibHCFbfbP/S6YKfgPGetL/uQ+zSgRMYjIfZnANBCeTaY0YiZu6HpT8SD8WLZr/IKuJxyExHwfxKuzz2BXgdKeHWaXD8KKROB7n6ZQ2E+50zj0Il1HWVGD2o4nU1IFGPRkOh2b5MKtEmosWzX2Jl19hXYNgMkPMLuwDku+pB81GS5/olyKknmA0NxJpvtqHWSW8gMNW+uhvqJPHUmF2PPUgJLopO77bfJOTNTdEIi3nSxlkpV+kM+nnYkUqdEoJbcbWyR7eB8Qb/TqzNx808EW0r3u99NZv/Xk6Z3rKyFRoGPSDfPzWShxtia/z5s37mEp8wCc8nVeP8qFnI61AvL5LKiKbB6HTuKQhZEwXYBBVgUDmmT6mWpvBjbJkGI5H6f4pKvuYRLpKf6fo6JVcI69slcAtYzAg/d0HDx5csSOce69Wig5Wq3l3MEApkxoBLaNzQJuPxLMsFTbbU/b7EMv/Zbqr/W27bO9MOv9SS+NfvHj+c0g4s8rKQsfCSI8vK7Nf9/O7g2YLs5byuwy9uw/bOrIyLJfn4n9sBdPbsjGQVHJsf3mK9/+kvh1PWc3d3fFtyUZd8DzCSUu+s8Kr/kwb3ezjliZJH2Xx5D4I3lkJda2PxjjbSTqcz8s7Mj0nPZ/BqNV3WvLwCdylJBr1UzSuD/LNBB1bJK2z8O/thEPQq2OtTyQuRM09qbBqefcYWWE7mWnAsYCclZFTgfhLbIAVXZBXSttfJLh8mCwjEvqHpuWePPh8RtaSjORdyuA0ckSmj5Mg7zL9qqqqzmBwOInfNOMGiT3IQ1pCkrAYxPHWLQ2tn5Yl0ib7ndakvlNPOk0NOAiO0qGBRfZHpVzTT9kATP53GFH2s6fpwB0U19uuTC8uIb2s+ItvEpNVVj+G1w/90v54edEVq+ejFaMqmY4fzhYBwWQXj5fEJ3pOYeoZGFPOcGNjY1cxrPfQdYsEldMgadaxJ3EFng71eBTsXJJ1U1OcRQnlYmLJMOiu9Dj6xEGEyVonyT4hWMnCkdfsA3OXduJqB15Pye9Xx4wZ8/HixYuzOGfZ0pDVdyc60AFk9MvsAlnyEAxaH8hOdJy9DKvCyaBQUHLcQ/lxfGEIP6VisqTQSk66Z/M0lG0d0sD9RHFXvOTpP21JVxKAIxYxdBXNdFNX+GwfIiFOnDhpjU8xhDmlp5CkvxffnkgVd2opkYhchgb5kQ8uA1pa9GA8rmRqyApUYqHAFY4P8u2+8kaU/eSNDuL1mvieQDoTfF0cRJ+8pFwDrflIfbqfMl1EAmVqqESH+UXyIdPHMqx34HEGzNpRnZ46710t5+aTnBKP5EWmz2wuZYU2s6lSny4mzCJWFbhV+pRB/J0N3v61lQyQoz7EB7vvwzIo5MGw9MeS72S0vo/OlrBEKsnHyKrEx/l4TPnhjB//4BNu8OmoNsrYdINMVszONsJsFdiH/UjCGNoyrCTFExJfWx4LcQeDDKZDPNR16+ZROq68D88cD3Q9IrlMg1yG+FZCkJbvLHc/OkNiMSDHTaPb6ByucrKdRLZ0+A0YrjQL/aB+XdJDKp5x4yaNZLD6Fe6jSD+fOkoFLbFnfJN3hS9bBpkMoG5wVlk2n4kFFb8+kVfgrLG2OpTD0Mrb8JN0VtLvcxrJpIyCGYaKLahSabwSZxZxWcv0IS9DIfNlbqn4ooRpU7Kh8xWjElJpFvqMM6tpLDRwW+GS07CMkQp8RGwXIw3Ibwqw3rOlIeGZhi+joxfbEAxgD/EAk5bR2Y9RbGxpCbikAaZSGfmSOIplyGt6cErFyX6gI9FZ3UXnHQutoHadiqvrnz4i005mCn2mH7PayVg7JrhIWPXYVENOp0KjF5p07kyZMu0r80VuG2DpPyM+8ck0OF+GxUKLr44iM8EkhSX7UHNzlOlgW9kVRujLs1qIakvWBNp2kErfjATRoR2y7WwkfIiE1YR1if58yxSOwlfAXGJenRhO1iqmqektDUIQk9zaINj0TRDSP2pveZVNo+y5qUqTd7zUoRZzMaykkx9GUnFbyR4DaO4pyI7oM96Q3mwXY0WaHEBbuhqfB2b4biVIurLw4ddwpKFIH/FtMNB7hLHteAQBxa8sgov0WT9s/Px7aRKp1L/EUxQjlSGjp09lqi9xfGVQtqXTbKmzIncAy8d+ozdB3CtQ2eKALrqIPXK4ZzgxcFfTMDOWtPEoYqZ03oRhLKlDyhKad6R9GybNGaq2pbRkVK4HG/eY/dhNmzdvopN2rZFpGGUUxuNlWEPpwIFgMFIDxDCYjHa4gjAZRFgS08TMWyCkntE52OyeFh2Fh5kJBmodP2nshYKRxtuQeHP/SOP+HfX+kHMK7/aS+0vqIBRyqxLYpzeKIo32CQnTVOhJ9d95/gfJLGM6QvnQtdnX4MevXflE2W1JUh8yYHun6hvA5kyRsOkXvhwtV4lb+4SKIkt8kMtfe9yEYf0bOyEzkD4QaWEy9Psy3fwpsgK0eXPDibh6Fd8SYAuS17v+If2orcuh2fZEeUMwShwGzU9qkBEC4FsNIK6hAmQU9uaRc3pqHVskpNPmNNJJ2d5Qlm/eckbWAY4yDWMnsjBOGJPLDJJbFlpa4pz30ru4XPiA9pGXJt+ytaFv30phPgc73fG/GxJZH87pieQmymuXQVe02ruwwHcTiwKrYagZBvwrFy6c+0aGgw9B9oDJhkJv/Jle9QhoXsZNWa2X2VZySq6/oeOoysHsWvfJaWYq3ZmCkLGRicFGyuDtE/0QArbMn5+xide3uLJ9gT4hA1SHYcY0Ri0hAb+pGsoy6yfjxk3dxzd3PsT6+k+nwIhP8XESEitNkXeyuPmQ1Uj+CeYYH4cMElKDLHF/G+unO1vFnSKfpALJJXy8S+fzmuGsMk73Ev2+uZ/r4L59d3mAHc0/Iu0SHH0T0zBpgF6TvHlUtjRkSJjb0WWs8QaQb2HM1Osqrxu0GrCtpn3KQJGBPfowkd4zDO0KySazUTOKT4VJ7JURIJPAId2B5wWD4btFmU4dyMDrZ+CB/tI+eXgsF7OSyMjP4Tyq/CLuSbSGhgbpH+/7lGkXcDpRBBEfNxdJzmvSJ+5mSwrbUvzPuboCFPhhh0L2izCtLKOaOoJDrrfKSJMrfmkwXJUyjSq+AZutA2ec6csVJ26y1PrL1EHTbH5lpKXhnkO6U/z80GJfkE2DKTdGAamcZalvx5M5nXUeZR3joGW8yrESJIvLSO944p7NlONh9vKcms/VHRmRdRCBIwyNRC1bPLymP8pBJCv/WxrQQ/kyLImEMq/0RgZe1FFQTud7JTnxGrGz/IsPusxncU8PIo54P8uZwUvawnI8d0ER5iLsaaTxSDAYmk0dfNHbsZCEOTKVVf+UjcklsiMdkLDf5SOnv4Tnbv6TnCk85VcMMPgOd9Z9A7esU0K5+YT75C6kT5yMv6toX49xL9ZPOMomA1lRjS06Km6SuY9YRbfgZyYxl3+IzWO/lNUWqUgYVD9pVMJJydhEaTAE/BN2P78IoLH6pB7I4paLPIpzf/eSxte8jViYpDCz6uqB1xPBpdiMER5aHR3tH84EZJ8HjHAOtC1OevJ9b8p6F8z3NGFMTneZBoq02dwcIT19QtItxPto4rszEonfO27cuGHOMF31nlz2zpCIyE9F8hCxSFhesxHGg67K34CjTBe9ynJuMtXDwcCvYTaR1lq/2DZvrn0HZrfEx40s6O9ygdvttLVDZTBy+pEpB4yJgUL/DvrQpBvMUsmVKE+yIfVMp3+pa9LxU/qLtxPkplen/9Q7g5ZcKEgaKufglfKf/1MPlz4jm4ulD6Wst5z5x1c8nwwi/yQ2WazxGgZo6yb6/4XS93F0Mi4uEhzP3WgxBnBrJpYZW8IeQpjrUQE9LFcIQSuaSY4e8b+hVP06sU7KEjP3PukrbNs6XzZnwqC2kknExMQfRtJwZCNaVqWcMIg/jBlz9Mvczpkl+lxkdQSFv5f0XkP38Rocn8O4ifT2Y8oxgm/pfE4QnZE9vmnTpgxpqk+f8NONjS1zyfMMp+fkO0xX/x7GdBbpvZRML/zss8/tTflH4kemyFIxTlNOJ2JK5brlwOne6e/UF7q6DFjC6CSmUqbPZ2ZIfxIOlzVk0lsp3Me/Bn4lur9+Dj8sjlhTUEx/Fswc5MQrB8kTR1u8dEs2t3KH2O3ENx5Hr3QWIs6TyecYpn3LmGK8g59t2IFYrjNO/CuTV9ciBaUN+l06qV+DzspwxubQz6PcvxcGeA9le513Vsrk/nh9BIPWifgXZuatZ0j5mGz7n9Qo8jK3qamZ65dDycpRATaC3kasd+UTc0f5OeaYEW8+88yzfyF/PyMNb8Nhs7W+lr5/Gn1iGXUgjE2aF+cSE/VxIN+uwSX5HUcFU8t70UyCYXGodxMj2uU0kr2ImQ7ra6TyROrAesvj6z9JVI9z6vpGGe1y+WrDTTrJMYCT0GkBXsJ7Zn90xSJnEW/wOxsoR2fg/NfgfjAhBGyvqYBwdLIyRJfhdfd+v4EyX079b/U6dNU3TAQGoyOk72xIwmBSI6Ena2otuDR6iOlPGivXvCTu63IyLJGIvocnvwaxsbxc1aUj8LyMHj3iaY6O3AT5Cqwzj+JT4tsVK4wjH8MePHXL5s0bH/V6JoNPUeYPoB/gcZM0uGtffRHG2cKTStYMwom8pMoj+EmHE6bqzSMkf8Ns4iPapqy6hT0+JI4DW5tTKgnxYUtZu9RI/xw3btxs2w4cBfxjfTIjeT+EvKclptZy+PhsJa2jbVwxb978j7P6KMAhPYIg/bxIAmcTh4xoxTCcvLYeQ5F7YXu3RpC4MDeWmxNXghSQF7WRtC9nxU9WQH0Np8HfoGIuxt9KXw95EiU89qd+9zDlGUWHeJOlaCJu8kQuvUQGqXS9O9xX8J6VMyeZzwaH/9SrdPKM+MBkI5tE/abdiXDSQaLRFhiWXIOS2GaSiq+9T2krD/KHKdf7DU7z589fQV5uxU82Zix5L8fKICUMxslJUn2iXVJCMKheIJ43sd3KcIaPu9Dsi4AAqXSnjKhiLqX/LdqpWHwCuxqaJIBY/E38CbPIVsE+0XhJclOnvj4cDvygrZUYb8jUNwV+HL51Lt/tqnhhIIQ5j4vwRU+V07ReTWN/j7y+hMf2SoB0bvUaUukPub5kQc6EusCRf2GhDnz1dH65EUYlDCurSTIfP0W+bximz6vR0YiUkdWIRBoKBS9FCvoNnrJKY1kjSEwVtfwRxQW5bi/gfrM7ieO32PZIwDApxTQo+BbhZEqZt5EbPWi/UqZ2Mbr8EsiqeskveBu+EFxeRdo8HW+i08qm184VC39Co88bMGDAvbk8FermYlgSiUgejHyn0/HpyIlMb+KZT2eWwq1GFP4znfjEaDRyWQGSFVG0GkCz5W+wEK+/S8MRUT9XY5MOR4NX95P2DBjRX/KdgrLvZwkM6xuEvxr7LlamAbmMYEE51Q2MRjNyjSJy4Rh+hfGLFWkjZaUs7WkMosMR/ZEzPDehZr93XyQi6oJpoStcKrzzKXlB4e6/Bwu3hJH9U7zI1MpbFmdcqXf8qA/zqQNZweW+pauo728n61kYl+CWy0heRJfyA9rZxW21M1kFq6/f9Cvi/4GEw0oZshmpFzqtdaYMaElPDTzFSt4+xTaydylnHkeNGsWgr6QPzcUK40ph431y4Fz7MXahebEWXHPlnSA7DG3ULw5pS807fGW+CQ/gZNxpYHARrq9iBe9cBiwUbcj6M+3o6/SJ+3Kfd0yU11s2rqhp+yxhQoflzUlSF/MgqxmPbd8eOYhMHIUVhece+BWFZxltilFHNUGTjC7H/XVG9Zc+/bT2Qz/R3JtGvt/C8Rmpv80p+6NIayLh0DupaixivJb013Nf2r9hbAv448vXkh0r3+gT/pK3hF7JCs4f0M3KzYuS1r44ViXTaeYbQEV6Uyj+7cVVVf3ezV0pliXurET9kpXOm1kxSzdwNrmijAy8l2cmt5LuBZSv0umfRh6LxyNvO2nOdySiejBj9cx2hXP62fGu2CPc9H87vv3fkJqupxwP+Lu6qdGovcJNyf5FnQmTmEt7e3rbtpaDYcRj+Ea3pIfx7AvmTDsV1xnLzaH6PfB4jssInyOcSJF5mWSb/CttaTFbUaR+5SrhA3iyCpb4nz3B+SPSfJ4LMhbI9EgibmjYsGqXXWq+wRXYIflmYSXxlD8qle9sJsmsnyC9p8Lh8J7knT+zBUEfg8KfdL0m/iCLAc97qdTnOi8t2zf/xHMzqoG/ed3903P7Er02lJtZBXyQrTAJvJj5Hwg+A6HLDSjJs7uJleB/M+A8xRapNxg8cjJDSYX+ejvtKDUYCClp/HBIubU+lfsz55di+TUol7bRGcKc3Ytxza5II03JBpczsJ+j7Jthj8fDFH66x12kmDO4DwsG4jayBJzKA7u2W8jL9kLTd8fs/kqlA7WMNFLllMpIMx53CPNVTATo8DZMphwGUUY7g2ElRvmC25pf3qT9Je+5D3ItUDPpCeM09esHFjSYrwg4CApWufR/GFkz/aQpH0k6S5TtJreHYbU78rYCFMKw2orTuBsEDAI9FwFfEbXnFteUzCBgEOjOCBiG1Z1rz+TdINDLEDAMq5dVuCmuQaA7I2AYVneuPZN3g0AvQ8AwrF5W4aa4BoHujIBhWN259kzeDQK9DIEuZVgHHXQQe14S/6qyGtw/dFjZiCo7go0xCBgEDAJpBP4fiXfSP5tXAcYAAAAASUVORK5CYII=;" vertex="1" parent="1">
          <mxGeometry x="-295.29408958641415" y="449.4117647058823" width="100.29411764705883" height="44.795" as="geometry" />
        </mxCell>
        <mxCell id="C5qRO8VCmWmZMDgydjaB-25" value="News" style="text;html=1;align=center;verticalAlign=middle;whiteSpace=wrap;rounded=0;" vertex="1" parent="1">
          <mxGeometry x="-185.88226875924246" y="175.88235294117646" width="54.70591041358584" height="27.352941176470587" as="geometry" />
        </mxCell>
        <mxCell id="C5qRO8VCmWmZMDgydjaB-26" value="News" style="text;html=1;align=center;verticalAlign=middle;whiteSpace=wrap;rounded=0;" vertex="1" parent="1">
          <mxGeometry x="-185.88226875924246" y="294.4117647058823" width="54.70591041358584" height="27.352941176470587" as="geometry" />
        </mxCell>
        <mxCell id="C5qRO8VCmWmZMDgydjaB-27" value="Weather" style="text;html=1;align=center;verticalAlign=middle;whiteSpace=wrap;rounded=0;" vertex="1" parent="1">
          <mxGeometry x="-185.88226875924246" y="449.4117647058823" width="54.70591041358584" height="27.352941176470587" as="geometry" />
        </mxCell>
        <mxCell id="C5qRO8VCmWmZMDgydjaB-34" style="edgeStyle=orthogonalEdgeStyle;rounded=0;orthogonalLoop=1;jettySize=auto;html=1;exitX=1;exitY=0.5;exitDx=0;exitDy=0;exitPerimeter=0;entryX=0;entryY=0.5;entryDx=0;entryDy=0;entryPerimeter=0;" edge="1" parent="1" source="C5qRO8VCmWmZMDgydjaB-28" target="C5qRO8VCmWmZMDgydjaB-3">
          <mxGeometry relative="1" as="geometry">
            <mxPoint x="647.0152172876019" y="413.97176470588244" as="targetPoint" />
            <Array as="points">
              <mxPoint x="381" y="435" />
              <mxPoint x="647" y="435" />
            </Array>
          </mxGeometry>
        </mxCell>
        <mxCell id="C5qRO8VCmWmZMDgydjaB-28" value="Aurora&lt;div&gt;&lt;span style=&quot;color: rgb(0, 29, 53); font-family: Arial, sans-serif; letter-spacing: 0.8px; text-align: start; text-wrap-mode: wrap; background-color: rgb(255, 255, 255);&quot;&gt;&lt;font style=&quot;font-size: 12px;&quot;&gt;PostgreSQL&lt;/font&gt;&lt;/span&gt;&lt;/div&gt;" style="sketch=0;points=[[0,0,0],[0.25,0,0],[0.5,0,0],[0.75,0,0],[1,0,0],[0,1,0],[0.25,1,0],[0.5,1,0],[0.75,1,0],[1,1,0],[0,0.25,0],[0,0.5,0],[0,0.75,0],[1,0.25,0],[1,0.5,0],[1,0.75,0]];outlineConnect=0;fontColor=#232F3E;fillColor=#C925D1;strokeColor=#ffffff;dashed=0;verticalLabelPosition=bottom;verticalAlign=top;align=center;html=1;fontSize=12;fontStyle=0;aspect=fixed;shape=mxgraph.aws4.resourceIcon;resIcon=mxgraph.aws4.aurora;" vertex="1" parent="1">
          <mxGeometry x="317.41210704574723" y="399.9964705882353" width="63.8235294117647" height="63.8235294117647" as="geometry" />
        </mxCell>
        <mxCell id="C5qRO8VCmWmZMDgydjaB-29" style="edgeStyle=orthogonalEdgeStyle;rounded=0;orthogonalLoop=1;jettySize=auto;html=1;exitX=1;exitY=0.5;exitDx=0;exitDy=0;exitPerimeter=0;entryX=0;entryY=0.5;entryDx=0;entryDy=0;entryPerimeter=0;" edge="1" parent="1" source="C5qRO8VCmWmZMDgydjaB-19" target="C5qRO8VCmWmZMDgydjaB-28">
          <mxGeometry relative="1" as="geometry">
            <Array as="points">
              <mxPoint x="142" y="275" />
              <mxPoint x="142" y="432" />
            </Array>
          </mxGeometry>
        </mxCell>
        <mxCell id="C5qRO8VCmWmZMDgydjaB-31" value="データ取得" style="text;html=1;align=center;verticalAlign=middle;whiteSpace=wrap;rounded=0;" vertex="1" parent="1">
          <mxGeometry x="-309.9970447932071" y="122.64882352941177" width="72.94121388478112" height="27.352941176470587" as="geometry" />
        </mxCell>
        <mxCell id="C5qRO8VCmWmZMDgydjaB-33" value="アプリケーション" style="text;html=1;align=center;verticalAlign=middle;whiteSpace=wrap;rounded=0;" vertex="1" parent="1">
          <mxGeometry x="534.4122183529711" y="127.99941176470585" width="100.29416909157405" height="27.352941176470587" as="geometry" />
        </mxCell>
        <mxCell id="C5qRO8VCmWmZMDgydjaB-37" value="感情分析(reporting)" style="text;html=1;align=center;verticalAlign=middle;whiteSpace=wrap;rounded=0;" vertex="1" parent="1">
          <mxGeometry x="-122.05870661005898" y="640.8823529411765" width="72.94121388478112" height="27.352941176470587" as="geometry" />
        </mxCell>
        <mxCell id="C5qRO8VCmWmZMDgydjaB-46" style="edgeStyle=orthogonalEdgeStyle;rounded=0;orthogonalLoop=1;jettySize=auto;html=1;" edge="1" parent="1" source="C5qRO8VCmWmZMDgydjaB-38" target="C5qRO8VCmWmZMDgydjaB-42">
          <mxGeometry relative="1" as="geometry" />
        </mxCell>
        <mxCell id="C5qRO8VCmWmZMDgydjaB-38" value="comprehnend&lt;div&gt;(感情分析)&lt;/div&gt;" style="sketch=0;points=[[0,0,0],[0.25,0,0],[0.5,0,0],[0.75,0,0],[1,0,0],[0,1,0],[0.25,1,0],[0.5,1,0],[0.75,1,0],[1,1,0],[0,0.25,0],[0,0.5,0],[0,0.75,0],[1,0.25,0],[1,0.5,0],[1,0.75,0]];outlineConnect=0;fontColor=#232F3E;fillColor=#01A88D;strokeColor=#ffffff;dashed=0;verticalLabelPosition=bottom;verticalAlign=top;align=center;html=1;fontSize=12;fontStyle=0;aspect=fixed;shape=mxgraph.aws4.resourceIcon;resIcon=mxgraph.aws4.comprehend;" vertex="1" parent="1">
          <mxGeometry x="133.23554198667495" y="759.4117647058823" width="63.8235294117647" height="63.8235294117647" as="geometry" />
        </mxCell>
        <mxCell id="C5qRO8VCmWmZMDgydjaB-41" style="edgeStyle=orthogonalEdgeStyle;rounded=0;orthogonalLoop=1;jettySize=auto;html=1;" edge="1" parent="1" source="C5qRO8VCmWmZMDgydjaB-39" target="C5qRO8VCmWmZMDgydjaB-38">
          <mxGeometry relative="1" as="geometry" />
        </mxCell>
        <mxCell id="C5qRO8VCmWmZMDgydjaB-39" value="AgentCore&#xa;Runtime" style="shape=image;verticalLabelPosition=bottom;labelBackgroundColor=default;verticalAlign=top;aspect=fixed;imageAspect=0;editableCssRules=.*;image=data:image/svg+xml,PHN2ZyB4bWxuczp4bGluaz0iaHR0cDovL3d3dy53My5vcmcvMTk5OS94bGluayIgeG1sbnM9Imh0dHA6Ly93d3cudzMub3JnLzIwMDAvc3ZnIiB2aWV3Qm94PSItMyAtMi44MTk5OTk5OTI4NDc0NDI2IDIwNiAyMDYiIHZlcnNpb249IjEuMSIgaWQ9IkxheWVyXzEiIHdpZHRoPSIyMDYiIGhlaWdodD0iMjA2Ij4mI3hhOyAgJiN4YTsgIDxkZWZzPiYjeGE7ICAgICYjeGE7ICAgIDxsaW5lYXJHcmFkaWVudCBncmFkaWVudFVuaXRzPSJ1c2VyU3BhY2VPblVzZSIgZ3JhZGllbnRUcmFuc2Zvcm09InRyYW5zbGF0ZSg1NjQgMjYyOC42NykiIHkyPSItMjUwMi4xMSIgeDI9Ii01OTguMDYiIHkxPSItMjU1NC4yOSIgeDE9Ii0zMzIuOTEiIGlkPSJsaW5lYXItZ3JhZGllbnQiPiYjeGE7ICAgICAgPHN0b3Agc3RvcC1jb2xvcj0iIzc2MzhmYSIgb2Zmc2V0PSIuMzgiLz4mI3hhOyAgICAgIDxzdG9wIHN0b3Atb3BhY2l0eT0iLjY4IiBzdG9wLWNvbG9yPSIjMzQxNDc4IiBvZmZzZXQ9IjEiLz4mI3hhOyAgICA8L2xpbmVhckdyYWRpZW50PiYjeGE7ICAgIDxsaW5lYXJHcmFkaWVudCBncmFkaWVudFVuaXRzPSJ1c2VyU3BhY2VPblVzZSIgZ3JhZGllbnRUcmFuc2Zvcm09InRyYW5zbGF0ZSg1NjQgMjYyOC42NykiIHkyPSItMjUwMi4xMSIgeDI9Ii01OTguMDYiIHkxPSItMjU1NC4yOSIgeDE9Ii0zMzIuOTEiIGlkPSJsaW5lYXItZ3JhZGllbnQxIj4mI3hhOyAgICAgIDxzdG9wIHN0b3AtY29sb3I9IiM3NjM4ZmEiIG9mZnNldD0iLjM4Ii8+JiN4YTsgICAgICA8c3RvcCBzdG9wLW9wYWNpdHk9Ii42OCIgc3RvcC1jb2xvcj0iIzM0MTQ3OCIgb2Zmc2V0PSIxIi8+JiN4YTsgICAgPC9saW5lYXJHcmFkaWVudD4mI3hhOyAgICA8Y2xpcFBhdGggaWQ9ImNsaXBwYXRoIj4mI3hhOyAgICAgIDxyZWN0IGhlaWdodD0iMTIyLjg1IiB3aWR0aD0iOTMuMDUiIHk9IjM3LjU2IiB4PSIxMDIuNzciIGZpbGw9Im5vbmUiLz4mI3hhOyAgICA8L2NsaXBQYXRoPiYjeGE7ICA8L2RlZnM+JiN4YTsgIDxyZWN0IGhlaWdodD0iMjAwIiB3aWR0aD0iMjAwIiB5PSIuMTgiIGZpbGw9InVybCgjbGluZWFyLWdyYWRpZW50KSIvPiYjeGE7ICA8cmVjdCBoZWlnaHQ9IjIwMCIgd2lkdGg9IjIwMCIgeT0iLjE4IiBmaWxsPSJ1cmwoI2xpbmVhci1ncmFkaWVudDEpIi8+JiN4YTsgIDxwb2x5Z29uIHBvaW50cz0iMTAyLjc3IDM3LjU2IDEwMi43NyAxNjMuMDIgNzguNzYgMTcxLjE0IDQ2LjU2IDE1Mi4xOCA0Ni41NiAxMjYuODQgMjcuOSAxMTUuODYgMjcuOSA4NC43MiA0Ni4zMyA3My44MSA0Ni4zMyA0OC40IDc4Ljg0IDI5LjcyIDEwMi43NyAzNy41NiIgc3Ryb2tlLXdpZHRoPSI2cHgiIHN0cm9rZS1saW5lam9pbj0icm91bmQiIHN0cm9rZT0iI2ZmZiIgZmlsbD0ibm9uZSIvPiYjeGE7ICA8bGluZSB5Mj0iMzguNzMiIHgyPSI2NS4zMyIgeTE9IjYzLjcxIiB4MT0iNjUuMzMiIHN0cm9rZS13aWR0aD0iNnB4IiBzdHJva2UtbGluZWpvaW49InJvdW5kIiBzdHJva2U9IiNmZmYiIGZpbGw9Im5vbmUiLz4mI3hhOyAgPGxpbmUgeTI9IjExNS43OSIgeDI9IjEwMy4zMiIgeTE9IjEzOS42OSIgeDE9IjYyLjc0IiBzdHJva2Utd2lkdGg9IjZweCIgc3Ryb2tlLWxpbmVqb2luPSJyb3VuZCIgc3Ryb2tlPSIjZmZmIiBmaWxsPSJub25lIi8+JiN4YTsgIDxsaW5lIHkyPSIxNjIuOSIgeDI9IjY1LjcxIiB5MT0iMTQ5Ljc4IiB4MT0iODYuNTMiIHN0cm9rZS13aWR0aD0iNnB4IiBzdHJva2UtbGluZWpvaW49InJvdW5kIiBzdHJva2U9IiNmZmYiIGZpbGw9Im5vbmUiLz4mI3hhOyAgPGxpbmUgeTI9IjEyNi43MyIgeDI9IjQ1LjkzIiB5MT0iMTE1Ljc5IiB4MT0iNjMuMjgiIHN0cm9rZS13aWR0aD0iNnB4IiBzdHJva2UtbGluZWpvaW49InJvdW5kIiBzdHJva2U9IiNmZmYiIGZpbGw9Im5vbmUiLz4mI3hhOyAgPHBvbHlsaW5lIHBvaW50cz0iODEuMDYgNTUuODYgODEuMDYgNzMuODEgNjUuMzMgODQuODggNDYuMzMgNzMuODEiIHN0cm9rZS13aWR0aD0iNnB4IiBzdHJva2UtbGluZWpvaW49InJvdW5kIiBzdHJva2U9IiNmZmYiIGZpbGw9Im5vbmUiLz4mI3hhOyAgPHBvbHlsaW5lIHBvaW50cz0iNTEuOTQgMTA1LjQ5IDY1LjMzIDk3LjQ1IDY1LjMzIDg1LjU4IiBzdHJva2Utd2lkdGg9IjZweCIgc3Ryb2tlLWxpbmVqb2luPSJyb3VuZCIgc3Ryb2tlPSIjZmZmIiBmaWxsPSJub25lIi8+JiN4YTsgIDxsaW5lIHkyPSI5Ny40NSIgeDI9IjY1LjMzIiB5MT0iMTA1LjQ5IiB4MT0iNzguNzIiIHN0cm9rZS13aWR0aD0iNnB4IiBzdHJva2UtbGluZWpvaW49InJvdW5kIiBzdHJva2U9IiNmZmYiIGZpbGw9Im5vbmUiLz4mI3hhOyAgPGcgY2xpcC1wYXRoPSJ1cmwoI2NsaXBwYXRoKSI+JiN4YTsgICAgPGc+JiN4YTsgICAgICA8cGF0aCBkPSJNMTM5LjkzLDg4LjU3bDI1LjA1LDEwLjA0YzEuNDkuNiwxLjQ4LDIuNzEtLjAyLDMuMjlsLTI0LjUxLDkuNDctMTAuMiwyNS4yOWMtLjYxLDEuNS0yLjc0LDEuNDctMy4zLS4wNWwtOS4yMi0yNC45My0yNS41Mi05Ljc2Yy0xLjUxLS41OC0xLjUyLTIuNzIsMC0zLjNsMjQuODQtOS42Myw5Ljg2LTI1LjE0Yy41OS0xLjUsMi43LTEuNSwzLjI5LDBsOS43NSwyNC43M2gtLjAyWiIgc3Ryb2tlLXdpZHRoPSI2cHgiIHN0cm9rZS1saW5lam9pbj0icm91bmQiIHN0cm9rZT0iI2ZmZiIgZmlsbD0ibm9uZSIvPiYjeGE7ICAgICAgPHBhdGggZD0iTTE2NS4yNSw2Ni45Mmw5LjUsMy44MWMuNDEuMTYuNC43NCwwLC45bC05LjMsMy41OS0zLjg3LDkuNTljLS4xNy40MS0uNzUuNC0uOS0uMDFsLTMuNS05LjQ2LTkuNjgtMy43Yy0uNDEtLjE2LS40MS0uNzQsMC0uOWw5LjQzLTMuNjYsMy43NC05LjUzYy4xNi0uNDEuNzQtLjQxLjksMGwzLjcsOS4zOGgtLjAyWiIgZmlsbD0iI2ZmZiIvPiYjeGE7ICAgIDwvZz4mI3hhOyAgPC9nPiYjeGE7PC9zdmc+;" vertex="1" parent="1">
          <mxGeometry x="-49.117492725277884" y="759.4117647058823" width="63.8235294117647" height="63.8235294117647" as="geometry" />
        </mxCell>
        <mxCell id="C5qRO8VCmWmZMDgydjaB-42" value="Cluade&#xa;要約・スコアリング" style="shape=image;verticalLabelPosition=bottom;labelBackgroundColor=default;verticalAlign=top;aspect=fixed;imageAspect=0;image=data:image/png,iVBORw0KGgoAAAANSUhEUgAAAgAAAAIACAYAAAD0eNT6AAAAAXNSR0IArs4c6QAAAERlWElmTU0AKgAAAAgAAYdpAAQAAAABAAAAGgAAAAAAA6ABAAMAAAABAAEAAKACAAQAAAABAAACAKADAAQAAAABAAACAAAAAAAL+LWFAABAAElEQVR4Ae2dbaxdV3nnty++ie2MLx47rzI1SdqYCQic+UCjYJVo1DYiCoYPCCJBhBESUietIBo1qF9QU+ULmnQkqGiKFAk1CJCg4gM1CIYSjUKVZAhfEiqIYlqSuHhISGzMdRM7uY4953981/W+5+599ut6/y3JPvvsl/Xye/a561nPetazioIEAQhAAAIQgEB2BDZl1+KIGvzknx24ZnHLRb87rfKm4rp1VT9X3Lju+8LCTeu+8wUCEICALQJnzz62LutNxY/WfT9X/FzfV06/9m/7vnDomXXX+BIMARQAz6JY6+TVwZtOfdKZTwSz13PVKB4CEIDAKATOFcXhwigNUhYmCgLKwShoB2WCAjAIX7eHf/bnH/ijwnT0dPLd4HE3BCCQJIE15WBVMXjrX3/zB0k2NMBGoQBYFMp0dL/1ovdoZL9pYeGgxaLIGgIQgEAyBM6dPfvgZLD0o5VTr32PKQR7YkUBGJEtHf6IMMkKAhCAwCoBFAI7rwIKwECuU7N+UdzBCH8gSB6HAAQg0JLAVCEoiq8wXdASWM1tKAA1YOadXnXc+0s6/XmUuAYBCEDAPgEpAxOHwr9iqqA7axSAlszWzPubFu6aQMNDvyU3boMABCDggsDUmfDc2c/hN9CeNgpAA6upiX9h4W/p9BtAcRkCEIBAIASMz8Bb7/vm3wVSpSCrgQJQIRZM/BVQOAUBCEAgQgJMEdQLDQWgxIaOvwSDQwhAAAIJEUAR2ChMFIAJEzr+jS8GZyAAAQikSABF4IJUs1YAWMJ34UXgCAIQgEBOBKZ+ApkvJcxSAcCxL6efOW2FAAQgUE9gNRTxn+YYUyArBWBq6t+25XuTRrOMr/73wBUIQAAC2RGQIrDyyun35BRPYCEXKU9G/X9/0bYtv6Dzz0XitBMCEIBAewLqG9RHqK9o/1TcdyZvAZC5fxKx75/iFhO1hwAEIAABlwQmPgJ/nPq0QLIKAJ79Ln8qlAUBCEAgPQKprxhIUgH42d0f+O+bNi3cn97rSIsgAAEIQMA1gXPnzt6ZYlTBpBQAvPtd/ywoDwIQgEAeBFJcLZCMAiDHDXbny+OHSCshAAEI+CKgaYGJb8DHfJU/ZrnRKwAs7RvzdSAvCEAAAhBoIpDKksGoFQA8/JteU65DAAIQgIAtArGvFIg2DsCqyZ/lfbbebPKFAAQgAIG5BLTEXH3R3JsCvhidBQCTf8BvE1WDAAQgkCGBWKcEolIAMPln+MuiyRCAAAQiIRDblEA0UwCY/CP5BVBNCEAAApkSiG1KIAoLwGrnfzDTd4pmQwACEIBARARiWSoYvALws09/8OlJJdm9L6KXn6pCAAIQyJ1ADH4BwSoAOPvl/vOh/RCAAATiJhC6EhCkAqDOX9syxi16ag8BCEAAAhAoitdeOX3tvi8ceiY0FsE5AcrTn84/tNeE+kAAAhCAQF8C6tPUt/V93tZzQVkABEhelLYaS74QgAAEIAABXwRCWyYYjAVguoUvnb+v95JyIQABCEDAMoHpMsHJdvWWi2mdfRAWgGnnv2nh/ta15kYIQAACEIBApATOnTt751vv++bf+a6+dwUAs7/vV4DyIQABCEDANYEQpgO8KgB0/q5fOcqDAAQgAIFQCPhWArwpACz1C+UVpB4QgAAEIOCLgM8lgl4UADp/X68a5UIAAhCAQGgEfCkBzlcBmAh/oQmA+kAAAhCAAAR8EFjctuV76htdl+1cAVBDJ2YHYvu7ljTlQQACEIBAkATUJ6pvdF05pwoAG/u4Fi/lQQACEIBADASkBEwc4//eZV2dKQBqGCN/l6KlLAhAAAIQiInAJFDQQZdKgBMFYDXK38GYBEFdIQABCEAAAq4JTJUAR9ECJ4NyuwmPf7t8yR0CEIAABNIj4GJlgHULgA/HhvReBVoEAQhAAAI5EXDRd1pVAJj3z+l1pa0QgAAEIDAWARdOgdYUAOb9x3oNyAcCEIAABHIkYNsfwIoPAPP+Ob6qtBkCEIAABGwQsOUPYMUC4GLuwgZk8oQABCAAAQiERsBWnzq6AsC8f2ivDvWBAAQgAIGYCdjyBxh1CmDS+f/RZM7in2IGTd0hAAEIQAACIRIYe/vgUS0AdP4hvjLUCQIQgAAEUiAwdh87mgLgMnxhCoKkDRCAAAQgAIGuBMbsa0eZAsDrv6sIuR8CEIAABCDQj8BYqwJGsQDY8lDsh4anIAABCEAAAukSGKvPHawATAP+TLYxTBc1LYMABCAAAQiEQ2C6KmCEDYMGKQAy/W/atHB/OFioCQQgAAEIQCB9AmP0vYMUgMUtF/1l+phpIQQgAAEIQCA8AkMdAns7AbLmP7yXgRpBAAIQgEBeBIbEBuhvAVhY+Nu8MNNaCEAAAhCAQGAEBvTFvRSA6egfx7/A3gKqAwEIQAACuRGYOgROovD2aXcvBaAYoHH0qSTPQAACEIAABCBQQ6Bnn9xZAWD0XyMATkMAAhCAAAQ8EOhrBeisADD69yBdioQABCAAAQjMI9DDCtBJAWD0P48+1yAAAQhAAAJ+CPSxAnRSABj9+xEspUIAAhCAAAQaCXS0ArRWABj9N6LnBkcEtv3O7xWLS//ZUWkUAwEIQCAOAl2tAJs7NOuODvdyKwRGI6DOfuub9xZL77ipuPjKPcXC1kvW8l556VfFmZMnijPLx4uVE8cm/14qTj13uFhZ/s3aPRxAAAIQyIiA+uoftGnvRGFoTtPR/8LCPzXfyR0QGI/A0ttvnHb6W6+5vlemZ0+9XLz6/JF1ysGZiZLwyr//a6/8eAgCEIBADATaRgdsawFg9B+D1BOq45UHPlps37d/UItkKahSHk4++Ujx/KEvD8qbhyEAAQgETKCVFaDRAqAd/y7atuUXATeUqiVGQCP/K97/cautOvXMU8ULhx5kqsAqZTKHAAR8EXjtldPX7vvCoWfmld/oBLi49aL3zMuAaxAYk4Ac/C675fYxs6zMS5aB3R/+FM6ElXQ4CQEIxE6gTd/dqAAUmxbuih0E9Y+HwOW33bHOyc9mzRcvvarY84nPFFI6SG4JyLFT0zy7/uA2twVTGgRyIdCi7547BYDzXy5vShjtHGPev09L5Cz44ve/Xiz/y4/6PM4zHQloikdWHrOaQ/xPPP5Qsfzko0zJdGTJ7RCYR6DJGbDJCRDnv3l0uTYaAXUKQ53++lZGHZHxOUAJ6Eux+TmN+nfdfGCDnMV/583vK3b8/h+iCDRj5A4IdCEw1xlw7hTApoWFg11K4l4I9CGgjsHFvH9T3Xbuv7XpFq73JCAFT9Mt85Q8owhc/cnPTqcH9F6QIACB/gSa+vDaKQDM//2h82Q3Alf/yT2F5uNDSEcfvI84ASMKQp34FQcOVi7HbFMMSzbbUOIeCNQTmDcNMM8CgPm/nilXRiIgJ7BQOn81aee73ztSy8jGjPqrYjG0pSOLAY6CbWlxHwQqCdT25ZUKgNb+N5kOKovhJAQ6EJD3veZ+Q0rqrDA9D5OI+L3pI3dN/SqMo9+QHPWOsFJjCEGezZmA+nL16VUMKhWANusHqzLjHATaElAncdWH7mx7u9P75KhG6kdgjFF/VcmhvitVdeUcBEIjUNenVyoArP0PTXzp1UfzwmOMDm2QuWTvDVgBeoCdzvdPIjjakKvy1DJREgQg0INATUyASgVg4hm4t0cRPAKBVgQ0pztkXrhVIQNuUmeztO9dA3LI81HblhP5A8jCQIIABLoRqOvTNygA8v7vljV3Q6A9gRDn/atqrzXppG4EZDmxnbRcFB8N25TJP0UCVX37BgVg0vBaj8EUodAmdwRCnvefpTC1AjDanMVS+10jcxum/9kCVYamj0gQgEBnAhv69o0KwMLCTZ2z5QEItCAgE7GLTqJFVVrdsvQOfgqtQE1uchlESdNHTAW0lQz3QWCVQEXfvk4BmC7/Y/6f98USgc1LOy3lbCdbdTQsP2tmK0auYzkodDNTAc2y4Q4IGALyA5hdDrhOAVjcctHvmpv5hMDYBM4sHx87S+v5Ld2AM2ATZF+MtJ0zCQIQaE9gto9fpwBMstkwR9A+a+6EQHoE5HnOSLNermIzL75//ZPDr8jqgIVmOEdyyIrAuj5+vQJQMUeQFRoaa5XAyoljVvO3lTlLAuvJ+maz8ts436l6olyBgEUCM338mgLA/L9F6GQ9JbBy4qUoSbAksF5s29/2zvqLDq6sLP/GQSkUAYE0CMz6AawpAHWhAtNoNq2AQH8CLAmsZufD+a9ck5WXflX+yjEEINCCQLmvX1MAinMFIbZawOOW/gROPXe4/8Oen3S5zM1zU1sX73vnxDMnT7SuKzdCAAKrBEp9/QUFYGZuAFgQGJuAzLVnT708drZO8sPhbD1mOf/5Dud86sjP11eKbxCAQDOBUl+/pgDUxQpuzo07INCewKvPH2l/c2B3+h7xhoTDt/OfWMTqUxKSHKlLfgTKff1UAZgNDpAfElrsikDMozaNeFkSeP5N8e38p1qciXRViavfGuVAoI6A6fOnCsBscIC6hzgPgaEETj379NAsvD5ve8c7r43rUPgbLlnqcLedW1kCaIcruaZPwPT556cANhXXpd9kWhgCgVf+/V9DqEbvOmjHO6wAhfc9HeRLwhLA3q8xD+ZOYLXPP68AlLwCc+dC++0TOPXMU/YLsVTCdEngvrzDA4egAL3+8rIlCZMtBDIgsNrnn1cAMmgvTQyHQMx+AKKYe2CgxTfu8v4ynT76C+91oAIQiJ3AeQWgtCwg9gZR//AJxO4HkHtgoM07/CsAsYaVDv/XSQ2zILDa508VgPKygCwaTyO9EpAfQKzxAAw4AgMZEn4+WQLohzulpkHA9PkLZjlAGs2iFbEQePnwE7FUtbKeOQcGWtxxaSUTlydjjirpkhNlQaCOgPr+BbMcoO4mzkPABoFXIl8OKCa5BgZaDGEKgE2AbPwsyTMjAur7FwqWAGYk8nCamsIILtfAQJuXdnp9kdgEyCt+Ck+FwKTvZxVAKsKMrB1aw53CH/IcAwNt3r7D69vGJkBe8VN4QgQW2AUwIWlG1pSTP/1xZDXeWN3t+/ZnFxjIdxTAM8vHNwqCMxCAQDcCk1gAWAC6IePuEQksP/lo9KsBhCOEjXFGFEtjVloG6TOl4D/ikx9lQ8AQQAEwJPh0TkDTAC9+/+vOyx27wJwCA4UQBZBNgMZ+g8kvVwKbc2047Q6DwPK//KhYesdN3veWH0JDI+Jdf3BbceyfvzMkmyieDSEKYO6bAEkJ2/rmvdP3RcqQCczU5Vi/OxIENhdEAeQt8EzghUMPFld/8rOeazGseG2Pm4MCYDqbYbT6P537JkDbfuf3iqs+dOfgzZgUyyGH97X/m5bBk5O+nymADOQcehM1FXD84X8MvZpz66fAQEtvv3HuPVwcTiDnTYBkZdp98O7Bnb+ksPPm92XnvDr87UsvBxSA9GQaZYs0Gol9WaCmMlJPvqMA5rgJkEz+Vx746LTTHvP92v3hT42ZHXlFSGDBxASOsO5UOTECv/7OV6JukQIDyUSbcvIdBTC3TYDU+auj1nLTsZOsVrIqkPIkoL4fC0Cesg+y1dok6OSTjwRZt7aVWrrhXW1v5b4eBHLaBEhTSns+8ZlCHbWtpKmA1JVWW+xSyBcFIAUpJtSGYw8fijo2QOqBgXyHAU4hhHSbn6tG5le8/+OjzPc3lXf5bXc03cL1RAmgACQq2FiblUJsgJTDA/sOA6z3I/X0po/cNfp8/zxmTAXMo5P2NRSAtOUbZeu0RvnUM09FWXdV+pK9NyTrYe0zDHDsTqJtXmh1/vIlcZ2YCnBNPIzyUADCkAO1mCGg2ACxJgUGSjU8sM8wwKlvAiRPfx+dv/mdMRVgSOTziQKQj6yjamnssQFSDA/sOwxwypsAqfO34enf5UfPVEAXWmnciwKQhhyTbEXMsQGmVgACA436Xqa6CZAc/nx3/kZQTAUYEnl8ogDkIedoWxlzbICd+2+NlntVxX3vA5DiJkDq/NXphpSYCghJGnbrggJgly+5DyQQc2wAmVRTWmPtex+A1DYB0jr/0Dp//Vz13mpKgpQ+ARSA9GUcfQtjjg2w893vjZ5/CA1IbRMgdf5a5x9q0pRESsprqJx91wsFwLcEKL+RgBwCTzz+UON9Id4gr27fznNjcfG5D8Crzx8Zqxne81HHGnLnbwAxFWBIpPuJApCubJNqWcwOgakEBvK5D0AqKwDU+WtHvxgSUwExSGlYHVEAhvHjaYcEjj/yXYeljVdU6uGBxyNVn1MKKwDU+V/1oTvrGxngFaYCAhTKiFVCARgRJlnZJRBzhMAUAgP53Acg9hUAmgZS5+8zkFLfXyd+LH3Jhf8cCkD4MqKGJQKxRghMITCQz30AtBok1qTOX7v6xdj5i/mpIz+PFT31biCAAtAAiMthEZBDYIxbBuuPf+x7r/vaByDmPQDU+e/+8Kei7fz1619+8tGw/ghQm9EIoACMhpKMXBGIdVng9re90xUiK+X4GsGePvoLK+2xnanp/OVMF2uS8pXDDoyxymdovVEAhhLkeecE9Afpxe9/3Xm5QwtUR6D13zEmdWa+UqwOgFccODgNquOL2xjlxqp8jdH2HPJAAchBygm2UQ6BMZqGl95xU5TS8BkGOEYHQF/b+o79ci0/gfl/bKYh5YcCEJI0qEsnAjHuE6DAQERY6yTmIjYHQN/b+najW3+3oi/Gxr6+NVypIoACUEWFc1EQiHWfgBgjrPnaByA2K09IO/sN/RGnFH1xKItUn0cBSFWymbRLDoGxpRh9AXyFAY5pDjrUzX36/j6Wf/JY30d5LhICKACRCIpqVhOQQ+Dxh/+x+mLAZ1PbKtgW6pUTx2xlPWq+scT379LoU88d7nI790ZIAAUgMqH59MYOFZX2CdB8ZUwpNiuAr30ATj37dPBijTHEbxNUlv81EUrj+uY0mpFHK67+k3vWlhWpw3v95eVpw8+cPFGYzVLMiGnlxEvnr01GUNpHPfW1vFoWGMMOa+U3VVYArWaIIfkKA6x3N+QkhTzWEL/zuJ786Y/nXeZaIgRQACIRpJYVlQOKKCiLCcxSPl/XHCkMLx9+otCa6lg6nbq2VJ1Xm7TETl72sSRjBUhRHmPIQO9syIqrCfRjfodjtDmUPGKwvITCKuZ6MAUQgfTGWFakP1La2Uuj5KklwWNgF1vIj//w27aytpZvLL4APvYBCN0LPYVAP1UvthQvlv9VkUnvHApA4DJV56+Oe8ykkac2J4k1Kl0dixiXBRorQF2bQjnvYx+AkDehSSXQT9X7JUshKQ8CKAABy9nmmmJZBGQNiH2DmlnxxbhPwGW33D7bjOC++zBzGz+W0GCMYZELrU3l+sQaerncBo7bEUABaMfJ+V2u1hTvvPl9xdS/IJEpAc0Zn3j8IefyGlKgOteQrTG+Vp6EuAzNplI+5B0a89kQuY/ZPvK6QAAF4AKLYI7UGbj0aJfjnKYEUglRq2WBsUWQC9kK4GMfgBAdAPX7kMKccjr1zFNBO16mzN5H21AAfFCfU6avgCIahe4+eHcyUwKx7RMg/qlNx8x5zRsvheYAaJb7NVY88htC9ruIHG2Q1UcBCEgsIQQUSWVKQA6BGs3ElHb8/h8GWV0f+wCE1hHt/vCn1pbdBimkESql34usZ6R8CKAABCJrM8Lw4Ww1i0BTAvqDF/uUwAuHHpxtWtDfQ7UC+NgHICQHQDn9tYm1EfTL1VA5TZn98qufa7iLy6kRQAEIQKIhBhTRHzxNCYTsnNYkuhj3CQjVCtDEeuzroTii5eD0J9kd/drnxxYh+UVAAAUgACEt7XtXsCMMOSNqBBRrWn7y0aj2CQjRCuB6H4BQHABzcPrT7/qFb30Jx79Y/8ANrDcKwECAYzweethNBSKKNXqgrADaJyCmJCuAr6V3VZxc7wMQggOgmZKr4pHSOe2kSSjqlCTarS0oAN14Wbk79A1P1OiYowfqD1xMywJlBZBVKJTkOgyw2djKZ/tx+vNJn7JdEUABcEV6Tjkhb3hSrrY6plijB8a2LDAkK4BrBzjfkehycfqLzUm2/LeI43EIoACMw3FwLjGNUGNcKhjbPgGhWAF8TEWcmWxh7Svl4vQnhTiWgYevdyGHclEAApHymZMnAqlJu2rEGD0wtn0CpGj56IDLb4CPKIC+dqLLyenPF+Pyu8WxfwIoAP5lMK1BaIFP2mDRKDWm6IEa8cS2T8Cumw+0EYW1e1wHAfJlCcvF6e/kk4/g9Gft1xJfxigAgcgspMAnXZGYKYGuz/m4P7Z9ArQCw7cVwKWcTh/9hcvi1srKwelPytXzh7681mYOIIACEMg74HPecwwEmhKIZang8Ue+O0aTneXh0wqw7eq3OGunCvLhAJiD059iKxDsx+mrHEVhKACBiCmGpYBNqGJZKqhlgTHtE5CTFcC1IpyL09+vvnE/Tn9Nf8AyvI4CEIjQNT8tLT32ZJYKhh498PgPvx0Val9WANdBgFw6p+Xi9KdgPy65RvXDyryyKAABvQAhREAbC4dGrW/6yF3Bzl/rD6IcomJJvqwAF1+5xxkilw6AOTn9scOfs1c4uoJQAAISWQgR0MbEEfpSwdiWBfqwAsii4yq5dADE6c+VVCknZAIoAAFJZ8VjABRbGEJeKhjbskBZAVxu0ex69YGr9x+nP1u/dvKNjQAKQEASC31ToCGozFJB151KU51jWxa4dIO7PQJcBwFy8f7n4vSnDbCI9Nf06+c6CkBA70AKKwHm4dSUgEyvLkex8+pjrsW0LNClFcB5EKDf2g0BnJPTHzv8mV83n/MIoADMo+P4mjT2mBzT+uDRUsGrPnRnsfT2G/s8buWZ2JYF7nz3e61wmM10ccels6esfdcKGJsj1lyc/rS8Fac/a69pchmjAAQmUkXqimmNeh98IS4VjGlZoCwpoVlR+rwH5Wdsr4DJxemPHf7KbxXHTQRQAJoIebiuH3EKMQGa0MmcHUr0wNiWBbqwAmzdc12TCEe7bnMvjByc/iQIdvgb7XXMJiMUgABFLVOoInflkEz0wBBGtFoWGEtKzQpgay+MXJz+XvjWlwj2E8uPN6B6ogAEJIxyVTQi1Y86hxTKUsHYfDBsWwFcBgE69dzh0V/1XJz+2OFv9FcnmwxRAAIWtZzTUncKLOMPYalgTMGBbFsBXAUBsuEAmIvTHzv8lf+CcNyVAApAV2KO75dToMsQqY6bt6E430sFZQU48fhDG+oV6onLb7vDStVcxmuw4QCYg9OfFCd2+LPy+meTKQpABKLWjzwnS4D8AnYfvNvbUsGYggOJlY0llS6DAI3tAJiL0x/BfiL44x14FVEAAheQqqdRqSwB8gnIYXWAEckV7/944WtXwZiCA+3cf6tBNtqnyyBAYzoA5uL0px3+CPYz2uuebUYoABGJXj/4Iw/cm3ycgLJIzFJB16sExDqWqRcbVgCXQYDGcgDMxemPYD/lvxAcDyGAAjCEnodnZQ345Vc/l5U1wNeUgNZVx5LGtgIs7tjlrOl6p4emXJz+ZAEk2M/Qt4XnDQEUAEMiss8crQGaEnjTR+4qXDmoaSlmLFEZbVgBXPwkxrKy5OD0J3koPsgYCpML2VJG+ARQAMKXUW0NjTVA84G5JNerBGIabY1pBdiy+1onr9Tpo78YXE4uTn/6nUspJUFgLAIoAGOR9JiPvNaf/Zu/iGbOeigqMyUghy/bSUpWLCswxrQCvOGSJdtop/m/8uzTg8rRCgj5iaSe9A6yyU/qUnbfPhQA98ytlKiO6tkv3lPkZA1wFTgopuBAY1kBXAUBOnOi/xbAmgq67JbbrfyeQsqUYD8hSSOtuqAApCXP6Sjh6IP3ZWMN0JTAnk98xurueFKuYgkONIYVwJWPhX56Q0zaucz7E+wnsT/SATUHBSAgYYxVFf1RlTUgFtP10Ha72EtA5tdYYjAMHRW7CgI0xAEwl3l/xf6QAkqCgA0CKAA2qAaSZ27BgzQlYHN7YUVeiyFJIRoSHdBVEKC+DoA5zfsT7CeGX1y8dUQBiFd2rWpulgsOGW21KiiQm2QC15TAkA6wrikxBQcaagWoYzDm+ZUe8//M+48pAfLKnQAKQAZvgHEQzGlKwFYY4ViCAw2xAriKAtgnBHAO8/5s8pPBH+VAmogCEIggXFRDUwJyEIxlLnsoExNGeEyntpiCA/W1AriKAtg1BHAu8/5s8jP0l8/zbQmgALQllch96sBy2k9AUwJXf/Kzo04JHP/ht6N4G2QFcBEroQ8MKaFdnNuY9+9DmWcgMJ8ACsB8Pkle1R9e7SeQU8yAMacEpETFMp2y4/f/sPM7vHlpZ+dnuj7w6vNHWj/CvH9rVNwIgU4EUAA64UrrZi1tyylmgJkSGGNnwViCA/WxAmzevsP6i37qyM9bl8G8f2tU3AiBTgRQADrhSu/m3GIGaEpg98G7B08JyIoSS3CgPlYA2296WwdA5v1tS4L8cyaAApCz9Ettzy1mwBg7C8YSHKirFcDFPgBtHACZ9y/9QDmEgAUCKAAWoMaaZW4xA8bYWTCW4EBdrABSGGynJgdA5v1tS4D8IVAUKAC8BesI6A9zTmGEzZRAX2/5WIIDtbUCjLlkct2LVfrSJigV8/4lYBxCwBIBFABLYGPPNreYAUN2FowlOFAXK4DN97cpBDDz/jbpkzcELhBAAbjAgqMZArnFDOi7s6A4nXrmqRl64X2VFaApRLKLjYBeefbpWjjM+9ei4QIERieAAjA60rQyNDEDtCtZDhEE1UlqlUDXKYFYggNtu/otc19QFxsBnanZA4B5/7mi4SIERieAAjA60jQzNA6CMYx0x5BA150FYwkOdMneG8bAMygPsZpN6vy1iZMLB8TZsl1/P/q1z7sukvIgUEkABaASCyerCORmDei6s6CCA4We1MHOC4RkeyOgKgfAnDp/WdKaVkCE/g5Rv3QIoACkI0tnLcnJGqAOs20YYf1hjyG88taGaQCbL9KsA2BOnb/CR+u3Q4JAKARQAEKRRGT1yM0aYMIIq8Oal2IIDrR1z3W1TXCxE6AsEPonh79czP6yfGhlDQkCIRF4w5/tf9s9IVWIusRF4NVfHy3+46ePFxdfvrtY/M+XxVX5jrV9w7btxY4b/6g485sXC7W7Lr3+HyeK//Rf/mvdZe/nJaeTTzxSnH319Ia67Hjnf7Mqx4uv3FMs3bB/+k+MNi1etKEOKZ54/h++ODH9H0+xabQpYgJYACIWXihVz80a0DQlEENwoK1v3hvK65N8PTTvX+X4mHzDaWDwBFAAghdRPBXMyTegaUog9OBAdcsBXewEGM8bPbymzPsPZ0gO9gigANhjm2XOOVkDzCqBKq/60JcF1i0HdLERUC4/DM37x7AyJBd50M6NBFAANjLhzAgEcrEGmMBBVRH25kW8GwHxoCzqlgPqPGkcArICSSEmQSBUAigAoUomgXrlZA2Y9QvQaoGd+28NWoqzywGbVjgE3ZjAKqfloMz7ByYUqrOBwOYNZzgBgZEJyBqg/d933Xyg0Nx5qklt27y0s1j+yWPFZbfcHnxUu+1ve2ehZYukcQkoWiZcx2VKbnYIoADY4UquMwRkDdA6aJnFY+gcZ6rf+qs2FNK/GJJ8GDTqN2ZqFxsBxcBlSB21X8YLhx4ckgXPQsAZAaYAnKGmIBEwvgHyjib5J7C0713+K5FQDX71jfvXFKqEmkVTEiWAApCoYENulrEG5LLDYMiy0DQAaRwCzPuPw5Fc3BFgCsAda0qaIZCLb8BMs4P6qmkAbX28cuKlwvZGQEE1fOTKMO8/MlCyc0Jg01Of/uA5JyVRCATmENBa+qs+dGfwjnNzmsCljAk8+zd/gek/Y/nH2nSmAGKVXGL11pKpIw/cW+AbkJhgM2iOTP/GkTKD5tLEhAigACQkzNibYnwDjj54XyFvahIEQieg95Qlf6FLifrVEUABqCPDeW8EZA34t//1P7AGeJMABbcl8OL3v972Vu4bSIBAVQMBVjyOE2AFFE6FQUBxA5afeLS4/LY7CjmrkSAQEgE5/smRlTQuAfkDbd6xa+qUunXPdYU2qDK/fzE//sNvE2VxJOQ4AY4EkmzsErjywEeTjiJolx652yCgqSrC/fYnqxG9tqXW6pPFSYe/Zfe1ax19U67aaOn4I99FAWsC1XAdBaABEJfDIaCRAdaAcOSRc03krCoLFamZgDp6RZnU3hNdO/qm3FEEmgjNv44CMJ8PVwMkgDUgQKFkVCU5/mnFCp7/64U+29FrX4yLr9zjZGmvZHLi8YeK5ScfRS7rxTL3GwrAXDxcDJUA1oBQJZN+vbTsL3fPfzNPv20yqnfZ0Te9XSgCTYTWX0cBWM+Db5ERUBS7nTe/L7JaU91YCcjk/OwX74m1+p3rXZ6nn3XI65yZ4wc0TXPs4UNYBOZwZxXAHDhcCp+ARmKnJjsM4hsQvqxSqOGvv/OVFJqxoQ3GfC/v+9BG9Rsq2/KE2XocX416YCgA9Wy4EgkBeWJrVIZvQCQCi7SaWoKWgtf/7Kje1Ty9D7FrZQGpngAKQD0brkRGgLgBkQkssuq+cOjBqGpsRvU2vO9jAaH4AeKAw2a1xFAAqrlwNlICWAMiFVzg1Y4h3r8c80xnf8neG5x43wcutmn1FGtghYBNlaJCAajEwsnYCRhrADsMxi5J//UPMd5/2Qu/SwAd/zTd10A+DURsrOaOAlDNhbMJEJA1QOu1d918gCiCCcjTVxN8x/vPac7ehozxA6inigJQz4YrCRAwOwy+MlkpcNktt2MWTUCmLpugZX8uR4/leXstu0vZQc+VHM+cPOGqqOjKQQGITmRUuA8B/RE/9dxhrAF94GX8jO1lf5jy7b9cyz95zH4hkZaAAhCp4Kh2dwJYA7ozy/kJBZIZc9mfMeWbdfZbr7k+Z7xO2i7/DZcWHCeNGrEQFIARYZJVHASMNeCKAwcL/gjHITPXtZw6/k2iyPVNmPL7khv3Oe0PQKongAJQz4YrCROQNeCXX/1csfT2G/ENSFjOfZumjqPL2vHyEjy88vtSH/85bQ5EqieAAlDPhisZEMAakIGQezRx5cRLtU+VTfl09rWYvF9Q5MYuSpz3CnuoAAqAB+gUGRYBrAFhySOE2mjFyJkTxwrFxlda3HFpgVd+CJJpX4fjP/x2+5szvRMFIFPB0+yNBLAGbGSS65mFrZcUuw/enWvzo2+3fDjGdOCMHkhNAxZqznMaAlkSMNYAhX4lQQACcRLA+a+d3FAA2nHirswIaJvhZ//mLwrNI5IgAIG4COD8105eKADtOHFXhgSwBmQodJocPQHFb8D5r50YUQDaceKujAkYa4DCwpIgAIGwCSw/wdK/thJCAWhLivuyJqARxbNfvKfANyDr14DGB0xAjn9jR28MuLmjVI1VAKNgJJNcCMgacGqysdDlt91RLF56VS7Npp0QCI6AOvxXnz9SnDry8+lvEq//7iLa9NSnP3iu+2P5PqHIcTv331poh6kzy8eLlclaYSUFDtG64enxb48xBzUlkfZ/u/7gtmLnze9Lu5G0DgKBEKDDH18QWABaMlX0r3Ls+DajP72wr7+8PFUWVIwUBqWy0qDvUhxWJkqDEs4rUwxR/Ic1IAoxUclICejv58uHnyi0lbd28uRv4/iCxALQgqnrePF68ZVmlYcqxUH3oTyIgt905YGPFtv37fdbCUqHQMQE6PDdCw8FYA7z2VH/nFuDuWSsDqqQmabQcZXygOIgMuMlbQiDb8B4PMkpbQJ0+P7liwJQIwPXo/6aajg9bZQHKQ5K5SkLszlK2c9B92CWE4ULSUrjrpsPYA24gIQjCEwJ0OGH9yKgAFTIRJ3/Fe//eMUVTlURMIqDrlUpDzqfmwLBOySpk3ImoLgZp4/+gjn8gF8CnAArhKOdv0jtCWjjFP1TauMcWZXzrBJhrA+6t276ImTrgzYWkrXkqg/ducamqt2cg0AKBPT7NUvypOzjtBeHVFEAKuS0uLoFaMUlTlki0FeJMIqD8XeQslC2NsjPwZeioHXJRx64t9j94U/1Vows4SZbCPQmQGffG11wD6IAVIhky+5rK85yKkQCRnFosjzUKQq2l2BK+Tj6tc8XV3/ysyHio04QmEuAzn4unugvogBUiPANlyxVnOVUzATaKApVSoLaLIuCURT6WBOW9r0rZnTUPRMCdPaZCLrUTBSAEgwdyovbzGfPXOJr4gTaKAlCUKUomGmHKkTb3/bOqtOcg4A3AnT23tAHVTAKwIw4NMLThi+EeJ0Bw9c1Am0VhbUHOICARwJ09h7hB140CkCFgBTideue64qt11xfcZVTEIAABMIkQGcfplxCrRUKQI1kXjj0YLHnE59hOqCGD6chAAH/BE4989Q0YBfx8v3LIsYaoADUSE1TAb/6xv3F7oN319zBaQhAAALuCJRH99qSmu1v3bFPtSQUgDmS1Q8Mf4A5gLgEAQhYI0CHbw0tGa8SQAFoeBXwB2gAxGUIQGAUAoTOHQUjmXQggALQAhb+AC0gcQsEINCJAB1+J1zcbIEACkALqPgDtIDELRCAwFwCctg7deTnhebvfYaonltJLmZFAAWgpbjxB2gJitsgAIFpsCizOQ4Oe7wQoRJAAeggGfwBOsDiVghkREAOey8ffmK69a3CRuOhn5HwI24qCkBH4ckf4IoDB4uLr9xDjICO7LgdAqkQYP4+FUnm3Y5NT336g+fyRtC/9dt+5/eKzZOtg7dd/ZZCOwg27UjXvySehAAEfBKgw/dJn7JtEUABGJmslIKtE4VgcaIYKG1e2nn+c/uO6ad2GmSzoSkK/oNAkARYfx+kWKiUBQJMAYwMVXN/bef/tPOg0uIbV5WFVaVhem7Hpeevlc6VlQmzZTHKxBQT/0GgNwE6/N7oeDByAigAHgVo9pY3n8VEeeib+ioTKm9zyTqh7ygVokBKlQDm/FQlS7u6EkAB6Eos0PuNEmE+hygT5SbOKha6Jr8HkxZXLRX6bqY9dGysFdPjGQVD51AyRIHkkoBG+kceuLdY+424LJyyIBAgARSAAIUSUpXMH0vzOa3bAEtFVduMkmGumSkR872scJhzZcXjwrkLiok5V1ZEdM5YO3RsplF0jEIiCmknyXjXzQemS/XUUi3XIyBP2jKndfMJ4AQ4nw9XMyRQp5AYRcQoH8biYZQMKRdlpULoUCzieIFkHXj95eXizMkT0+11VybKgdLKiZfWFIXp98kuoSQIpEIAC0AqkqQdoxFYZ+2Y5Lr2vYfl400fuavYes31o9WNjOwQkKKmf22W8lYpC1IUlIxVQcdr742+kCAQIAEsAAEKhSqlQ0DWhKs/+dl0GkRLOhOQwqBkLAw6PrN8XB/OkiwaZSVFBTP94Qx/sAVhAQhWNFQMAhBIgYCZBmprYfDRZq2MUDJTIDqenQaZnvvt6tQIUyHCEX1CAYhehDQgZAJb37w35OpRNwhMCZipD/PZBkt5KkT3y6pRVhqm51YdLXXMlIgohJVQAMKSB7VJjMDSO25KrEU0BwLnCXTxmzDMjNKg77PWBqYoDCV3nygA7lhTUmYElt5+Iw6Amcmc5s4nYJQG3dVkbZCycOLxhwrtwkqyQwAFwA5Xcs2YgPaD2Pnu99L5Z/wO0PThBKQs7Lz5fcXWPdcV2oWVKYThTGdzYBXALBG+Q6AnAXn8K9DM9n37e+bAYxCAQB2B4w//I9aAOjg9z2MB6AmOxyBQJrDrD24rdvz+HxL4pwyFYwiMSEDWgO1ve2dx9GufxxowElcsACOBJJs8CWie/7Jbbqfjz1P8tNoTAawB44DHAjAOR3LJjIDm+S+/7Y5GR6bMsNBcCDghYKwBv/7OV1pvv+6kYpEVggUgMoFRXb8ENM9/xYGDOPj5FQOlQ2BKgJUCw14ELADD+PF0RgSuPPBRHPwykjdNDZ+AWSkg3wCsAd3lhQWgOzOeyIwADn6ZCZzmRklA1oBffeN+pgQ6SA8LQAdY3JoXATn47dx/K/P8CYi9HIFOWzZr5EhKi4BkKr+cZ794T1oNs9gaFACLcMk6TgIE8olTbvNq/eL3v14s/8uP1m6RL4f2adh29VuKS/begEKwRibuA0UX1FTd84e+HHdDHNUeBcARaIoJnwCBfMKXUd8aLu64dN2jiiq3MlEIzisFXy5QCNbhifqLAnG98uzT6xS+qBtksfL4AFiES9bxEGCePx5Z9a3pC9/6UutOAYWgL+UwntOUz5EH7iVgUIM4UAAaAHE5bQIE8klbvrOt66IElJ9FISjTiON45aVf4Q/QICoUgAZAXE6TAIF80pRrm1aNEUUOhaANaf/3nHzyEfwB5ogBBWAOHC6lR0B/uAnkk55cu7ZoDCWgXGZZIdiy+1pWjpTheD7ua/XxXG0nxeME6AQzhfgmoD/Q7NTnWwrhlK9Qskpj7TW/3qlwstd9aZUBCoFfuWuvjlPPHcYfoEIMWAAqoHAqLQI4+KUlzzFbM7YloK5uUggW37ir2DpZdqj97bdec33drZy3QAB/gGqoWACquXA2AQKxB/LR/OWxhw8Vez7xGdapW3ofx7YE1FVzaiGYLD185d//de0W+aEYheDiK/cg4zUy4x8oPoCUMMmBdIEACsAFFhwlQiD2QD4arZTjmr/+8jKdg8V305USMNsEKQOzCsHmHbsITjQLaoTvWhZI578RJArARiaciZRACvP8VSZpha4l2SUgJWBx0vn6jCA3VQYmSkFVcCL8CIbJ/9XnjwzLINGnUQASFWxOzVLHv7TvXYUZycXY9lPPPFUc/+G3140I1Q6FNSVuvRuJKoKckk8loNxSHAvLNIYdn1k+PiyDRJ9GAUhUsLk0K4VAPlWjfslPzoumU8pFnr7baXiHogSUecwqBLqGH0GZUP2xQgOTNhJAAdjIhDMREEghkI9G/S8cerBybnLqwLi6VC0CcSRVxZCVgFnQVX4EOBbOUiqKMyeObTzJmQIFgJcgKgKxO/gJthySZnenKwtBbbzi/R8vn+LYMYGYlIAymlmFQNNj7HpYFCu/RQEovyfmGAXAkOAzaAIpOPgJ8LxRv66rnVd96E4dkjwTiFUJKGNbP22wftfDXBwL9ZtjBUD5rbhwTCCgCyw4CpRACoF8mkb9Qq/Of/eHP0UY2cDeQ3Ugv/zq5wKr1TjVKVsIUlMIJLcqx9pxyKWRCwpAGnJMshUpOPhJMCagT9Mo5E0fuYsIcYG+ySkrAbPIY3csnI2jMds+vl8ggAJwgQVHgRBIwcFPKNuM+g1yLfczJmdzjs+wCOSkBJTJx6IQqOM//sh3V+MolFvAcR0BFIA6Mpx3TiCVeX6Bazvq172a4og5hoHakEtSJ3P0a5/Pek5ZCkFIEQvp+Pv/+lAA+rPjyZEIpNTxdzU/apoDj/+RXiRH2aAErAfty4+Ajn+9HPp8QwHoQ41nRiOQgoOfgaFRf5cAMhpJ7T54t3ncyafM2Ms/eWxaFopHf+Sa3vnVN+7fELmxf47pPGkUgsUdl1rZ+ZCOf7x3hWWA47Ekpw4EpoFu9t+ahMd711G/MOmPpOvlfqqn8WaX8kHqT0DhmSU/lICNDM3Sw/KVMfwI6PjLRMc5RgEYhyO5tCSgPwQ73/3eZLzd68L4zsOhzl/L/VzH+NcOgyYpWhxpGAHJTxacF771JRzPGlDOBigyCoE2YLpk7w1zfwtdnGkbqsHlGQIoADNA+GqHgDq9XTcfSMbTXaORvs5gVxw46NzyIUVlutvcqni37rnOjqAzzNVMpZzfxS9DAD2avF4hqA5QRMffA2zHR1AAOgLj9u4EUprn1x+lE48/VBz75+90BzF5Qsv9tl5zfa9n+z6kef/Z+rquQ9+6x/KclADNec9yjqX+vutppg2MEqUBQ1PcDN91TqF8FIAUpBhoG1IJ5GPwqiOt27zH3DPvU4qQ67X+UlhU53Ji/r9MY7xjLeWUSbuLI+h4paeVE52/G3miALjhnFUp6mAuv+0O52ZuW5DHMEVOnR497O4nJ7XZP6ZLN7zLFqrs85WCt3lp55qzZfZAABA0ARSAoMUTV+VkttP8dkrm5aGjfklQXC675Xbnwpyd9zcVUMx3kj0Cev8V1nmItche7cgZAhcIoABcYMFRTwKpOfgJwxijfoPTh8e/nBSr5qMlq8VLrzJV49MSASkBkntfR1FL1SJbCKwjgAKwDgdfuhJIycHPtL1LGF/zTN2nnP5cd7hSXtTxVCXtDU9yQ0By3/OJzxRHHrh3wzSMmxpQCgTmE0ABmM+HqzUEUgrkY5qojnPMwC5i5NrpT2158ftfr+1wtrH+34jbyadiBUgJGPO9clJxCsmCAApAFmIer5EyIae4Z33XML5NROUIadaHN9075nW1wyylqsrX5vy/ph1cWzuq2hjaORM1UIrZPNmEVm/qkz4BFID0ZTxaC2XuT23XOnVaipBXDpIzBjCtgnCd1JamJWhvuGRp9GoZR8nFN+5yvrfB6I2xlKGUAKMQogRYgky2nQmgAHRGlt8DGvWn5t0vKfYJ49tG+vIA9zESLof6raqn5KiOaOxkvN213FAWCB/THmO3yVZ+BAyyRZZ8+xBAAehDLaNnUgvmI9HZGvUrb1lJfCyDVDz6JiuGRug2UjnOwLGHDzXGdrdRh3l5St7HH/nu9JadAWxARcCgedLimksCKAAuaUdUFqP+7sLSvL+PKRKZ4NuYlTdPotSNneQ4WU5SBjTXbczd5Ws+jw2fU88dDsKaZawkTVM2PplRdvoEFtJvIi3sSkCjfnku+xjJdq1r2/vVST77N39RuTa+bR7z7pPC5Hp7X9VHHfBsqN+6etpYAfD6y8sbilNnq1F3iEkKirZE1lSF7yQlYDpdNHl3SBDwQQAFwAf1QMtUJ6Z16xq92Zgr9tFsdZCa69cf/bKpeuy6yEfCB7OqUL91bVOI2rHTmZMnKrNs8keofMjSSTk+zu5/oJG33gvfyQQM0m+PBAHXBFAAXBMPtDz9gdTyPmOaDLSanaqlUb+CsFRFxOuUUcPNvub960L91lV38/YddZd6nz+zfLzyWfkjhDDKVuWkmFWtytB7Id+J2WmMygZZPCmH0enSWpQAi5TJuooACkAVlczOadS/++DdXjzXbaCemsUnf9htj/pVd5/z/l0VGxsrE1ZOHKsVoRwCfXeupnJquxS12aTpCllRfNdT9dO026ylYra+fIfAmARQAMakGVle+mNz9Z/ck+So3zh92RRJDPP+pv0+TMyacjnx+EOmCt4/5aBZ1cHKWjEN1+vZb0GWCvmRVNXROzwqkCQBFIAkxdrcKI2GGPU3c5p3h695/3mhfuvqa2sPgJUTL9UVOT0vK0VIDoFVUwGqqJSVZ794j/dpCykB+l3KEZcEAdsEUABsEw4sf40ENer3sVzNFgrNNWsE52LUb9qgaRMfqyTU1j7tXNxxqan6qJ9n5kwBmILMGnzz3eenTO2SXV0KxTlQjrhVUxZ19eY8BPoQIA5AH2qRPpNaUB+bAX3miVgcfThLqr19140vWogBIEYrv633ATAMpbAsveMmLwqTqUP5U7JbfuLR2sBJU6vFxLLhO5aBUdK7+nqU28oxBOYRwAIwj04i1zTq13rjlJb3aSQsk21T9LuxRSiWl91y+9jZNuYnJ7UhS+tsLAFsrHTphraxCkqPWD1sitkgpeXog/d5dw6UEjDPYmEVEpknTwAFIHERpxbUR6Ng/WHuOxIeKm4t1/Kx3l/z/kOUnYuv3DO06ZXPt42toPtCWHdvGiEZNnWsoTgHmoBBpu58QmAsAigAY5EMLB+NVPUHLqVRvzoQH6N+I1rxtLGUzuRf99k21G/d83oXbCgtXZ37ZMr2vdyuzEgda5PHvRSXo1/7fCEZ+EzyNyFqoE8JpFk2CkCCcjWjfh/z1DZwmlG/z7lQX/P+6jCHms9tbQLUR9ayZISUNBUgBWlekhIQQvhgogbOkxLX+hBAAehDLeBnGPWPLxyNEn05hHUJ9VvXchubAKmsujDAdfXQec2t+x5Nl+sny8iumw+UT9Uea9pJkQN9JlmgiBroUwJplY0CkIg81UmlFNRHnYTNzXu6iL1u7XiXPPrc2zXUb10Z1pYA1oQBrquHOX/8h982h0F8ylImC0+bFIJzoIka2GS5aNMe7smbAApAAvJPLaiPRlkuwvi2Ef103nUy6nKdpACNNeVhbQlgixgAVdzkXBfKPgGmfjv339o4FWDuDcE5UJYLQgcbifDZlwAKQF9ygTyXUlAfM+rXKCuEJMXKR7CfMeb9y/y27L62/HW046YogPMKCmmfANVTo+q2UwG6PwTnQCkBhA6WNEh9CaAA9CUXwHO+RqdjN33a4QU06lf7NKViArGM3d6m/PqE+p2Xp7bDDS2pAw3NIbDNqoAyxxCcA6UEEDq4LBWOuxBAAehCK6B71fn7GJ2OjcBHGN+mNmhutSlQTFMefa/3DfVbV56tJYAqr00Y4Lp66bwsPV2XEs7Lb4xrbVYFzJYTQvhgOam29WOYrT/f8yWAAhCh7OXpH3vnb0b9+uOpkVRIydcmP+oMxw5wZHMJYJswwE1yHRLdsCnvPte7rAoo5y9/Dfmu6L32laQEsH+AL/pxlosCEKHcYl/fH+Ko37wGPuf9FXBm7GRrCaDqOYbiFqJDYNepACMzWTS0bNOnEqBpK5QAIxE+mwigADQRCux6zEt/TECfEEf9EnNK8/7mtd129VvM4aifY3ZyoTkEClSfqQA9F8IKAfYPkCRIbQigALShFNA9Nk26NpupUb/PML5NbUtp3r/cVlubAL3+8nK5mEHHsiScePyhQXmM/XDfqQDVQ+3Ru6533leSFUNThSQIzCOAAjCPDtcGEyiP+gdnZjEDX5v82Jj3L2PavH1H+etox32iAM4rXHPoYhFS6jsVYNrg2zlQ9ZezMAkCdQRQAOrIBHre5pzu2E32vXlP2/b42uRHZnTbTnA+Ni9qy332vuOPfHf2lPfvfacCTMWNc6D57vpTzsLT5cIN+x24rhflhUEABSAMObSuha2wrq0r0OJGBfTRlr1jRbJrUWTvW3xt8qMKD93it6nRNv1FzvQMAzyvznKi07sTUhoyFWDaoXbp9zCm34TJu82nlAD2D2hDKr97UADyk7nVFmvUrzC+coYKPfnc5Gfs9f5VrLe+eW/V6VHOrfQMA9xU+NCdD5vy73N96FSAyvTtHMgmQn0kn/4zKACRydhWXPehGEwY3xhG/WqrT6c/2/P+Rpa2VgAo/yFhgE39qj7lQCclMrQ0dCpA7VHbtNTTl68DmwiF9lb5rw8KgH8ZdKqBLa/uTpUo3SyzZkib95SqNvfQV7AfVcr2vL9peGjviqlX02eIDoFjTAWo3WaFgK+pDrWDTYSa3sB8rqMA5CPr0VuqP2JHHrh3GtJ19MwtZugzkqKUJVfTIzajRQ4NA9wkXldKUlM9ytfHmAow+WmazNcyQSkBsmhoCoyUNwEUgMjkb2tZVxcMsY761UafTn9SmOQQ5iLZ/uM+RhjgeRykJPnqIOfVSx3nWMnnMkEpAWwiNJYk480HBSBe2Xmpuf4oxzjqFyx1ipfdcrsXbpr3dengZnu5qEzZttM0YmRgsQHUcY4ZYMf3MkE2EbL9FoedPwpA2PLZUDtfTkRm1B9qGN8NoGZOyOnv8tvuKPQH3EeSSdtFp2naZtMB0OVyttSnAiQv38sE2UTI/Gry+0QBiEzmPpyIYh71G/HK6c9XUBx5tbua9zft3bL7WnM4+ueYYYCbKpfDVIAYqJ0+NxJiE6GmNzHN6ygAkcpVTkS2PYlltlYAk1hH/Ua0vnb4U/mSkY+lkTaVnbHDABs51X3q/XNpdairR/n82FMByltKgKbXfC0TZBOhsoTzOEYBiFjONj2JNeoPefOetmLTvL/++o4t7AAAGF9JREFUsPlI02mTQw86L9q2A6CNKIBNkDQ6Di2NuSrAtE0WPk3z2VbuTXmzn2rTmD4Os/nzPSwCb/iz/W+7J6wqUZsuBP7j8JPFRW/cWVx85Z4uj63dq07qzG+PFa+98Mvi9JHDxctPPzENxPKbH/+ftXtiPdC8/5s++ufFpsWLvDTh/03+kL/64v9zXvbSvpuKrZa2AVZjXnvh3wu9dy7TyiT08JD33FZd/9Nbbih+89j/HjX7s6+envgF/F9v7dXfEimRqgMpbQKb025eHq2bmugnoVnrRroyKcpsq5GbQrgqipvWcWspl0vHNNfS8LXDn9rpY97f8LUdLdJWGGBT/7rPYw8fKi7Ze4M3R86qepmpAP0Gx07K85Vnn56uXHHtvGo2EdLKlZT/Rowts9jyQwGITWI19Z1GT5t07NosKJcOvgbF9LSvHf5UuK95f8PDpgOgyrAVBtjUv+5THZE2UJLXekhJZvPlJx614ug53SDpucPnN/O59CqnzTabCE1XHjlY9um0cRQ2JYAPQEIvgv5YSBHQpxyKctXc5fSnP8o+kq95f9NWTXvYdABUObajAJq2VH3q3U49QNBsu/U7lj+Oj3brXWInwVmJpPMdBSAdWdKSCQGfTn8SgJzVfCpei2/clfx7oKmAHFYFzApSUwIKJe267VICtH+AlEtSWgRQANKSZ9at0R+oMUO1doWpEZosLz6TTec/0y7bYYBNOXWfZiqg7rqv8zZWBcy2RRYQH0sF5YPAJkKz0oj/OwpA/DKkBasEfO7wp3l/G45gXYVr2wFQ9fFp4TA81BH6Wipn6lD1qWiTtpOvKQEpAWwiZFu6bvNHAXDLm9IsEfC5w5/vef8yUnnJ20yuzc/z2iIP9ZDqo7rKXO5qHb2PKQGjBGhTLVL8BFAA4pdh9i3wucOf4MszPYRRsaZAbC8XcxkGuOnFznkqwLDxMSWgd4xNhIwE4v5EAYhbftnXXk5/vnb4E3zN++uPcAjJhQOg6zDATVxDnQpw6Yvia0oAJaDp7Qz/OgpA+DKihjUENOL1ucOfAiyFMO9v8LhwAPQRBti0r+7T5TbLdXWYPa9RsqupAFO2jykBdhI09OP8RAGIU27UekLA5w5/mntWgJSQ0tY911mvjq8ogPMaphGwIi+GllysCphts48pgboIpLN143t4BFAAwpMJNWpBwOcOf6peKPP+ZVR994Mo5xHr8TQS5sQiE1pysSpgts0+pgRsb0A120a+j0MABWAcjuTikICc/nyOOkKa9zfYXTgAqixfYYBNO+d9hmaRUV1drgqYZeNySsDF9NNs+/g+nAAKwHCG5OCQgDo6n05/oc37G/Rb37zXHFr99BkGuKlhTAVsJKQpgWl0SsvWERfxJza2jjNDCaAADCXI804J+NzhT/P+v/7OV5y2t21h2gTKRfIdBbCpjUwFbCSk6JS29xKwHX9iY6s4MwYBFIAxKJKHEwI+d/hTAzXv7zvUbx1oFw6AdWWHdj5EJc3nVICRj80pAa16kHWOFBcBFIC45JVtbX3u8CfoIc77l18GVw6AMrOHnqSksSqgWko2pwRcTUNVt4yzfQigAPShxjNOCfje4U/z/tqBLtTkygEwtLC78+TBVEA9HVtTAq6moepbxpWuBFAAuhLjfqcE1Lm5jKpW1TiZlEMe+boaeYUUBrhKTrPnmAqYJbL+u5kSWH+2/zemofqz8/UkCoAv8pTbioDPHf5UQZmSQ533NwBdjbxCCwNs2l/3Kblp6ia05CNAUB0DTQkcffC+QlauoWn5J48NzYLnHRNAAXAMnOLaE/C5w59qqe1mZUoOPbkaeYUYBrhJNhrljtG5NZXT9bqPAEF1dZSipBgKQ5Sl0H1k6tqe+3kUgNzfgEDb73uHP813hxhjvkpczhwATxyrKj74c8cf+W5wdQxhVUAZiqa4+k4J6LcSso9MuZ0cryeAArCeB98CICCnP20y4jNNg6dE4PHuygHQpyyGli0z95DR7dDy654PaSrA1LHPlEAsvxXTRj4vEEABuMCCowAIqEPzbR6NYd7fiMqVA6DKCzkMsOFR96kRaoirGHy/61W8zCoBTYE1pZh+K01tyfE6CkCOUg+4zT53+BOWWOb9jQhdOQCqvJDDABsedZ8ycWukGloKbSqgzOeXX/1c8cK3vlQ+te54ujw2Ah+ZdZXmyzoCm9d94wsEPBLwvcOf/qDFMu9vxOTKAVDlhR4G2DCp+zSrAmR6DympPstPPBrkahNNCZx67nAhS5OUTcX837y0s9i8fUdw22GHJNNY6oICEIukEq+n7x3+ZB6WJ3TI6/2rXgFXDoBVZcd4To5uW3ZfO92lL6T6aypA8fpDTPpNrEwUAVJ6BJgCSE+m0bVI8/4+d/hT53/kgXuj6/xdOwDGphzV/RDYNriODOdzI4ACkJvEA2yv7x3+YvViduoAOEKgmFBePSky8+a2fdUzxFUBvlhQrhsCKABuOFNKDQHfO/yp89fccIzJqQPgyRMxIqqt83Ruu4WXe20Gli6EuCrAUlPJNgACKAABCCHXKvje4U8hUGPt/PXOuHQATPEdlcNnaEsDtSpA/jAkCLgggALggjJlbCDge4c/mYBj7vwF1KUDYIxhgDe8dDMnNBUQ5NLAibc9CQIuCKAAuKBMGRsI+DR1qvOXCTjm5NwBMNIwwE0yNksDm+7jOgRSJIACkKJUA2+Tz3l/RS6LvfOXeF06AKq8mKMAqv7zUmgbBjG1M09aXBuTAArAmDTJq5GATP++ArGo849hd79GiJMbtl39lja3cU9LAr/+zlda3sltEEiHAApAOrKMoiVXfehOL/XUZjCpdP4CqGhsLlPMYYDbcNJUQChLA136drRhwz3pEkABSFe2wbVMpv+FrZc4r5c6f5l5U0quO4nYwwC3kX0oSwN9/Eba8OGe9AigAKQn0yBb5Mv0r819Uuv8XTsA6oVKJQpg048jlKWBkjEJArYJoADYJkz+hf6Y+TD9q/PXjmapJdcOgKGtlbcpTyk6L37/6zaLaJX34ht3tbqPmyAwhMDCuaI4PCQDnoVAE4FdNx9wbvqPcWe/Jo7mumsHwNdfXjZFZ/GpqQBNG/lMmye77pEgYJOA+n4sADYJk3fhw/Svzj/Gnf3avi7OHQATCwPchrPvpYEuwzy34cE9aRJAAUhTrsG0yvVIJtZtfbsIbOs113e5ffC9KUYBbAPF59LARSwAbUTEPUMInD372EIx+W9IHjwLgXkEXI5kYt3Wdx6/2Ws4h80SsfddSwMVO4IEgVQJYAFIVbKBtMvVSEadf6zb+nYRlWsHQNVtJdEwwG24K3aEnEldpy27r3VdJOVlSAAFIEOhu2yyi/lq0/nHvrlPG7m4dgBUnVIOA9yGuY+lgW+4ZKlN1bgHAoMILBSbirh3RRnUfB62TWDz9h22i5iO/HPo/AXSx8gw9SiATS+oj6WBBANqkgrXBxOY9P1YAAZTJIN5BGyPZFLY1ncev9lr2i+e5J6Aj6WB+Hu4l3NuJaIA5CZxx+21OZJJYVvfLuLQkkofKYcwwG24ulwaqGmtXKIvtmHPPXYILBTnip/byZpccydgcwSTyra+Xd6RrZ52AKQjuiAlV0sDTzz+0IVCOYKADQKTvn9h5fRr/2Yjb/KEgK1wpilt69vlLfGxT7xGoqQLBFwsDRTzlHauvECPo5AIqO9f2PeFQ8+EVCnqAoF5BFLb1ndeW2evud4BUOXnFgZ4lnnVd9tLAxn9V1Hn3NgE1PdPfQDYD2BstOQnAhotHX3wvtHWUae4rW/bN0XTKTb9KerqcSbDMMB1LMrnbS0N1Oh/+clHy0VxDIHRCZg+/7wTINEARwdMhucJSAnQjnxDFYEUt/Xt8o74CACk+uUaBrhJNjaWBmoPC+1EiM9FE32uDyaw2udvHpwRGUCgBQEpAq9MFIGlt99Y7Nx/a9FlOVuq2/q2wLZ2i48AQGuFc1BJQEsDJZft+/ZXXm9zUp3+yZ/+eDrqp+NvQ4x7xiRwXgE4Hwzo4JgZkxcEqgjoj6b+tVEE1PEv/+Sx6f1VeeV0zkcAIPHNOQxwm/dLSwP1T0s0tfGVFAJFv5S/Rt2Ujcz8muc/9ezT02myNuVwDwRGJbAaAPC8AqClgJtGzZ7MIDCXQJ0iYP44ah6UEdEFhF0sJheeGn6UexjgtgRl4Som//RemyS/Da2E0fJNsyfG8hOP0ukbQHz6I7C6/H+qAGg5wEXbtvirDCVnS6CsCAhC+Q9otlBmGu4rAJCqkXsY4BlRdPoqBVb/pspBpye5GQJ2CZjl/1MnQJYC2oVN7s0EjCLQfGd+d/gKAJQfaVoMgTwImD5/LRSwWRaQR/NpJQTiIWDMxz5qTBhgH9QpEwL2CJT7+jUFoGApoD3i5AyBAQQu2XvDgKeHPYofxjB+PA2B4AiU+voLCgDbAgcnJyoEAV8BgEReDpkkCEAgMQKlvn5NAVg59dr3EmsmzYFA9AR8BQASOMIAR//60AAIbCBQ7uvXFAA5BZTnBjY8xQkIQMA5gcUdlzov0xRIGGBDgk8IpEFAfbxxAFSL1hSAafNKcwNpNJdWQCBuAj52ADTECANsSPAJgUQIzPTx6xWAovhKIs2kGRBIgsDWa6731g6iAHpDT8EQsEVgXR+/TgEwwQFslUy+EIBAewJyACRBAAIQGIvAbB+/TgHAD2AszOQDgeEEtARP+yH4SoQB9kWeciEwPoHZ+X+VsE4BmBY5M0cwfjXIEQIQaEvg+A+/3fbW0e8jDPDoSMkQAv4IVPTtGxUA/AD8CYiSITBDQHHktWWsj0QUQB/UKRMC1gism/9XKRsUgLf+9Td/YK14MoYABDoTOP7Idzs/wwMQgAAEygSq+vYNCoAeIB5AGRvHEPBLQBsl+YjKRxhgv3KndAiMRaCuT69UAIpzZz83VsHkAwEIDCfw8uEnhmfSIQdf0w4dqsitEIBAWwI1fXqlAlAOFdg2f+6DAATsETj28CF7mZMzBCCQNIG6Pr1SAZguBzx79sGkidA4CEREwPWSQMIAR/RyUFUIzCFwbtKXl8P/lm+tVABWb9jgMVh+kGMIQMAtAZdLApd/8pjbxlEaBCBgi0BtX16rAFR5DNqqHflCAALNBFwtCTz+8D8WcjwkQQAC8ROY15fXKgBqtkwH8TefFkAgHQK2lwSefPKR4tg/fycdYLQEAhkTaOrD5yoAk7jBf5UxO5oOgeAIaGSuTtpGUtjh5w992UbW5AkBCHgg0NSHz1UA2BvAg8QoEgINBNRJv/CtL40aG0DL/l44hMGvAT2XIRANgarY/7OVn6sATG+uWT84mxHfIQABdwRkCTjywL2jhAlWkKGjX/t8QeAfd/KjJAhYJ9Ci797cVAmtH7xo25am27gOAQg4JqAO+9kv3lNceeCjxfZ9+zuXLpO/vP1x+OuMjgcgEDyBurX/5YpvKn+pO/7Zn3/g7zctLBysu855CEDAL4Glt99YXHbL7cXC1kvmVkSj/ROPP1QsP/koI/65pLgIgXgJyPlv4v3/saYWNFoAVjPQOkIUgCaaXIeAJwIaxZ967nCx+8OfKhYvvWpDLTTaVxwBLSUkQQACyROoXftfbnkrC4AewApQxsYxBMIlYKYE5Nh38qc/ZrQfrqioGQRGJ9B29K+C21oAdC9WAFEgQSBwAloloL0DcOoLXFBUDwJ2CLQa/avo1hYA3fyzT3/w6ckDe3VMggAEIAABCEAgHAJa+vfW//kPb2lbo+ZlgOWczp790/JXjiEAAQhAAAIQCIRAxz66kwVATcQKEIigqQYEIAABCEBglUDX0b8e62YB0BMdNQw9QoIABCAAAQhAwCKBHn1zZwuAqo8VwKIQyRoCEIAABCDQgUCf0b+y724B0FM9NA09RoIABCAAAQhAYGQCPfvkXhYAVR0rwMgCJDsIQAACEIBARwJ9R/8qpp8FQE/21Dj0KAkCEIAABCAAgREIDOiLeysAkzjDP1DEoRGqTxYQgAAEIAABCHQksBr17wcdH1u7vfcUgMnhqU9/cGKBIEEAAhCAAAQg4JLA9f/zHwb14b0tAKaR586dvdMc8wkBCEAAAhCAgH0CY/S9g7QH00QcAg0JPiEAAQhAAAJ2CQxx/CvXbLAFQJmtvHL6PeVMOYYABCAAAQhAwA6BsfrcURSAfV849AwOgXYETa4QgAAEIAABQ0B9rfpc833I5yhTAKYCOAQaEnxCAAIQgAAExicw1PGvXKNRLAAmw4lm8sfmmE8IQAACEIAABMYjMHYfO6oCQGyA8QRNThCAAAQgAAFDQKZ/9bHm+xifo04BmAqxKsCQ4BMCEIAABCAwjMBYXv+ztRjVAmAyH8tD0eTHJwQgAAEIQCBXArb6VCsKwHRVAAGCcn1XaTcEIAABCIxEQAF/xvL6n62SlSkAU8jP/vwDf79pYeGg+c4nBCAAAQhAAALtCKzO+3+s3d3d77KqAKg6+AN0FwpPQAACEIBA3gRszfuXqVqZAigXYGvuolwGxxCAAAQgAIGUCLjoO60rAPgDpPRK0hYIQAACELBNwOa8f7nu1qcATGH4AxgSfEIAAhCAAASqCdie9y+X6kwBUKEoAWX0HEMAAhCAAAQuEHDZ+atU61MAF5o22TXw9Gt/JceG8jmOIQABCEAAArkTmDr9/fU3P+aSg1MFQP4AcmxACXApYsqCAAQgAIGQCahPdOH0N8vA6RSAKfzJPztwzUXbtvzCfOcTAhCAAAQgkCuB1145fa2tYD/zmHpRAFQhlIB5YuEaBCAAAQjkQMBX5y+2TqcAysKcLg9k++AyEo4hAAEIQCAjAhOnvz/2MfI3iL1ZAEwFJisD/mgSLvifzHc+IQABCEAAAqkTUOc/9va+XZl5swCYigqAgh6Y73xCAAIQgAAEUiagPs935y++3i0ARsg/u/sD/33TpoX7zXc+IQABCEAAAqkRmHb+933z70JoVzAKgGAwHRDCK0EdIAABCEDABoEQzP7ldgWlAKhiKAFl8XAMAQhAAAIpEAit8xfT4BQAVYolgqJAggAEIACBFAj4XOo3j593J8CqymlZhIARMbCKDucgAAEIQCAGAurDQu38xS9IC4ARrCwBi9u2fG9Syb3mHJ8QgAAEIACB0AmY8L4+1/k3MQpaATCVZxdBQ4JPCEAAAhAIncBkvv/ByTK/j4VezygUAEFECQj9VaJ+EIAABCAQS+cvSUWjAKiyrBAQBRIEIAABCIRIIERP/3mcolIA1BD8AuaJk2sQgAAEIOCaQAzz/VVMolMATCOYEjAk+IQABCAAAV8EYjL5zzKKVgFQQ5gSmBUn3yEAAQhAwBWB2Ez+s1yiVgDUGKYEZkXKdwhAAAIQsEkgVpP/LJPoFQDTIKYEDAk+IQABCEDAFoGYTf6zTIKMBDhbyTbfteZS5hhpZm3u5x4IQAACEIBAWwLqW1ZN/h9r+0zo9yVjASiDZmvhMg2OIQABCEBgCIGQtvAd0o7ZZ5OxAJQb9tbJXsvTvQQm0ZjK5zmGAAQgAAEItCUgc7/6EvUpbZ+J6b4kLQBlAbBSoEyDYwhAAAIQaENg1dz/gzb3xnpP8gqAEQzTAoYEnxCAAAQgUEdAo/4Y4vjX1b/L+WwUAEFhyWCXV4N7IQABCORDIJWlfV0klpUCYMBoWqBYWPjbSePZZthA4RMCEIBAhgSmK8fOnv3Tyag/aXN/lWizVAAMiKkiUBR3bFpYOGjO8QkBCEAAAukTkKl/0sqv5NjxG+lmrQAYCNOpgS0X/SWKgCHCJwQgAIE0CajjXzn92l/t+8KhZ9JsYftWoQCUWKEIlGBwCAEIQCAhAnT8G4WJArCRyXlnQSwCFWQ4BQEIQCAuAnT89fJCAahnM72i5YPFpoW7JqBwGGxgxWUIQAACIRCYOvadO/u5VAP4jMUYBaAlyen0wNaL3oMy0BIYt0EAAhBwSMB0+iunXvse8/vtwKMAtOO07i58Bdbh4AsEIAABbwQw8fdHjwLQn930SZYSDgTI4xCAAAQ6ElCnP3kk6yV8HZFV3o4CUIml38m1aYJzxY0sKezHkKcgAAEIzBKYdvibih9h3p8lM+w7CsAwfnOfRiGYi4eLEIAABCoJ0OFXYhn9JArA6EjrM5xOF2wqrismFoJJKOKbJvBZWVCPiysQgEAGBKbOe2fPPlZMRviTv40/zzkyn2txowC4Jj5T3qpD4e9OXv7zioGuoxzMUOIrBCAQO4HVefvCdPSTaHz/hre+X6miAPjlP7f0NeVAd0lBKCdZEcppojSUv3IMAQhAwBoBjdjLSaP3cpqM5PWVTr4MhWMIQAACEIAABCAQAIH/D8JtFA1ygGSVAAAAAElFTkSuQmCC;" vertex="1" parent="1">
          <mxGeometry x="312.8532811779485" y="754.8529411764706" width="72.94117647058823" height="72.94117647058823" as="geometry" />
        </mxCell>
        <mxCell id="C5qRO8VCmWmZMDgydjaB-45" style="edgeStyle=orthogonalEdgeStyle;rounded=0;orthogonalLoop=1;jettySize=auto;html=1;entryX=0.5;entryY=1;entryDx=0;entryDy=0;entryPerimeter=0;" edge="1" parent="1" source="C5qRO8VCmWmZMDgydjaB-42" target="C5qRO8VCmWmZMDgydjaB-28">
          <mxGeometry relative="1" as="geometry" />
        </mxCell>
        <mxCell id="C5qRO8VCmWmZMDgydjaB-48" value="AgentCore&#xa;Runtime" style="shape=image;verticalLabelPosition=bottom;labelBackgroundColor=default;verticalAlign=top;aspect=fixed;imageAspect=0;editableCssRules=.*;image=data:image/svg+xml,PHN2ZyB4bWxuczp4bGluaz0iaHR0cDovL3d3dy53My5vcmcvMTk5OS94bGluayIgeG1sbnM9Imh0dHA6Ly93d3cudzMub3JnLzIwMDAvc3ZnIiB2aWV3Qm94PSItMyAtMi44MTk5OTk5OTI4NDc0NDI2IDIwNiAyMDYiIHZlcnNpb249IjEuMSIgaWQ9IkxheWVyXzEiIHdpZHRoPSIyMDYiIGhlaWdodD0iMjA2Ij4mI3hhOyAgJiN4YTsgIDxkZWZzPiYjeGE7ICAgICYjeGE7ICAgIDxsaW5lYXJHcmFkaWVudCBncmFkaWVudFVuaXRzPSJ1c2VyU3BhY2VPblVzZSIgZ3JhZGllbnRUcmFuc2Zvcm09InRyYW5zbGF0ZSg1NjQgMjYyOC42NykiIHkyPSItMjUwMi4xMSIgeDI9Ii01OTguMDYiIHkxPSItMjU1NC4yOSIgeDE9Ii0zMzIuOTEiIGlkPSJsaW5lYXItZ3JhZGllbnQiPiYjeGE7ICAgICAgPHN0b3Agc3RvcC1jb2xvcj0iIzc2MzhmYSIgb2Zmc2V0PSIuMzgiLz4mI3hhOyAgICAgIDxzdG9wIHN0b3Atb3BhY2l0eT0iLjY4IiBzdG9wLWNvbG9yPSIjMzQxNDc4IiBvZmZzZXQ9IjEiLz4mI3hhOyAgICA8L2xpbmVhckdyYWRpZW50PiYjeGE7ICAgIDxsaW5lYXJHcmFkaWVudCBncmFkaWVudFVuaXRzPSJ1c2VyU3BhY2VPblVzZSIgZ3JhZGllbnRUcmFuc2Zvcm09InRyYW5zbGF0ZSg1NjQgMjYyOC42NykiIHkyPSItMjUwMi4xMSIgeDI9Ii01OTguMDYiIHkxPSItMjU1NC4yOSIgeDE9Ii0zMzIuOTEiIGlkPSJsaW5lYXItZ3JhZGllbnQxIj4mI3hhOyAgICAgIDxzdG9wIHN0b3AtY29sb3I9IiM3NjM4ZmEiIG9mZnNldD0iLjM4Ii8+JiN4YTsgICAgICA8c3RvcCBzdG9wLW9wYWNpdHk9Ii42OCIgc3RvcC1jb2xvcj0iIzM0MTQ3OCIgb2Zmc2V0PSIxIi8+JiN4YTsgICAgPC9saW5lYXJHcmFkaWVudD4mI3hhOyAgICA8Y2xpcFBhdGggaWQ9ImNsaXBwYXRoIj4mI3hhOyAgICAgIDxyZWN0IGhlaWdodD0iMTIyLjg1IiB3aWR0aD0iOTMuMDUiIHk9IjM3LjU2IiB4PSIxMDIuNzciIGZpbGw9Im5vbmUiLz4mI3hhOyAgICA8L2NsaXBQYXRoPiYjeGE7ICA8L2RlZnM+JiN4YTsgIDxyZWN0IGhlaWdodD0iMjAwIiB3aWR0aD0iMjAwIiB5PSIuMTgiIGZpbGw9InVybCgjbGluZWFyLWdyYWRpZW50KSIvPiYjeGE7ICA8cmVjdCBoZWlnaHQ9IjIwMCIgd2lkdGg9IjIwMCIgeT0iLjE4IiBmaWxsPSJ1cmwoI2xpbmVhci1ncmFkaWVudDEpIi8+JiN4YTsgIDxwb2x5Z29uIHBvaW50cz0iMTAyLjc3IDM3LjU2IDEwMi43NyAxNjMuMDIgNzguNzYgMTcxLjE0IDQ2LjU2IDE1Mi4xOCA0Ni41NiAxMjYuODQgMjcuOSAxMTUuODYgMjcuOSA4NC43MiA0Ni4zMyA3My44MSA0Ni4zMyA0OC40IDc4Ljg0IDI5LjcyIDEwMi43NyAzNy41NiIgc3Ryb2tlLXdpZHRoPSI2cHgiIHN0cm9rZS1saW5lam9pbj0icm91bmQiIHN0cm9rZT0iI2ZmZiIgZmlsbD0ibm9uZSIvPiYjeGE7ICA8bGluZSB5Mj0iMzguNzMiIHgyPSI2NS4zMyIgeTE9IjYzLjcxIiB4MT0iNjUuMzMiIHN0cm9rZS13aWR0aD0iNnB4IiBzdHJva2UtbGluZWpvaW49InJvdW5kIiBzdHJva2U9IiNmZmYiIGZpbGw9Im5vbmUiLz4mI3hhOyAgPGxpbmUgeTI9IjExNS43OSIgeDI9IjEwMy4zMiIgeTE9IjEzOS42OSIgeDE9IjYyLjc0IiBzdHJva2Utd2lkdGg9IjZweCIgc3Ryb2tlLWxpbmVqb2luPSJyb3VuZCIgc3Ryb2tlPSIjZmZmIiBmaWxsPSJub25lIi8+JiN4YTsgIDxsaW5lIHkyPSIxNjIuOSIgeDI9IjY1LjcxIiB5MT0iMTQ5Ljc4IiB4MT0iODYuNTMiIHN0cm9rZS13aWR0aD0iNnB4IiBzdHJva2UtbGluZWpvaW49InJvdW5kIiBzdHJva2U9IiNmZmYiIGZpbGw9Im5vbmUiLz4mI3hhOyAgPGxpbmUgeTI9IjEyNi43MyIgeDI9IjQ1LjkzIiB5MT0iMTE1Ljc5IiB4MT0iNjMuMjgiIHN0cm9rZS13aWR0aD0iNnB4IiBzdHJva2UtbGluZWpvaW49InJvdW5kIiBzdHJva2U9IiNmZmYiIGZpbGw9Im5vbmUiLz4mI3hhOyAgPHBvbHlsaW5lIHBvaW50cz0iODEuMDYgNTUuODYgODEuMDYgNzMuODEgNjUuMzMgODQuODggNDYuMzMgNzMuODEiIHN0cm9rZS13aWR0aD0iNnB4IiBzdHJva2UtbGluZWpvaW49InJvdW5kIiBzdHJva2U9IiNmZmYiIGZpbGw9Im5vbmUiLz4mI3hhOyAgPHBvbHlsaW5lIHBvaW50cz0iNTEuOTQgMTA1LjQ5IDY1LjMzIDk3LjQ1IDY1LjMzIDg1LjU4IiBzdHJva2Utd2lkdGg9IjZweCIgc3Ryb2tlLWxpbmVqb2luPSJyb3VuZCIgc3Ryb2tlPSIjZmZmIiBmaWxsPSJub25lIi8+JiN4YTsgIDxsaW5lIHkyPSI5Ny40NSIgeDI9IjY1LjMzIiB5MT0iMTA1LjQ5IiB4MT0iNzguNzIiIHN0cm9rZS13aWR0aD0iNnB4IiBzdHJva2UtbGluZWpvaW49InJvdW5kIiBzdHJva2U9IiNmZmYiIGZpbGw9Im5vbmUiLz4mI3hhOyAgPGcgY2xpcC1wYXRoPSJ1cmwoI2NsaXBwYXRoKSI+JiN4YTsgICAgPGc+JiN4YTsgICAgICA8cGF0aCBkPSJNMTM5LjkzLDg4LjU3bDI1LjA1LDEwLjA0YzEuNDkuNiwxLjQ4LDIuNzEtLjAyLDMuMjlsLTI0LjUxLDkuNDctMTAuMiwyNS4yOWMtLjYxLDEuNS0yLjc0LDEuNDctMy4zLS4wNWwtOS4yMi0yNC45My0yNS41Mi05Ljc2Yy0xLjUxLS41OC0xLjUyLTIuNzIsMC0zLjNsMjQuODQtOS42Myw5Ljg2LTI1LjE0Yy41OS0xLjUsMi43LTEuNSwzLjI5LDBsOS43NSwyNC43M2gtLjAyWiIgc3Ryb2tlLXdpZHRoPSI2cHgiIHN0cm9rZS1saW5lam9pbj0icm91bmQiIHN0cm9rZT0iI2ZmZiIgZmlsbD0ibm9uZSIvPiYjeGE7ICAgICAgPHBhdGggZD0iTTE2NS4yNSw2Ni45Mmw5LjUsMy44MWMuNDEuMTYuNC43NCwwLC45bC05LjMsMy41OS0zLjg3LDkuNTljLS4xNy40MS0uNzUuNC0uOS0uMDFsLTMuNS05LjQ2LTkuNjgtMy43Yy0uNDEtLjE2LS40MS0uNzQsMC0uOWw5LjQzLTMuNjYsMy43NC05LjUzYy4xNi0uNDEuNzQtLjQxLjksMGwzLjcsOS4zOGgtLjAyWiIgZmlsbD0iI2ZmZiIvPiYjeGE7ICAgIDwvZz4mI3hhOyAgPC9nPiYjeGE7PC9zdmc+;" vertex="1" parent="1">
          <mxGeometry x="649.9784541016712" y="240.00470588235294" width="63.8235294117647" height="63.8235294117647" as="geometry" />
        </mxCell>
        <mxCell id="C5qRO8VCmWmZMDgydjaB-55" value="Privete-Subnet" style="sketch=0;outlineConnect=0;gradientColor=none;html=1;whiteSpace=wrap;fontSize=12;fontStyle=0;shape=mxgraph.aws4.group;grIcon=mxgraph.aws4.group_subnet;strokeColor=#879196;fillColor=none;verticalAlign=top;align=left;spacingLeft=30;fontColor=#879196;dashed=0;" vertex="1" parent="1">
          <mxGeometry x="220" y="350" width="209.71" height="170" as="geometry" />
        </mxCell>
      </root>
    </mxGraphModel>
  </diagram>
</mxfile>
